<?xml version='1.0' encoding='UTF-8'?>
<svg xmlns="http://www.w3.org/2000/svg" xmlns:dc="http://purl.org/dc/elements/1.1/" xmlns:ns2="http://creativecommons.org/ns#" xmlns:rdf="http://www.w3.org/1999/02/22-rdf-syntax-ns#" xmlns:xlink="http://www.w3.org/1999/xlink" width="675.657187pt" height="293.434375pt" viewBox="0 0 675.657187 293.434375" version="1.1">
 <metadata>
  <rdf:RDF>
   <ns2:Work>
    <dc:type rdf:resource="http://purl.org/dc/dcmitype/StillImage" />
    <dc:date>2026-03-27T00:43:20.161446</dc:date>
    <dc:format>image/svg+xml</dc:format>
    <dc:creator>
     <ns2:Agent>
      <dc:title>Matplotlib v3.10.8, https://matplotlib.org/</dc:title>
     </ns2:Agent>
    </dc:creator>
   </ns2:Work>
  </rdf:RDF>
 </metadata>
 <defs>
  <style type="text/css">*{stroke-linejoin: round; stroke-linecap: butt}</style>
 </defs>
 <g id="figure_1">
  <g id="patch_1">
   <path d="M 0 293.434375  L 675.657187 293.434375  L 675.657187 0  L 0 0  z " style="fill: #ffffff" />
  </g>
  <g id="axes_1">
   <g id="patch_2">
    <path d="M 40.603125 255.878125  L 631.863125 255.878125  L 631.863125 26.318125  L 40.603125 26.318125  z " style="fill: #ffffff" />
   </g>
   <g id="matplotlib.axis_1">
    <g id="xtick_1">
     <g id="line2d_1">
      <path d="M 40.603125 255.878125 L 40.603125 26.318125" clip-path="url(#p9547945bb1)" style="fill: none; stroke: #e0e0e0; stroke-width: 0.5; stroke-linecap: square" />
     </g>
     <g id="line2d_2">
      <defs>
       <path id="m53fab3fce0" d="M -8.597428 0 L -8.597428 3.5" style="stroke: #333333; stroke-width: 0.8" />
      </defs>
      <g>
       <use xlink:href="#m53fab3fce0" x="40.603125" y="255.878125" style="fill: #333333; stroke: #333333; stroke-width: 0.8" />
      </g>
     </g>
     <g id="text_1">
      
      <g style="fill: #333333" transform="translate(32.89341 270.476562) scale(0.1 -0.1)">
       <defs>
        <path id="DejaVuSans-31" d="M 953.526517 531 L 2202.833553 531 L 2202.833553 4091 L 843.257904 3866 L 843.257904 4441 L 2195.563095 4666 L 2960.17293 4666 L 2960.17293 531 L 4209.479966 531 L 4209.479966 0 L 953.526517 0 L 953.526517 531 z" transform="scale(0.015625)" />
        <path id="DejaVuSans-30" d="M 2456.087841 4250 Q 1865.968998 4250 1567.880219 3770 Q 1271.003184 3291 1271.003184 2328 Q 1271.003184 1369 1567.880219 889 Q 1865.968998 409 2456.087841 409 Q 3051.053655 409 3347.930691 889 Q 3646.019469 1369 3646.019469 2328 Q 3646.019469 3291 3347.930691 3770 Q 3051.053655 4250 2456.087841 4250 z M 2456.087841 4750 Q 3407.306098 4750 3908.967701 4129 Q 4410.629304 3509 4410.629304 2328 Q 4410.629304 1150 3908.967701 529 Q 3407.306098 -91 2456.087841 -91 Q 1506.081326 -91 1004.419723 529 Q 502.75812 1150 502.75812 2328 Q 502.75812 3509 1004.419723 4129 Q 1506.081326 4750 2456.087841 4750 z" transform="scale(0.015625)" />
       </defs>
       <use xlink:href="#DejaVuSans-31" />
       <use xlink:href="#DejaVuSans-30" transform="translate(68.497354 0)" />
      </g>
     </g>
    </g>
    <g id="xtick_2">
     <g id="line2d_3">
      <path d="M 219.716917 255.878125 L 219.716917 26.318125" clip-path="url(#p9547945bb1)" style="fill: none; stroke: #e0e0e0; stroke-width: 0.5; stroke-linecap: square" />
     </g>
     <g id="line2d_4">
      <g>
       <use xlink:href="#m53fab3fce0" x="219.716917" y="255.878125" style="fill: #333333; stroke: #333333; stroke-width: 0.8" />
      </g>
     </g>
     <g id="text_2">
      
      <g style="fill: #333333" transform="translate(208.152345 270.476562) scale(0.1 -0.1)">
       <use xlink:href="#DejaVuSans-31" />
       <use xlink:href="#DejaVuSans-30" transform="translate(68.497354 0)" />
       <use xlink:href="#DejaVuSans-30" transform="translate(145.592136 0)" />
      </g>
     </g>
    </g>
    <g id="xtick_3">
     <g id="line2d_5">
      <path d="M 398.830709 255.878125 L 398.830709 26.318125" clip-path="url(#p9547945bb1)" style="fill: none; stroke: #e0e0e0; stroke-width: 0.5; stroke-linecap: square" />
     </g>
     <g id="line2d_6">
      <g>
       <use xlink:href="#m53fab3fce0" x="398.830709" y="255.878125" style="fill: #333333; stroke: #333333; stroke-width: 0.8" />
      </g>
     </g>
     <g id="text_3">
      
      <g style="fill: #333333" transform="translate(391.467477 270.476562) scale(0.1 -0.1)">
       <defs>
        <path id="DejaVuSans-6b" d="M 695.425257 4863 L 1395.812713 4863 L 1395.812713 1991 L 3475.163706 3500 L 4364.58307 3500 L 2115.588057 1863 L 4460.310768 0 L 3551.503515 0 L 1395.812713 1709 L 1395.812713 0 L 695.425257 0 L 695.425257 4863 z" transform="scale(0.015625)" />
       </defs>
       <use xlink:href="#DejaVuSans-31" />
       <use xlink:href="#DejaVuSans-6b" transform="translate(68.497354 0)" />
      </g>
     </g>
    </g>
    <g id="xtick_4">
     <g id="line2d_7">
      <path d="M 577.944501 255.878125 L 577.944501 26.318125" clip-path="url(#p9547945bb1)" style="fill: none; stroke: #e0e0e0; stroke-width: 0.5; stroke-linecap: square" />
     </g>
     <g id="line2d_8">
      <g>
       <use xlink:href="#m53fab3fce0" x="577.944501" y="255.878125" style="fill: #333333; stroke: #333333; stroke-width: 0.8" />
      </g>
     </g>
     <g id="text_4">
      
      <g style="fill: #333333" transform="translate(566.726412 270.476562) scale(0.1 -0.1)">
       <use xlink:href="#DejaVuSans-31" />
       <use xlink:href="#DejaVuSans-30" transform="translate(68.497354 0)" />
       <use xlink:href="#DejaVuSans-6b" transform="translate(145.592136 0)" />
      </g>
     </g>
    </g>
    <g id="xtick_5">
     <g id="line2d_9">
      <path d="M 757.058293 255.878125 L 757.058293 26.318125" clip-path="url(#p9547945bb1)" style="fill: none; stroke: #e0e0e0; stroke-width: 0.5; stroke-linecap: square" />
     </g>
     <g id="line2d_10">
      <g>
       <use xlink:href="#m53fab3fce0" x="757.058293" y="255.878125" style="fill: #333333; stroke: #333333; stroke-width: 0.8" />
      </g>
     </g>
     <text id="text_20k" x="631.863125" y="313.663438" style="font: 10px 'DejaVu Sans'; fill: #333333; text-anchor: middle">20k</text></g>
    <g id="xtick_6">
     <g id="line2d_11">
      <path d="M 94.521749 255.878125 L 94.521749 26.318125" clip-path="url(#p9547945bb1)" style="fill: none; stroke: #f0f0f0; stroke-width: 0.3; stroke-linecap: square" />
     </g>
     <g id="line2d_12">
      <defs>
       <path id="m37c566d42b" d="M -8.597428 0 L -8.597428 2" style="stroke: #333333; stroke-width: 0.6" />
      </defs>
      <g>
       <use xlink:href="#m37c566d42b" x="94.521749" y="255.878125" style="fill: #333333; stroke: #333333; stroke-width: 0.6" />
      </g>
     </g>
    </g>
    <g id="xtick_7">
     <g id="line2d_13">
      <path d="M 126.062122 255.878125 L 126.062122 26.318125" clip-path="url(#p9547945bb1)" style="fill: none; stroke: #f0f0f0; stroke-width: 0.3; stroke-linecap: square" />
     </g>
     <g id="line2d_14">
      <g>
       <use xlink:href="#m37c566d42b" x="126.062122" y="255.878125" style="fill: #333333; stroke: #333333; stroke-width: 0.6" />
      </g>
     </g>
    </g>
    <g id="xtick_8">
     <g id="line2d_15">
      <path d="M 148.440374 255.878125 L 148.440374 26.318125" clip-path="url(#p9547945bb1)" style="fill: none; stroke: #f0f0f0; stroke-width: 0.3; stroke-linecap: square" />
     </g>
     <g id="line2d_16">
      <g>
       <use xlink:href="#m37c566d42b" x="148.440374" y="255.878125" style="fill: #333333; stroke: #333333; stroke-width: 0.6" />
      </g>
     </g>
    </g>
    <g id="xtick_9">
     <g id="line2d_17">
      <path d="M 165.798293 255.878125 L 165.798293 26.318125" clip-path="url(#p9547945bb1)" style="fill: none; stroke: #f0f0f0; stroke-width: 0.3; stroke-linecap: square" />
     </g>
     <g id="line2d_18">
      <g>
       <use xlink:href="#m37c566d42b" x="165.798293" y="255.878125" style="fill: #333333; stroke: #333333; stroke-width: 0.6" />
      </g>
     </g>
    </g>
    <g id="xtick_10">
     <g id="line2d_19">
      <path d="M 179.980746 255.878125 L 179.980746 26.318125" clip-path="url(#p9547945bb1)" style="fill: none; stroke: #f0f0f0; stroke-width: 0.3; stroke-linecap: square" />
     </g>
     <g id="line2d_20">
      <g>
       <use xlink:href="#m37c566d42b" x="179.980746" y="255.878125" style="fill: #333333; stroke: #333333; stroke-width: 0.6" />
      </g>
     </g>
    </g>
    <g id="xtick_11">
     <g id="line2d_21">
      <path d="M 191.97184 255.878125 L 191.97184 26.318125" clip-path="url(#p9547945bb1)" style="fill: none; stroke: #f0f0f0; stroke-width: 0.3; stroke-linecap: square" />
     </g>
     <g id="line2d_22">
      <g>
       <use xlink:href="#m37c566d42b" x="191.97184" y="255.878125" style="fill: #333333; stroke: #333333; stroke-width: 0.6" />
      </g>
     </g>
    </g>
    <g id="xtick_12">
     <g id="line2d_23">
      <path d="M 202.358997 255.878125 L 202.358997 26.318125" clip-path="url(#p9547945bb1)" style="fill: none; stroke: #f0f0f0; stroke-width: 0.3; stroke-linecap: square" />
     </g>
     <g id="line2d_24">
      <g>
       <use xlink:href="#m37c566d42b" x="202.358997" y="255.878125" style="fill: #333333; stroke: #333333; stroke-width: 0.6" />
      </g>
     </g>
    </g>
    <g id="xtick_13">
     <g id="line2d_25">
      <path d="M 211.52112 255.878125 L 211.52112 26.318125" clip-path="url(#p9547945bb1)" style="fill: none; stroke: #f0f0f0; stroke-width: 0.3; stroke-linecap: square" />
     </g>
     <g id="line2d_26">
      <g>
       <use xlink:href="#m37c566d42b" x="211.52112" y="255.878125" style="fill: #333333; stroke: #333333; stroke-width: 0.6" />
      </g>
     </g>
    </g>
    <g id="xtick_14">
     <g id="line2d_27">
      <path d="M 273.635541 255.878125 L 273.635541 26.318125" clip-path="url(#p9547945bb1)" style="fill: none; stroke: #f0f0f0; stroke-width: 0.3; stroke-linecap: square" />
     </g>
     <g id="line2d_28">
      <g>
       <use xlink:href="#m37c566d42b" x="273.635541" y="255.878125" style="fill: #333333; stroke: #333333; stroke-width: 0.6" />
      </g>
     </g>
    </g>
    <g id="xtick_15">
     <g id="line2d_29">
      <path d="M 305.175914 255.878125 L 305.175914 26.318125" clip-path="url(#p9547945bb1)" style="fill: none; stroke: #f0f0f0; stroke-width: 0.3; stroke-linecap: square" />
     </g>
     <g id="line2d_30">
      <g>
       <use xlink:href="#m37c566d42b" x="305.175914" y="255.878125" style="fill: #333333; stroke: #333333; stroke-width: 0.6" />
      </g>
     </g>
    </g>
    <g id="xtick_16">
     <g id="line2d_31">
      <path d="M 327.554166 255.878125 L 327.554166 26.318125" clip-path="url(#p9547945bb1)" style="fill: none; stroke: #f0f0f0; stroke-width: 0.3; stroke-linecap: square" />
     </g>
     <g id="line2d_32">
      <g>
       <use xlink:href="#m37c566d42b" x="327.554166" y="255.878125" style="fill: #333333; stroke: #333333; stroke-width: 0.6" />
      </g>
     </g>
    </g>
    <g id="xtick_17">
     <g id="line2d_33">
      <path d="M 344.912085 255.878125 L 344.912085 26.318125" clip-path="url(#p9547945bb1)" style="fill: none; stroke: #f0f0f0; stroke-width: 0.3; stroke-linecap: square" />
     </g>
     <g id="line2d_34">
      <g>
       <use xlink:href="#m37c566d42b" x="344.912085" y="255.878125" style="fill: #333333; stroke: #333333; stroke-width: 0.6" />
      </g>
     </g>
    </g>
    <g id="xtick_18">
     <g id="line2d_35">
      <path d="M 359.094538 255.878125 L 359.094538 26.318125" clip-path="url(#p9547945bb1)" style="fill: none; stroke: #f0f0f0; stroke-width: 0.3; stroke-linecap: square" />
     </g>
     <g id="line2d_36">
      <g>
       <use xlink:href="#m37c566d42b" x="359.094538" y="255.878125" style="fill: #333333; stroke: #333333; stroke-width: 0.6" />
      </g>
     </g>
    </g>
    <g id="xtick_19">
     <g id="line2d_37">
      <path d="M 371.085632 255.878125 L 371.085632 26.318125" clip-path="url(#p9547945bb1)" style="fill: none; stroke: #f0f0f0; stroke-width: 0.3; stroke-linecap: square" />
     </g>
     <g id="line2d_38">
      <g>
       <use xlink:href="#m37c566d42b" x="371.085632" y="255.878125" style="fill: #333333; stroke: #333333; stroke-width: 0.6" />
      </g>
     </g>
    </g>
    <g id="xtick_20">
     <g id="line2d_39">
      <path d="M 381.472789 255.878125 L 381.472789 26.318125" clip-path="url(#p9547945bb1)" style="fill: none; stroke: #f0f0f0; stroke-width: 0.3; stroke-linecap: square" />
     </g>
     <g id="line2d_40">
      <g>
       <use xlink:href="#m37c566d42b" x="381.472789" y="255.878125" style="fill: #333333; stroke: #333333; stroke-width: 0.6" />
      </g>
     </g>
    </g>
    <g id="xtick_21">
     <g id="line2d_41">
      <path d="M 390.634912 255.878125 L 390.634912 26.318125" clip-path="url(#p9547945bb1)" style="fill: none; stroke: #f0f0f0; stroke-width: 0.3; stroke-linecap: square" />
     </g>
     <g id="line2d_42">
      <g>
       <use xlink:href="#m37c566d42b" x="390.634912" y="255.878125" style="fill: #333333; stroke: #333333; stroke-width: 0.6" />
      </g>
     </g>
    </g>
    <g id="xtick_22">
     <g id="line2d_43">
      <path d="M 452.749333 255.878125 L 452.749333 26.318125" clip-path="url(#p9547945bb1)" style="fill: none; stroke: #f0f0f0; stroke-width: 0.3; stroke-linecap: square" />
     </g>
     <g id="line2d_44">
      <g>
       <use xlink:href="#m37c566d42b" x="452.749333" y="255.878125" style="fill: #333333; stroke: #333333; stroke-width: 0.6" />
      </g>
     </g>
    </g>
    <g id="xtick_23">
     <g id="line2d_45">
      <path d="M 484.289706 255.878125 L 484.289706 26.318125" clip-path="url(#p9547945bb1)" style="fill: none; stroke: #f0f0f0; stroke-width: 0.3; stroke-linecap: square" />
     </g>
     <g id="line2d_46">
      <g>
       <use xlink:href="#m37c566d42b" x="484.289706" y="255.878125" style="fill: #333333; stroke: #333333; stroke-width: 0.6" />
      </g>
     </g>
    </g>
    <g id="xtick_24">
     <g id="line2d_47">
      <path d="M 506.667957 255.878125 L 506.667957 26.318125" clip-path="url(#p9547945bb1)" style="fill: none; stroke: #f0f0f0; stroke-width: 0.3; stroke-linecap: square" />
     </g>
     <g id="line2d_48">
      <g>
       <use xlink:href="#m37c566d42b" x="506.667957" y="255.878125" style="fill: #333333; stroke: #333333; stroke-width: 0.6" />
      </g>
     </g>
    </g>
    <g id="xtick_25">
     <g id="line2d_49">
      <path d="M 524.025877 255.878125 L 524.025877 26.318125" clip-path="url(#p9547945bb1)" style="fill: none; stroke: #f0f0f0; stroke-width: 0.3; stroke-linecap: square" />
     </g>
     <g id="line2d_50">
      <g>
       <use xlink:href="#m37c566d42b" x="524.025877" y="255.878125" style="fill: #333333; stroke: #333333; stroke-width: 0.6" />
      </g>
     </g>
    </g>
    <g id="xtick_26">
     <g id="line2d_51">
      <path d="M 538.20833 255.878125 L 538.20833 26.318125" clip-path="url(#p9547945bb1)" style="fill: none; stroke: #f0f0f0; stroke-width: 0.3; stroke-linecap: square" />
     </g>
     <g id="line2d_52">
      <g>
       <use xlink:href="#m37c566d42b" x="538.20833" y="255.878125" style="fill: #333333; stroke: #333333; stroke-width: 0.6" />
      </g>
     </g>
    </g>
    <g id="xtick_27">
     <g id="line2d_53">
      <path d="M 550.199424 255.878125 L 550.199424 26.318125" clip-path="url(#p9547945bb1)" style="fill: none; stroke: #f0f0f0; stroke-width: 0.3; stroke-linecap: square" />
     </g>
     <g id="line2d_54">
      <g>
       <use xlink:href="#m37c566d42b" x="550.199424" y="255.878125" style="fill: #333333; stroke: #333333; stroke-width: 0.6" />
      </g>
     </g>
    </g>
    <g id="xtick_28">
     <g id="line2d_55">
      <path d="M 560.586581 255.878125 L 560.586581 26.318125" clip-path="url(#p9547945bb1)" style="fill: none; stroke: #f0f0f0; stroke-width: 0.3; stroke-linecap: square" />
     </g>
     <g id="line2d_56">
      <g>
       <use xlink:href="#m37c566d42b" x="560.586581" y="255.878125" style="fill: #333333; stroke: #333333; stroke-width: 0.6" />
      </g>
     </g>
    </g>
    <g id="xtick_29">
     <g id="line2d_57">
      <path d="M 569.748704 255.878125 L 569.748704 26.318125" clip-path="url(#p9547945bb1)" style="fill: none; stroke: #f0f0f0; stroke-width: 0.3; stroke-linecap: square" />
     </g>
     <g id="line2d_58">
      <g>
       <use xlink:href="#m37c566d42b" x="569.748704" y="255.878125" style="fill: #333333; stroke: #333333; stroke-width: 0.6" />
      </g>
     </g>
    </g>
    <g id="xtick_30">
     <g id="line2d_59">
      <path d="M 631.863125 255.878125 L 631.863125 26.318125" clip-path="url(#p9547945bb1)" style="fill: none; stroke: #f0f0f0; stroke-width: 0.3; stroke-linecap: square" />
     </g>
     <g id="line2d_60">
      <g>
       <use xlink:href="#m37c566d42b" x="631.863125" y="255.878125" style="fill: #333333; stroke: #333333; stroke-width: 0.6" />
      </g>
     </g>
    </g>
    <g id="text_6">
     
     <g style="fill: #333333" transform="translate(298.528438 284.154687) scale(0.1 -0.1)">
      <defs>
       <path id="DejaVuSans-46" d="M 628 4666  L 3309 4666  L 3309 4134  L 1259 4134  L 1259 2759  L 3109 2759  L 3109 2228  L 1259 2228  L 1259 0  L 628 0  L 628 4666  z " transform="scale(0.015625)" />
       <path id="DejaVuSans-72" d="M 2631 2963  Q 2534 3019 2420 3045  Q 2306 3072 2169 3072  Q 1681 3072 1420 2755  Q 1159 2438 1159 1844  L 1159 0  L 581 0  L 581 3500  L 1159 3500  L 1159 2956  Q 1341 3275 1631 3429  Q 1922 3584 2338 3584  Q 2397 3584 2469 3576  Q 2541 3569 2628 3553  L 2631 2963  z " transform="scale(0.015625)" />
       <path id="DejaVuSans-65" d="M 3597 1894  L 3597 1613  L 953 1613  Q 991 1019 1311 708  Q 1631 397 2203 397  Q 2534 397 2845 478  Q 3156 559 3463 722  L 3463 178  Q 3153 47 2828 -22  Q 2503 -91 2169 -91  Q 1331 -91 842 396  Q 353 884 353 1716  Q 353 2575 817 3079  Q 1281 3584 2069 3584  Q 2775 3584 3186 3129  Q 3597 2675 3597 1894  z M 3022 2063  Q 3016 2534 2758 2815  Q 2500 3097 2075 3097  Q 1594 3097 1305 2825  Q 1016 2553 972 2059  L 3022 2063  z " transform="scale(0.015625)" />
       <path id="DejaVuSans-71" d="M 947 1747  Q 947 1113 1208 752  Q 1469 391 1925 391  Q 2381 391 2643 752  Q 2906 1113 2906 1747  Q 2906 2381 2643 2742  Q 2381 3103 1925 3103  Q 1469 3103 1208 2742  Q 947 2381 947 1747  z M 2906 525  Q 2725 213 2448 61  Q 2172 -91 1784 -91  Q 1150 -91 751 415  Q 353 922 353 1747  Q 353 2572 751 3078  Q 1150 3584 1784 3584  Q 2172 3584 2448 3432  Q 2725 3281 2906 2969  L 2906 3500  L 3481 3500  L 3481 -1331  L 2906 -1331  L 2906 525  z " transform="scale(0.015625)" />
       <path id="DejaVuSans-75" d="M 544 1381  L 544 3500  L 1119 3500  L 1119 1403  Q 1119 906 1312 657  Q 1506 409 1894 409  Q 2359 409 2629 706  Q 2900 1003 2900 1516  L 2900 3500  L 3475 3500  L 3475 0  L 2900 0  L 2900 538  Q 2691 219 2414 64  Q 2138 -91 1772 -91  Q 1169 -91 856 284  Q 544 659 544 1381  z M 1991 3584  L 1991 3584  z " transform="scale(0.015625)" />
       <path id="DejaVuSans-6e" d="M 3513 2113  L 3513 0  L 2938 0  L 2938 2094  Q 2938 2591 2744 2837  Q 2550 3084 2163 3084  Q 1697 3084 1428 2787  Q 1159 2491 1159 1978  L 1159 0  L 581 0  L 581 3500  L 1159 3500  L 1159 2956  Q 1366 3272 1645 3428  Q 1925 3584 2291 3584  Q 2894 3584 3203 3211  Q 3513 2838 3513 2113  z " transform="scale(0.015625)" />
       <path id="DejaVuSans-63" d="M 3122 3366  L 3122 2828  Q 2878 2963 2633 3030  Q 2388 3097 2138 3097  Q 1578 3097 1268 2742  Q 959 2388 959 1747  Q 959 1106 1268 751  Q 1578 397 2138 397  Q 2388 397 2633 464  Q 2878 531 3122 666  L 3122 134  Q 2881 22 2623 -34  Q 2366 -91 2075 -91  Q 1284 -91 818 406  Q 353 903 353 1747  Q 353 2603 823 3093  Q 1294 3584 2113 3584  Q 2378 3584 2631 3529  Q 2884 3475 3122 3366  z " transform="scale(0.015625)" />
       <path id="DejaVuSans-79" d="M 2059 -325  Q 1816 -950 1584 -1140  Q 1353 -1331 966 -1331  L 506 -1331  L 506 -850  L 844 -850  Q 1081 -850 1212 -737  Q 1344 -625 1503 -206  L 1606 56  L 191 3500  L 800 3500  L 1894 763  L 2988 3500  L 3597 3500  L 2059 -325  z " transform="scale(0.015625)" />
       <path id="DejaVuSans-20" transform="scale(0.015625)" />
       <path id="DejaVuSans-5b" d="M 550 4863  L 1875 4863  L 1875 4416  L 1125 4416  L 1125 -397  L 1875 -397  L 1875 -844  L 550 -844  L 550 4863  z " transform="scale(0.015625)" />
       <path id="DejaVuSans-48" d="M 628 4666  L 1259 4666  L 1259 2753  L 3553 2753  L 3553 4666  L 4184 4666  L 4184 0  L 3553 0  L 3553 2222  L 1259 2222  L 1259 0  L 628 0  L 628 4666  z " transform="scale(0.015625)" />
       <path id="DejaVuSans-7a" d="M 353 3500  L 3084 3500  L 3084 2975  L 922 459  L 3084 459  L 3084 0  L 275 0  L 275 525  L 2438 3041  L 353 3041  L 353 3500  z " transform="scale(0.015625)" />
       <path id="DejaVuSans-5d" d="M 1947 4863  L 1947 -844  L 622 -844  L 622 -397  L 1369 -397  L 1369 4416  L 622 4416  L 622 4863  L 1947 4863  z " transform="scale(0.015625)" />
      </defs>
      <use xlink:href="#DejaVuSans-46" />
      <use xlink:href="#DejaVuSans-72" transform="translate(50.269531 0)" />
      <use xlink:href="#DejaVuSans-65" transform="translate(89.132812 0)" />
      <use xlink:href="#DejaVuSans-71" transform="translate(150.65625 0)" />
      <use xlink:href="#DejaVuSans-75" transform="translate(214.132812 0)" />
      <use xlink:href="#DejaVuSans-65" transform="translate(277.511719 0)" />
      <use xlink:href="#DejaVuSans-6e" transform="translate(339.035156 0)" />
      <use xlink:href="#DejaVuSans-63" transform="translate(402.414062 0)" />
      <use xlink:href="#DejaVuSans-79" transform="translate(457.394531 0)" />
      <use xlink:href="#DejaVuSans-20" transform="translate(516.574219 0)" />
      <use xlink:href="#DejaVuSans-5b" transform="translate(548.361328 0)" />
      <use xlink:href="#DejaVuSans-48" transform="translate(587.375 0)" />
      <use xlink:href="#DejaVuSans-7a" transform="translate(662.570312 0)" />
      <use xlink:href="#DejaVuSans-5d" transform="translate(715.060547 0)" />
     </g>
    </g>
   </g>
   <g id="matplotlib.axis_2">
    <g id="ytick_1">
     <g id="line2d_75">
      <path d="M 40.603125 255.878125  L 631.863125 255.878125  " clip-path="url(#p9547945bb1)" style="fill: none; stroke: #e0e0e0; stroke-width: 0.5; stroke-linecap: square" />
     </g>
     <g id="line2d_76">
      <defs>
       <path id="m6c67aeebe1" d="M 0 0  L -3.5 0  " style="stroke: #333333; stroke-width: 0.8" />
      </defs>
      <g>
       <use xlink:href="#m6c67aeebe1" x="40.603125" y="255.878125" style="fill: #333333; stroke: #333333; stroke-width: 0.8" />
      </g>
     </g>
     <g id="text_7">
      
      <g style="fill: #333333" transform="translate(27.240625 259.677344) scale(0.1 -0.1)">
       <defs>
        <path id="DejaVuSans-32" d="M 1228 531  L 3431 531  L 3431 0  L 469 0  L 469 531  Q 828 903 1448 1529  Q 2069 2156 2228 2338  Q 2531 2678 2651 2914  Q 2772 3150 2772 3378  Q 2772 3750 2511 3984  Q 2250 4219 1831 4219  Q 1534 4219 1204 4116  Q 875 4013 500 3803  L 500 4441  Q 881 4594 1212 4672  Q 1544 4750 1819 4750  Q 2544 4750 2975 4387  Q 3406 4025 3406 3419  Q 3406 3131 3298 2873  Q 3191 2616 2906 2266  Q 2828 2175 2409 1742  Q 1991 1309 1228 531  z " transform="scale(0.015625)" />
       </defs>
       <use xlink:href="#DejaVuSans-32" />
      </g>
     </g>
    </g>
    <g id="ytick_2">
     <g id="line2d_77">
      <path d="M 40.603125 235.009034  L 631.863125 235.009034  " clip-path="url(#p9547945bb1)" style="fill: none; stroke: #e0e0e0; stroke-width: 0.5; stroke-linecap: square" />
     </g>
     <g id="line2d_78">
      <g>
       <use xlink:href="#m6c67aeebe1" x="40.603125" y="235.009034" style="fill: #333333; stroke: #333333; stroke-width: 0.8" />
      </g>
     </g>
     <g id="text_8">
      
      <g style="fill: #333333" transform="translate(27.240625 238.808253) scale(0.1 -0.1)">
       <defs>
        <path id="DejaVuSans-34" d="M 2419 4116  L 825 1625  L 2419 1625  L 2419 4116  z M 2253 4666  L 3047 4666  L 3047 1625  L 3713 1625  L 3713 1100  L 3047 1100  L 3047 0  L 2419 0  L 2419 1100  L 313 1100  L 313 1709  L 2253 4666  z " transform="scale(0.015625)" />
       </defs>
       <use xlink:href="#DejaVuSans-34" />
      </g>
     </g>
    </g>
    <g id="ytick_3">
     <g id="line2d_79">
      <path d="M 40.603125 214.139943  L 631.863125 214.139943  " clip-path="url(#p9547945bb1)" style="fill: none; stroke: #e0e0e0; stroke-width: 0.5; stroke-linecap: square" />
     </g>
     <g id="line2d_80">
      <g>
       <use xlink:href="#m6c67aeebe1" x="40.603125" y="214.139943" style="fill: #333333; stroke: #333333; stroke-width: 0.8" />
      </g>
     </g>
     <g id="text_9">
      
      <g style="fill: #333333" transform="translate(27.240625 217.939162) scale(0.1 -0.1)">
       <defs>
        <path id="DejaVuSans-36" d="M 2113 2584  Q 1688 2584 1439 2293  Q 1191 2003 1191 1497  Q 1191 994 1439 701  Q 1688 409 2113 409  Q 2538 409 2786 701  Q 3034 994 3034 1497  Q 3034 2003 2786 2293  Q 2538 2584 2113 2584  z M 3366 4563  L 3366 3988  Q 3128 4100 2886 4159  Q 2644 4219 2406 4219  Q 1781 4219 1451 3797  Q 1122 3375 1075 2522  Q 1259 2794 1537 2939  Q 1816 3084 2150 3084  Q 2853 3084 3261 2657  Q 3669 2231 3669 1497  Q 3669 778 3244 343  Q 2819 -91 2113 -91  Q 1303 -91 875 529  Q 447 1150 447 2328  Q 447 3434 972 4092  Q 1497 4750 2381 4750  Q 2619 4750 2861 4703  Q 3103 4656 3366 4563  z " transform="scale(0.015625)" />
       </defs>
       <use xlink:href="#DejaVuSans-36" />
      </g>
     </g>
    </g>
    <g id="ytick_4">
     <g id="line2d_81">
      <path d="M 40.603125 193.270852  L 631.863125 193.270852  " clip-path="url(#p9547945bb1)" style="fill: none; stroke: #e0e0e0; stroke-width: 0.5; stroke-linecap: square" />
     </g>
     <g id="line2d_82">
      <g>
       <use xlink:href="#m6c67aeebe1" x="40.603125" y="193.270852" style="fill: #333333; stroke: #333333; stroke-width: 0.8" />
      </g>
     </g>
     <g id="text_10">
      
      <g style="fill: #333333" transform="translate(27.240625 197.070071) scale(0.1 -0.1)">
       <defs>
        <path id="DejaVuSans-38" d="M 2034 2216  Q 1584 2216 1326 1975  Q 1069 1734 1069 1313  Q 1069 891 1326 650  Q 1584 409 2034 409  Q 2484 409 2743 651  Q 3003 894 3003 1313  Q 3003 1734 2745 1975  Q 2488 2216 2034 2216  z M 1403 2484  Q 997 2584 770 2862  Q 544 3141 544 3541  Q 544 4100 942 4425  Q 1341 4750 2034 4750  Q 2731 4750 3128 4425  Q 3525 4100 3525 3541  Q 3525 3141 3298 2862  Q 3072 2584 2669 2484  Q 3125 2378 3379 2068  Q 3634 1759 3634 1313  Q 3634 634 3220 271  Q 2806 -91 2034 -91  Q 1263 -91 848 271  Q 434 634 434 1313  Q 434 1759 690 2068  Q 947 2378 1403 2484  z M 1172 3481  Q 1172 3119 1398 2916  Q 1625 2713 2034 2713  Q 2441 2713 2670 2916  Q 2900 3119 2900 3481  Q 2900 3844 2670 4047  Q 2441 4250 2034 4250  Q 1625 4250 1398 4047  Q 1172 3844 1172 3481  z " transform="scale(0.015625)" />
       </defs>
       <use xlink:href="#DejaVuSans-38" />
      </g>
     </g>
    </g>
    <g id="ytick_5">
     <g id="line2d_83">
      <path d="M 40.603125 172.401761  L 631.863125 172.401761  " clip-path="url(#p9547945bb1)" style="fill: none; stroke: #e0e0e0; stroke-width: 0.5; stroke-linecap: square" />
     </g>
     <g id="line2d_84">
      <g>
       <use xlink:href="#m6c67aeebe1" x="40.603125" y="172.401761" style="fill: #333333; stroke: #333333; stroke-width: 0.8" />
      </g>
     </g>
     <g id="text_11">
      
      <g style="fill: #333333" transform="translate(20.878125 176.20098) scale(0.1 -0.1)">
       <use xlink:href="#DejaVuSans-31" />
       <use xlink:href="#DejaVuSans-30" transform="translate(63.623047 0)" />
      </g>
     </g>
    </g>
    <g id="ytick_6">
     <g id="line2d_85">
      <path d="M 40.603125 151.53267  L 631.863125 151.53267  " clip-path="url(#p9547945bb1)" style="fill: none; stroke: #e0e0e0; stroke-width: 0.5; stroke-linecap: square" />
     </g>
     <g id="line2d_86">
      <g>
       <use xlink:href="#m6c67aeebe1" x="40.603125" y="151.53267" style="fill: #333333; stroke: #333333; stroke-width: 0.8" />
      </g>
     </g>
     <g id="text_12">
      
      <g style="fill: #333333" transform="translate(20.878125 155.331889) scale(0.1 -0.1)">
       <use xlink:href="#DejaVuSans-31" />
       <use xlink:href="#DejaVuSans-32" transform="translate(63.623047 0)" />
      </g>
     </g>
    </g>
    <g id="ytick_7">
     <g id="line2d_87">
      <path d="M 40.603125 130.66358  L 631.863125 130.66358  " clip-path="url(#p9547945bb1)" style="fill: none; stroke: #e0e0e0; stroke-width: 0.5; stroke-linecap: square" />
     </g>
     <g id="line2d_88">
      <g>
       <use xlink:href="#m6c67aeebe1" x="40.603125" y="130.66358" style="fill: #333333; stroke: #333333; stroke-width: 0.8" />
      </g>
     </g>
     <g id="text_13">
      
      <g style="fill: #333333" transform="translate(20.878125 134.462798) scale(0.1 -0.1)">
       <use xlink:href="#DejaVuSans-31" />
       <use xlink:href="#DejaVuSans-34" transform="translate(63.623047 0)" />
      </g>
     </g>
    </g>
    <g id="ytick_8">
     <g id="line2d_89">
      <path d="M 40.603125 109.794489  L 631.863125 109.794489  " clip-path="url(#p9547945bb1)" style="fill: none; stroke: #e0e0e0; stroke-width: 0.5; stroke-linecap: square" />
     </g>
     <g id="line2d_90">
      <g>
       <use xlink:href="#m6c67aeebe1" x="40.603125" y="109.794489" style="fill: #333333; stroke: #333333; stroke-width: 0.8" />
      </g>
     </g>
     <g id="text_14">
      
      <g style="fill: #333333" transform="translate(20.878125 113.593707) scale(0.1 -0.1)">
       <use xlink:href="#DejaVuSans-31" />
       <use xlink:href="#DejaVuSans-36" transform="translate(63.623047 0)" />
      </g>
     </g>
    </g>
    <g id="ytick_9">
     <g id="line2d_91">
      <path d="M 40.603125 88.925398  L 631.863125 88.925398  " clip-path="url(#p9547945bb1)" style="fill: none; stroke: #e0e0e0; stroke-width: 0.5; stroke-linecap: square" />
     </g>
     <g id="line2d_92">
      <g>
       <use xlink:href="#m6c67aeebe1" x="40.603125" y="88.925398" style="fill: #333333; stroke: #333333; stroke-width: 0.8" />
      </g>
     </g>
     <g id="text_15">
      
      <g style="fill: #333333" transform="translate(20.878125 92.724616) scale(0.1 -0.1)">
       <use xlink:href="#DejaVuSans-31" />
       <use xlink:href="#DejaVuSans-38" transform="translate(63.623047 0)" />
      </g>
     </g>
    </g>
    <g id="ytick_10">
     <g id="line2d_93">
      <path d="M 40.603125 68.056307  L 631.863125 68.056307  " clip-path="url(#p9547945bb1)" style="fill: none; stroke: #e0e0e0; stroke-width: 0.5; stroke-linecap: square" />
     </g>
     <g id="line2d_94">
      <g>
       <use xlink:href="#m6c67aeebe1" x="40.603125" y="68.056307" style="fill: #333333; stroke: #333333; stroke-width: 0.8" />
      </g>
     </g>
     <g id="text_16">
      
      <g style="fill: #333333" transform="translate(20.878125 71.855526) scale(0.1 -0.1)">
       <use xlink:href="#DejaVuSans-32" />
       <use xlink:href="#DejaVuSans-30" transform="translate(63.623047 0)" />
      </g>
     </g>
    </g>
    <g id="ytick_11">
     <g id="line2d_95">
      <path d="M 40.603125 47.187216  L 631.863125 47.187216  " clip-path="url(#p9547945bb1)" style="fill: none; stroke: #e0e0e0; stroke-width: 0.5; stroke-linecap: square" />
     </g>
     <g id="line2d_96">
      <g>
       <use xlink:href="#m6c67aeebe1" x="40.603125" y="47.187216" style="fill: #333333; stroke: #333333; stroke-width: 0.8" />
      </g>
     </g>
     <g id="text_17">
      
      <g style="fill: #333333" transform="translate(20.878125 50.986435) scale(0.1 -0.1)">
       <use xlink:href="#DejaVuSans-32" />
       <use xlink:href="#DejaVuSans-32" transform="translate(63.623047 0)" />
      </g>
     </g>
    </g>
    <g id="ytick_12">
     <g id="line2d_97">
      <path d="M 40.603125 26.318125  L 631.863125 26.318125  " clip-path="url(#p9547945bb1)" style="fill: none; stroke: #e0e0e0; stroke-width: 0.5; stroke-linecap: square" />
     </g>
     <g id="line2d_98">
      <g>
       <use xlink:href="#m6c67aeebe1" x="40.603125" y="26.318125" style="fill: #333333; stroke: #333333; stroke-width: 0.8" />
      </g>
     </g>
     <g id="text_18">
      
      <g style="fill: #333333" transform="translate(20.878125 30.117344) scale(0.1 -0.1)">
       <use xlink:href="#DejaVuSans-32" />
       <use xlink:href="#DejaVuSans-34" transform="translate(63.623047 0)" />
      </g>
     </g>
    </g>
    <g id="text_19">
     
     <g style="fill: #333333" transform="translate(14.798438 178.23875) rotate(-90) scale(0.1 -0.1)">
      <defs>
       <path id="DejaVuSans-49" d="M 628 4666  L 1259 4666  L 1259 0  L 628 0  L 628 4666  z " transform="scale(0.015625)" />
       <path id="DejaVuSans-6d" d="M 3328 2828  Q 3544 3216 3844 3400  Q 4144 3584 4550 3584  Q 5097 3584 5394 3201  Q 5691 2819 5691 2113  L 5691 0  L 5113 0  L 5113 2094  Q 5113 2597 4934 2840  Q 4756 3084 4391 3084  Q 3944 3084 3684 2787  Q 3425 2491 3425 1978  L 3425 0  L 2847 0  L 2847 2094  Q 2847 2600 2669 2842  Q 2491 3084 2119 3084  Q 1678 3084 1418 2786  Q 1159 2488 1159 1978  L 1159 0  L 581 0  L 581 3500  L 1159 3500  L 1159 2956  Q 1356 3278 1631 3431  Q 1906 3584 2284 3584  Q 2666 3584 2933 3390  Q 3200 3197 3328 2828  z " transform="scale(0.015625)" />
       <path id="DejaVuSans-70" d="M 1159 525  L 1159 -1331  L 581 -1331  L 581 3500  L 1159 3500  L 1159 2969  Q 1341 3281 1617 3432  Q 1894 3584 2278 3584  Q 2916 3584 3314 3078  Q 3713 2572 3713 1747  Q 3713 922 3314 415  Q 2916 -91 2278 -91  Q 1894 -91 1617 61  Q 1341 213 1159 525  z M 3116 1747  Q 3116 2381 2855 2742  Q 2594 3103 2138 3103  Q 1681 3103 1420 2742  Q 1159 2381 1159 1747  Q 1159 1113 1420 752  Q 1681 391 2138 391  Q 2594 391 2855 752  Q 3116 1113 3116 1747  z " transform="scale(0.015625)" />
       <path id="DejaVuSans-64" d="M 2906 2969  L 2906 4863  L 3481 4863  L 3481 0  L 2906 0  L 2906 525  Q 2725 213 2448 61  Q 2172 -91 1784 -91  Q 1150 -91 751 415  Q 353 922 353 1747  Q 353 2572 751 3078  Q 1150 3584 1784 3584  Q 2172 3584 2448 3432  Q 2725 3281 2906 2969  z M 947 1747  Q 947 1113 1208 752  Q 1469 391 1925 391  Q 2381 391 2643 752  Q 2906 1113 2906 1747  Q 2906 2381 2643 2742  Q 2381 3103 1925 3103  Q 1469 3103 1208 2742  Q 947 2381 947 1747  z " transform="scale(0.015625)" />
       <path id="DejaVuSans-61" d="M 2194 1759  Q 1497 1759 1228 1600  Q 959 1441 959 1056  Q 959 750 1161 570  Q 1363 391 1709 391  Q 2188 391 2477 730  Q 2766 1069 2766 1631  L 2766 1759  L 2194 1759  z M 3341 1997  L 3341 0  L 2766 0  L 2766 531  Q 2569 213 2275 61  Q 1981 -91 1556 -91  Q 1019 -91 701 211  Q 384 513 384 1019  Q 384 1609 779 1909  Q 1175 2209 1959 2209  L 2766 2209  L 2766 2266  Q 2766 2663 2505 2880  Q 2244 3097 1772 3097  Q 1472 3097 1187 3025  Q 903 2953 641 2809  L 641 3341  Q 956 3463 1253 3523  Q 1550 3584 1831 3584  Q 2591 3584 2966 3190  Q 3341 2797 3341 1997  z " transform="scale(0.015625)" />
       <path id="DejaVuSans-3a9" d="M 4647 556  L 4647 0  L 2772 0  L 2772 556  Q 3325 859 3634 1378  Q 3944 1897 3944 2528  Q 3944 3278 3531 3731  Q 3119 4184 2444 4184  Q 1769 4184 1355 3729  Q 941 3275 941 2528  Q 941 1897 1250 1378  Q 1563 859 2119 556  L 2119 0  L 244 0  L 244 556  L 1241 556  Q 747 991 519 1456  Q 294 1922 294 2497  Q 294 3491 894 4106  Q 1491 4722 2444 4722  Q 3391 4722 3994 4106  Q 4594 3494 4594 2528  Q 4594 1922 4372 1459  Q 4150 997 3647 556  L 4647 556  z " transform="scale(0.015625)" />
      </defs>
      <use xlink:href="#DejaVuSans-49" />
      <use xlink:href="#DejaVuSans-6d" transform="translate(29.492188 0)" />
      <use xlink:href="#DejaVuSans-70" transform="translate(126.904297 0)" />
      <use xlink:href="#DejaVuSans-65" transform="translate(190.380859 0)" />
      <use xlink:href="#DejaVuSans-64" transform="translate(251.904297 0)" />
      <use xlink:href="#DejaVuSans-61" transform="translate(315.380859 0)" />
      <use xlink:href="#DejaVuSans-6e" transform="translate(376.660156 0)" />
      <use xlink:href="#DejaVuSans-63" transform="translate(440.039062 0)" />
      <use xlink:href="#DejaVuSans-65" transform="translate(495.019531 0)" />
      <use xlink:href="#DejaVuSans-20" transform="translate(556.542969 0)" />
      <use xlink:href="#DejaVuSans-5b" transform="translate(588.330078 0)" />
      <use xlink:href="#DejaVuSans-3a9" transform="translate(627.34375 0)" />
      <use xlink:href="#DejaVuSans-5d" transform="translate(703.759766 0)" />
     </g>
    </g>
   </g>
   <g id="patch_3">
    <path d="M 40.603125 255.878125  L 40.603125 26.318125  " style="fill: none; stroke: #cccccc; stroke-width: 0.8; stroke-linejoin: miter; stroke-linecap: square" />
   </g>
   <g id="patch_4">
    <path d="M 631.863125 255.878125  L 631.863125 26.318125  " style="fill: none; stroke: #cccccc; stroke-width: 0.8; stroke-linejoin: miter; stroke-linecap: square" />
   </g>
   <g id="patch_5">
    <path d="M 40.603125 255.878125  L 631.863125 255.878125  " style="fill: none; stroke: #cccccc; stroke-width: 0.8; stroke-linejoin: miter; stroke-linecap: square" />
   </g>
   <g id="patch_6">
    <path d="M 40.603125 26.318125  L 631.863125 26.318125  " style="fill: none; stroke: #cccccc; stroke-width: 0.8; stroke-linejoin: miter; stroke-linecap: square" />
   </g>
   <g id="line2d_99">
    <path d="M 41.069542 241.708012 L 43.401784 241.645405 L 45.733959 240.674992 L 48.066187 240.62282 L 49.232323 240.069789 L 50.398383 239.694145 L 52.730605 239.5898 L 53.896716 238.942858 L 55.062852 238.65069 L 57.395058 238.483738 L 58.561177 237.75332 L 59.72723 237.534194 L 60.893384 237.50289 L 62.059493 237.2942 L 63.225597 236.595085 L 66.723869 236.177703 L 69.056088 234.800343 L 70.222194 234.28905 L 72.554429 234.205574 L 73.720505 233.819496 L 76.05275 232.431701 L 77.218844 232.024754 L 79.55104 231.951712 L 80.717143 231.429985 L 85.381555 228.821349 L 86.547677 228.591789 L 88.879873 228.445705 L 90.045974 227.736156 L 91.212103 226.880523 L 92.378203 225.868372 L 93.544293 225.33621 L 94.710429 225.023174 L 95.876503 224.511881 L 100.540954 221.851072 L 107.537589 217.792034 L 116.866427 212.418243 L 120.364745 210.508721 L 121.530848 209.913952 L 122.69695 209.131361 L 126.19526 206.18882 L 127.361371 205.406229 L 128.527469 204.79059 L 132.025799 202.390645 L 134.358008 200.188956 L 137.856318 197.486409 L 141.354628 195.597756 L 143.686844 194.773427 L 144.852959 194.533432 L 146.019046 194.48126 L 148.351274 194.856903 L 149.517366 195.16994 L 150.683469 195.60819 L 151.849587 196.244698 L 153.015682 197.173372 L 155.347901 199.489841 L 157.680107 202.161085 L 162.344528 208.150514 L 167.008945 213.983425 L 169.34116 216.665103 L 174.005592 222.904961 L 176.337797 225.346645 L 178.670002 228.038758 L 181.002214 230.031756 L 183.334423 231.638676 L 185.666641 232.869952 L 186.832742 233.329072 L 189.164957 233.892538 L 191.497165 234.05949 L 193.829378 233.819496 L 196.161583 233.297769 L 198.493799 232.47344 L 200.826013 231.263032 L 203.158225 229.864803 L 210.154857 224.41797 L 212.48706 222.00759 L 221.815909 210.915669 L 228.812542 201.660227 L 233.476964 195.9734 L 235.809171 193.375198 L 238.141385 191.100467 L 240.473592 189.06573 L 241.639696 188.189229 L 242.805806 187.47968 L 245.138014 186.519701 L 246.304123 186.237969 L 249.802438 185.893629 L 252.134648 185.977105 L 255.632963 186.624047 L 257.965174 187.156209 L 259.131278 187.552721 L 261.463488 188.74226 L 263.7957 190.286572 L 266.127911 191.330027 L 268.460123 192.310874 L 273.124544 194.877772 L 276.622863 196.849901 L 278.955074 197.820314 L 282.453387 199.155936 L 284.785598 200.168087 L 287.11781 201.013285 L 295.280548 203.590618 L 299.944971 204.717549 L 304.609391 205.687961 L 318.602658 207.733132 L 325.59929 208.327901 L 333.762028 208.745283 L 341.924764 208.94354 L 354.751924 209.068754 L 366.412979 208.964409 L 403.728349 208.734849 L 420.053828 208.933105 L 445.708145 210.64437 L 462.033622 212.053034 L 479.525203 213.680823 L 492.352364 214.619932 L 501.681207 215.099921 L 518.006683 215.57991 L 528.501631 215.778167 L 536.66437 215.684256 L 548.325424 215.172963 L 562.318688 214.192116 L 573.979742 213.159096 L 597.301851 210.75915 L 615.959538 208.526158 L 624.122273 207.54531 L 631.118909 206.574898 L 632.285014 206.209689 L 633.451119 205.291449 L 634.617223 204.10191 L 640.44775 199.228978 L 645.112173 195.649929 L 648.610488 193.19781 L 652.108805 190.964818 L 655.60712 188.95095 L 659.105439 187.145774 L 663.769859 185.04843 L 667.268178 183.67107 L 671.932597 182.08502 L 676.59702 180.738963 L 682.427545 179.340734 L 689.424177 177.994678 L 697.586916 176.78427 L 705.749654 175.855596 L 713.912394 175.146047 L 722.075129 174.582581 L 732.570079 174.02955 L 747.72945 173.45565 L 757.058293 173.194787 L 757.058293 173.194787" clip-path="url(#p9547945bb1)" style="fill: none; stroke: #1a3ea0; stroke-width: 2; stroke-linecap: square" />
   </g>
   <g id="patch_7">
    <path d="M 326.827235 186.476657 Q 260.27522 209.876729 194.720296 232.926219" style="fill: none; stroke: #999999; stroke-width: 0.8; stroke-linecap: round" />
    <path d="M 198.506623 233.116695 L 194.720296 232.926219 L 197.176739 230.540749" style="fill: none; stroke: #999999; stroke-width: 0.8; stroke-linecap: round" />
   </g>
   <g id="text_20">
    <g id="patch_8">
     <path d="M 299.334412 185.442544 L 391.415331 185.442544 Q 393.959992 185.442544 393.959992 183.342544 L 393.959992 176.567857 Q 393.959992 174.467857 391.415331 174.467857 L 299.334412 174.467857 Q 296.789752 174.467857 296.789752 176.567857 L 296.789752 183.342544 Q 296.789752 185.442544 299.334412 185.442544 z" style="fill: #f8f8f8; stroke: #dddddd; stroke-width: 0.5; stroke-linejoin: miter" />
    </g>
    
    <g style="fill: #333333" transform="translate(299.334412 181.886763) scale(0.07 -0.07)">
     <defs>
      <path id="DejaVuSans-39" d="M 843.257904 97 L 843.257904 672 Q 1131.652738 559 1426.106288 500 Q 1721.771581 441 2006.531186 441 Q 2763.870563 441 3162.534011 861 Q 3562.409202 1281 3619.361123 2138 Q 3400.03564 1869 3061.959342 1725 Q 2725.094787 1581 2316.737395 1581 Q 1468.517293 1581 974.126148 2004 Q 479.735003 2428 479.735003 3163 Q 479.735003 3881 994.725779 4315 Q 1509.716555 4750 2365.207115 4750 Q 3346.718948 4750 3862.921467 4129 Q 4380.335729 3509 4380.335729 2328 Q 4380.335729 1225 3745.382396 567 Q 3111.640805 -91 2040.45999 -91 Q 1752.065156 -91 1456.399863 -44 Q 1161.946313 3 843.257904 97 z M 2365.207115 2075 Q 2880.197892 2075 3180.710156 2365 Q 3482.434164 2656 3482.434164 3163 Q 3482.434164 3666 3180.710156 3958 Q 2880.197892 4250 2365.207115 4250 Q 1850.216339 4250 1549.704074 3958 Q 1249.19181 3666 1249.19181 3163 Q 1249.19181 2656 1549.704074 2365 Q 1850.216339 2075 2365.207115 2075 z" transform="scale(0.015625)" />
      <path id="DejaVuSans-2e" d="M 820.234786 794 L 1619.985168 794 L 1619.985168 0 L 820.234786 0 L 820.234786 794 z" transform="scale(0.015625)" />
      <path id="DejaVuSans-2c" d="M 900.209825 794 L 1698.748464 794 L 1698.748464 256 L 1078.336046 -744 L 590.003616 -744 L 900.209825 256 L 900.209825 794 z" transform="scale(0.015625)" />
      <path id="DejaVuSans-40" d="M 2876.562663 1678 Q 2876.562663 1231 3145.569609 976 Q 3414.576556 722 3884.732841 722 Q 4350.042154 722 4616.625615 978 Q 4884.420819 1234 4884.420819 1678 Q 4884.420819 2116 4611.778643 2373 Q 4339.136467 2631 3876.25064 2631 Q 3418.211785 2631 3146.781352 2375 Q 2876.562663 2119 2876.562663 1678 z M 4940.160997 744 Q 4713.565055 503 4420.323248 389 Q 4127.081442 275 3736.900195 275 Q 3084.982459 275 2677.83681 664 Q 2270.691161 1053 2270.691161 1678 Q 2270.691161 2303 2679.048553 2693 Q 3088.617688 3084 3736.900195 3084 Q 4127.081442 3084 4421.534991 2967 Q 4717.200284 2850 4940.160997 2613 L 4940.160997 3022 L 5481.810119 3022 L 5481.810119 722 Q 6035.576671 791 6346.994623 1139 Q 6659.624318 1488 6659.624318 2041 Q 6659.624318 2375 6539.661761 2669 Q 6420.910946 2963 6178.562346 3213 Q 5784.74587 3622 5218.861887 3839 Q 4652.977905 4056 3986.519253 4056 Q 3521.20994 4056 3092.252917 3954 Q 2664.507637 3853 2300.984736 3653 Q 1707.230665 3334 1371.577853 2817 Q 1037.136784 2300 1037.136784 1697 Q 1037.136784 1200 1254.038782 765 Q 1472.152522 331 1885.356886 0 Q 2282.808591 -325 2805.069825 -495 Q 3327.33106 -666 3922.296874 -666 Q 4410.629304 -666 4881.997333 -530 Q 5353.365361 -394 5747.181837 -141 L 6087.681621 -488 Q 5615.101849 -791 5056.488325 -952 Q 4497.874801 -1113 3922.296874 -1113 Q 3221.909418 -1113 2600.285258 -908 Q 1979.87284 -703 1495.175639 -313 Q 1010.478438 78 756.012407 592 Q 502.75812 1106 502.75812 1697 Q 502.75812 2266 759.647636 2781 Q 1017.748896 3297 1495.175639 3688 Q 1983.508069 4084 2623.308375 4295 Q 3263.108681 4506 3979.248795 4506 Q 4781.422663 4506 5468.480946 4234 Q 6156.750972 3963 6622.060285 3463 Q 6905.608148 3156 7054.652537 2797 Q 7204.908669 2438 7204.908669 2053 Q 7204.908669 1231 6602.672397 756 Q 6000.436124 281 4940.160997 263 L 4940.160997 744 z" transform="scale(0.015625)" />
      <path id="DejaVuSans-33" d="M 3138.299151 2516 Q 3687.218732 2419 3995.001454 2112 Q 4303.99592 1806 4303.99592 1356 Q 4303.99592 666 3728.417994 287 Q 3152.840067 -91 2092.56494 -91 Q 1737.52424 -91 1360.672166 -33 Q 983.820092 25 582.733158 141 L 582.733158 750 Q 900.209825 597 1278.273642 519 Q 1657.549202 441 2070.753566 441 Q 2789.317166 441 3166.16924 675 Q 3543.021314 909 3543.021314 1356 Q 3543.021314 1769 3192.827586 2001 Q 2842.633858 2234 2218.586212 2234 L 1559.398018 2234 L 1559.398018 2753 L 2248.879787 2753 Q 2812.340283 2753 3111.640805 2939 Q 3410.941327 3125 3410.941327 3475 Q 3410.941327 3834 3101.946861 4026 Q 2794.164138 4219 2218.586212 4219 Q 1903.533031 4219 1543.645359 4162 Q 1183.757687 4106 752.377178 3988 L 752.377178 4550 Q 1188.604659 4650 1569.091962 4700 Q 1949.579265 4750 2286.44382 4750 Q 3157.687039 4750 3664.195615 4423 Q 4171.915933 4097 4171.915933 3541 Q 4171.915933 3153 3902.908986 2886 Q 3633.902039 2619 3138.299151 2516 z" transform="scale(0.015625)" />
      <path id="DejaVuSans-b0" d="M 1930.191377 4347 Q 1627.255626 4347 1418.83583 4173 Q 1210.416033 4000 1210.416033 3750 Q 1210.416033 3503 1418.83583 3333 Q 1627.255626 3163 1930.191377 3163 Q 2233.127128 3163 2441.546924 3333 Q 2649.966721 3503 2649.966721 3750 Q 2649.966721 3997 2439.123438 4172 Q 2229.491899 4347 1930.191377 4347 z M 1930.191377 4750 Q 2172.539978 4750 2395.50069 4673 Q 2619.673146 4597 2782.046708 4453 Q 2956.537701 4313 3043.783197 4134 Q 3131.028693 3956 3131.028693 3750 Q 3131.028693 3338 2780.834965 3052 Q 2430.641237 2766 1922.920919 2766 Q 1411.565372 2766 1069.853845 3047 Q 729.354061 3328 729.354061 3750 Q 729.354061 4169 1077.124303 4459 Q 1426.106288 4750 1930.191377 4750 z" transform="scale(0.015625)" />
     </defs>
     <use xlink:href="#DejaVuSans-36" />
     <use xlink:href="#DejaVuSans-39" transform="translate(68.497354 0)" />
     <use xlink:href="#DejaVuSans-2e" transform="translate(145.592136 0)" />
     <use xlink:href="#DejaVuSans-36" transform="translate(184.109943 0)" />
     <use xlink:href="#DejaVuSans-48" transform="translate(261.204725 0)" />
     <use xlink:href="#DejaVuSans-7a" transform="translate(352.322119 0)" />
     <use xlink:href="#DejaVuSans-2c" transform="translate(415.926794 0)" />
     <use xlink:href="#DejaVuSans-20" transform="translate(454.4446 0)" />
     <use xlink:href="#DejaVuSans-34" transform="translate(492.962409 0)" />
     <use xlink:href="#DejaVuSans-2e" transform="translate(570.057189 0)" />
     <use xlink:href="#DejaVuSans-30" transform="translate(608.574998 0)" />
     <use xlink:href="#DejaVuSans-39" transform="translate(685.66978 0)" />
     <use xlink:href="#DejaVuSans-3a9" transform="translate(762.764562 0)" />
     <use xlink:href="#DejaVuSans-20" transform="translate(855.361133 0)" />
     <use xlink:href="#DejaVuSans-40" transform="translate(893.878941 0)" />
     <use xlink:href="#DejaVuSans-20" transform="translate(1015.053242 0)" />
     <use xlink:href="#DejaVuSans-39" transform="translate(1053.571048 0)" />
     <use xlink:href="#DejaVuSans-2e" transform="translate(1130.66583 0)" />
     <use xlink:href="#DejaVuSans-33" transform="translate(1169.183637 0)" />
     <use xlink:href="#DejaVuSans-b0" transform="translate(1246.278419 0)" />
    </g>
   </g>
   <g id="text_21">
    
    <g style="fill: #1a3ea0; opacity: 0.7" transform="translate(46.515725 251.286925) scale(0.09 -0.09)">
     <defs>
      <path id="DejaVuSans-Bold-58" d="M 3188 2381  L 4806 0  L 3553 0  L 2463 1594  L 1381 0  L 122 0  L 1741 2381  L 184 4666  L 1441 4666  L 2463 3163  L 3481 4666  L 4744 4666  L 3188 2381  z " transform="scale(0.015625)" />
      <path id="DejaVuSans-Bold-53" d="M 3834 4519  L 3834 3531  Q 3450 3703 3084 3790  Q 2719 3878 2394 3878  Q 1963 3878 1756 3759  Q 1550 3641 1550 3391  Q 1550 3203 1689 3098  Q 1828 2994 2194 2919  L 2706 2816  Q 3484 2659 3812 2340  Q 4141 2022 4141 1434  Q 4141 663 3683 286  Q 3225 -91 2284 -91  Q 1841 -91 1394 -6  Q 947 78 500 244  L 500 1259  Q 947 1022 1364 901  Q 1781 781 2169 781  Q 2563 781 2772 912  Q 2981 1044 2981 1288  Q 2981 1506 2839 1625  Q 2697 1744 2272 1838  L 1806 1941  Q 1106 2091 782 2419  Q 459 2747 459 3303  Q 459 4000 909 4375  Q 1359 4750 2203 4750  Q 2588 4750 2994 4692  Q 3400 4634 3834 4519  z " transform="scale(0.015625)" />
      <path id="DejaVuSans-Bold-69" d="M 538 3500  L 1656 3500  L 1656 0  L 538 0  L 538 3500  z M 538 4863  L 1656 4863  L 1656 3950  L 538 3950  L 538 4863  z " transform="scale(0.015625)" />
      <path id="DejaVuSans-Bold-6d" d="M 3781 2919  Q 3994 3244 4286 3414  Q 4578 3584 4928 3584  Q 5531 3584 5847 3212  Q 6163 2841 6163 2131  L 6163 0  L 5038 0  L 5038 1825  Q 5041 1866 5042 1909  Q 5044 1953 5044 2034  Q 5044 2406 4934 2573  Q 4825 2741 4581 2741  Q 4263 2741 4089 2478  Q 3916 2216 3909 1719  L 3909 0  L 2784 0  L 2784 1825  Q 2784 2406 2684 2573  Q 2584 2741 2328 2741  Q 2006 2741 1831 2477  Q 1656 2213 1656 1722  L 1656 0  L 531 0  L 531 3500  L 1656 3500  L 1656 2988  Q 1863 3284 2130 3434  Q 2397 3584 2719 3584  Q 3081 3584 3359 3409  Q 3638 3234 3781 2919  z " transform="scale(0.015625)" />
      <path id="DejaVuSans-Bold-34" d="M 2356 3675  L 1038 1722  L 2356 1722  L 2356 3675  z M 2156 4666  L 3494 4666  L 3494 1722  L 4159 1722  L 4159 850  L 3494 850  L 3494 0  L 2356 0  L 2356 850  L 288 850  L 288 1881  L 2156 4666  z " transform="scale(0.015625)" />
     </defs>
     <use xlink:href="#DejaVuSans-Bold-58" />
     <use xlink:href="#DejaVuSans-Bold-53" transform="translate(77.099609 0)" />
     <use xlink:href="#DejaVuSans-Bold-69" transform="translate(149.121094 0)" />
     <use xlink:href="#DejaVuSans-Bold-6d" transform="translate(183.398438 0)" />
     <use xlink:href="#DejaVuSans-Bold-34" transform="translate(287.597656 0)" />
    </g>
   </g>
   <g id="text_22"><text x="345.829" y="16.318125" style="fill: #1a3ea0; font-family: 'DejaVu Sans', Arial, sans-serif; font-size: 14.4px; font-weight: 700; text-anchor: middle">Impedance</text></g><g id="legend_1">
    <g id="patch_9">
     <path d="M 582.681875 56.203125  L 626.263125 56.203125  Q 627.863125 56.203125 627.863125 54.603125  L 627.863125 31.918125  Q 627.863125 30.318125 626.263125 30.318125  L 582.681875 30.318125  Q 581.081875 30.318125 581.081875 31.918125  L 581.081875 54.603125  Q 581.081875 56.203125 582.681875 56.203125  z " style="fill: #ffffff; opacity: 0.9; stroke: #cccccc; stroke-linejoin: miter" />
    </g>
    <g id="line2d_100">
     <path d="M 584.281875 36.796875  L 592.281875 36.796875  L 600.281875 36.796875  " style="fill: none; stroke: #1a3ea0; stroke-width: 2; stroke-linecap: square" />
    </g>
    <g id="text_23">
     
     <g transform="translate(606.681875 39.596875) scale(0.08 -0.08)">
      <defs>
       <path id="DejaVuSans-53" d="M 3425 4513  L 3425 3897  Q 3066 4069 2747 4153  Q 2428 4238 2131 4238  Q 1616 4238 1336 4038  Q 1056 3838 1056 3469  Q 1056 3159 1242 3001  Q 1428 2844 1947 2747  L 2328 2669  Q 3034 2534 3370 2195  Q 3706 1856 3706 1288  Q 3706 609 3251 259  Q 2797 -91 1919 -91  Q 1588 -91 1214 -16  Q 841 59 441 206  L 441 856  Q 825 641 1194 531  Q 1563 422 1919 422  Q 2459 422 2753 634  Q 3047 847 3047 1241  Q 3047 1584 2836 1778  Q 2625 1972 2144 2069  L 1759 2144  Q 1053 2284 737 2584  Q 422 2884 422 3419  Q 422 4038 858 4394  Q 1294 4750 2059 4750  Q 2388 4750 2728 4690  Q 3069 4631 3425 4513  z " transform="scale(0.015625)" />
       <path id="DejaVuSans-73" d="M 2834 3397  L 2834 2853  Q 2591 2978 2328 3040  Q 2066 3103 1784 3103  Q 1356 3103 1142 2972  Q 928 2841 928 2578  Q 928 2378 1081 2264  Q 1234 2150 1697 2047  L 1894 2003  Q 2506 1872 2764 1633  Q 3022 1394 3022 966  Q 3022 478 2636 193  Q 2250 -91 1575 -91  Q 1294 -91 989 -36  Q 684 19 347 128  L 347 722  Q 666 556 975 473  Q 1284 391 1588 391  Q 1994 391 2212 530  Q 2431 669 2431 922  Q 2431 1156 2273 1281  Q 2116 1406 1581 1522  L 1381 1569  Q 847 1681 609 1914  Q 372 2147 372 2553  Q 372 3047 722 3315  Q 1072 3584 1716 3584  Q 2034 3584 2315 3537  Q 2597 3491 2834 3397  z " transform="scale(0.015625)" />
      </defs>
      <use xlink:href="#DejaVuSans-53" />
      <use xlink:href="#DejaVuSans-79" transform="translate(63.476562 0)" />
      <use xlink:href="#DejaVuSans-73" transform="translate(122.65625 0)" />
     </g>
    </g>
    <g id="line2d_101">
     <path d="M 584.281875 48.539375  L 592.281875 48.539375  L 600.281875 48.539375  " style="fill: none; stroke-dasharray: 3.7,1.6; stroke-dashoffset: 0; stroke: #6670b0; stroke-opacity: 0.5" />
    </g>
    <g id="text_24">
     
     <g transform="translate(606.681875 51.339375) scale(0.08 -0.08)">
      <use xlink:href="#DejaVuSans-53" />
      <use xlink:href="#DejaVuSans-79" transform="translate(63.476562 0)" />
      <use xlink:href="#DejaVuSans-73" transform="translate(122.65625 0)" />
      <use xlink:href="#DejaVuSans-b0" transform="translate(174.755859 0)" />
     </g>
    </g>
   </g>
  </g>
  <g id="axes_2">
   <g id="matplotlib.axis_3">
    <g id="ytick_13">
     <g id="line2d_102">
      <defs>
       <path id="m7881e3b88e" d="M 0 0  L 3.5 0  " style="stroke: #333333; stroke-width: 0.8" />
      </defs>
      <g>
       <use xlink:href="#m7881e3b88e" x="631.863125" y="255.878125" style="fill: #333333; stroke: #333333; stroke-width: 0.8" />
      </g>
     </g>
     <g id="text_25">
      
      <g style="fill: #6670b0" transform="translate(638.863125 258.9175) scale(0.08 -0.08)">
       <defs>
        <path id="DejaVuSans-2212" d="M 678 2272  L 4684 2272  L 4684 1741  L 678 1741  L 678 2272  z " transform="scale(0.015625)" />
       </defs>
       <use xlink:href="#DejaVuSans-2212" />
       <use xlink:href="#DejaVuSans-39" transform="translate(83.789062 0)" />
       <use xlink:href="#DejaVuSans-30" transform="translate(147.412109 0)" />
      </g>
     </g>
    </g>
    <g id="ytick_14">
     <g id="line2d_103">
      <g>
       <use xlink:href="#m7881e3b88e" x="631.863125" y="217.618125" style="fill: #333333; stroke: #333333; stroke-width: 0.8" />
      </g>
     </g>
     <g id="text_26">
      
      <g style="fill: #6670b0" transform="translate(638.863125 220.6575) scale(0.08 -0.08)">
       <use xlink:href="#DejaVuSans-2212" />
       <use xlink:href="#DejaVuSans-36" transform="translate(83.789062 0)" />
       <use xlink:href="#DejaVuSans-30" transform="translate(147.412109 0)" />
      </g>
     </g>
    </g>
    <g id="ytick_15">
     <g id="line2d_104">
      <g>
       <use xlink:href="#m7881e3b88e" x="631.863125" y="179.358125" style="fill: #333333; stroke: #333333; stroke-width: 0.8" />
      </g>
     </g>
     <g id="text_27">
      
      <g style="fill: #6670b0" transform="translate(638.863125 182.3975) scale(0.08 -0.08)">
       <use xlink:href="#DejaVuSans-2212" />
       <use xlink:href="#DejaVuSans-33" transform="translate(83.789062 0)" />
       <use xlink:href="#DejaVuSans-30" transform="translate(147.412109 0)" />
      </g>
     </g>
    </g>
    <g id="ytick_16">
     <g id="line2d_105">
      <g>
       <use xlink:href="#m7881e3b88e" x="631.863125" y="141.098125" style="fill: #333333; stroke: #333333; stroke-width: 0.8" />
      </g>
     </g>
     <g id="text_28">
      
      <g style="fill: #6670b0" transform="translate(638.863125 144.1375) scale(0.08 -0.08)">
       <use xlink:href="#DejaVuSans-30" />
      </g>
     </g>
    </g>
    <g id="ytick_17">
     <g id="line2d_106">
      <g>
       <use xlink:href="#m7881e3b88e" x="631.863125" y="102.838125" style="fill: #333333; stroke: #333333; stroke-width: 0.8" />
      </g>
     </g>
     <g id="text_29">
      
      <g style="fill: #6670b0" transform="translate(638.863125 105.8775) scale(0.08 -0.08)">
       <use xlink:href="#DejaVuSans-33" />
       <use xlink:href="#DejaVuSans-30" transform="translate(63.623047 0)" />
      </g>
     </g>
    </g>
    <g id="ytick_18">
     <g id="line2d_107">
      <g>
       <use xlink:href="#m7881e3b88e" x="631.863125" y="64.578125" style="fill: #333333; stroke: #333333; stroke-width: 0.8" />
      </g>
     </g>
     <g id="text_30">
      
      <g style="fill: #6670b0" transform="translate(638.863125 67.6175) scale(0.08 -0.08)">
       <use xlink:href="#DejaVuSans-36" />
       <use xlink:href="#DejaVuSans-30" transform="translate(63.623047 0)" />
      </g>
     </g>
    </g>
    <g id="ytick_19">
     <g id="line2d_108">
      <g>
       <use xlink:href="#m7881e3b88e" x="631.863125" y="26.318125" style="fill: #333333; stroke: #333333; stroke-width: 0.8" />
      </g>
     </g>
     <g id="text_31">
      
      <g style="fill: #6670b0" transform="translate(638.863125 29.3575) scale(0.08 -0.08)">
       <use xlink:href="#DejaVuSans-39" />
       <use xlink:href="#DejaVuSans-30" transform="translate(63.623047 0)" />
      </g>
     </g>
    </g>
    <g id="text_32">
     
     <g style="fill: #6670b0" transform="translate(666.585469 161.725703) rotate(-90) scale(0.09 -0.09)">
      <defs>
       <path id="DejaVuSans-50" d="M 1259 4147  L 1259 2394  L 2053 2394  Q 2494 2394 2734 2622  Q 2975 2850 2975 3272  Q 2975 3691 2734 3919  Q 2494 4147 2053 4147  L 1259 4147  z M 628 4666  L 2053 4666  Q 2838 4666 3239 4311  Q 3641 3956 3641 3272  Q 3641 2581 3239 2228  Q 2838 1875 2053 1875  L 1259 1875  L 1259 0  L 628 0  L 628 4666  z " transform="scale(0.015625)" />
       <path id="DejaVuSans-68" d="M 3513 2113  L 3513 0  L 2938 0  L 2938 2094  Q 2938 2591 2744 2837  Q 2550 3084 2163 3084  Q 1697 3084 1428 2787  Q 1159 2491 1159 1978  L 1159 0  L 581 0  L 581 4863  L 1159 4863  L 1159 2956  Q 1366 3272 1645 3428  Q 1925 3584 2291 3584  Q 2894 3584 3203 3211  Q 3513 2838 3513 2113  z " transform="scale(0.015625)" />
      </defs>
      <use xlink:href="#DejaVuSans-50" />
      <use xlink:href="#DejaVuSans-68" transform="translate(60.302734 0)" />
      <use xlink:href="#DejaVuSans-61" transform="translate(123.681641 0)" />
      <use xlink:href="#DejaVuSans-73" transform="translate(184.960938 0)" />
      <use xlink:href="#DejaVuSans-65" transform="translate(237.060547 0)" />
      <use xlink:href="#DejaVuSans-20" transform="translate(298.583984 0)" />
      <use xlink:href="#DejaVuSans-5b" transform="translate(330.371094 0)" />
      <use xlink:href="#DejaVuSans-b0" transform="translate(369.384766 0)" />
      <use xlink:href="#DejaVuSans-5d" transform="translate(419.384766 0)" />
     </g>
    </g>
   </g>
   <g id="line2d_109">
    <path d="M 41.069542 106.613112 L 43.401784 106.549345 L 45.733959 105.631105 L 48.066187 105.580092 L 49.232323 105.044452 L 50.398383 104.674605 L 52.730605 104.610838 L 53.896716 104.164472 L 55.062852 103.973172 L 57.395058 103.858392 L 58.561177 103.361012 L 59.72723 103.220725 L 60.893384 103.207972 L 62.059493 103.080438 L 63.225597 102.697838 L 66.723869 102.506538 L 70.222194 101.664818 L 73.720505 101.550038 L 77.218844 101.001645 L 80.717143 100.899618 L 85.381555 100.466005 L 92.378203 100.414992 L 95.876503 100.529772 L 102.873154 101.384245 L 105.205365 101.856118 L 111.0359 103.373765 L 120.364745 106.638618 L 125.029165 109.686665 L 126.19526 110.375345 L 129.693569 112.084292 L 130.859685 112.747465 L 134.358008 115.489432 L 137.856318 119.022105 L 140.188526 121.687552 L 142.520736 124.773858 L 144.852959 128.217258 L 146.019046 130.423585 L 147.185165 132.260065 L 149.517366 134.900005 L 150.683469 136.417652 L 151.849587 138.152105 L 154.18179 142.041872 L 156.514006 145.408752 L 158.846219 148.137965 L 160.012323 149.298518 L 162.344528 151.096738 L 164.676741 152.295552 L 167.008945 153.035245 L 170.507273 153.660158 L 171.673372 153.723925 L 172.839476 153.672912 L 174.005592 153.405092 L 175.171685 152.945972 L 176.337797 152.295552 L 177.503901 151.326298 L 179.836108 148.852152 L 182.168318 145.867872 L 184.500532 142.386212 L 186.832742 138.088338 L 192.663272 127.133225 L 194.995483 123.141432 L 197.327692 119.519485 L 200.826013 114.430905 L 203.158225 111.688938 L 205.490426 109.240298 L 207.822646 107.327298 L 210.154857 105.822405 L 212.48706 104.661852 L 214.819275 103.922158 L 218.317591 103.475792 L 220.649799 103.463038 L 222.982013 103.679845 L 225.314221 104.087952 L 226.480328 104.483305 L 228.812542 105.618352 L 231.14475 107.123245 L 233.476964 108.997985 L 235.809171 111.293585 L 240.473592 116.331152 L 243.971911 120.565258 L 247.470226 124.046918 L 250.968545 127.783645 L 254.466856 131.609645 L 256.799068 133.586412 L 259.131278 135.244345 L 267.294019 140.511472 L 269.626229 141.518985 L 276.622863 143.661545 L 278.955074 144.235445 L 281.287284 144.554278 L 289.450021 145.395998 L 295.280548 145.523532 L 298.778864 145.459765 L 304.609391 145.293972 L 315.104341 144.758332 L 327.931499 143.865598 L 344.256975 143.062138 L 360.582451 142.615772 L 373.409611 142.577512 L 400.230033 143.266192 L 410.724984 143.750818 L 415.389406 144.005885 L 422.386041 144.605292 L 427.05046 144.783838 L 437.54541 145.102672 L 445.708145 145.357738 L 464.365835 145.472518 L 473.694676 145.064412 L 481.857414 144.541525 L 495.85068 143.215178 L 515.674472 140.945085 L 526.169421 139.580478 L 533.166054 138.483692 L 552.989845 135.550425 L 565.817005 133.969012 L 579.810268 132.540638 L 601.966271 130.704158 L 611.295116 130.194025 L 619.457855 129.747658 L 626.454487 129.377812 L 631.118909 129.122745 L 632.285014 128.995212 L 635.78333 128.102478 L 638.115541 127.770892 L 641.613855 127.566838 L 645.112173 127.630605 L 649.776595 128.038712 L 654.441018 128.650872 L 662.603753 129.989972 L 676.59702 132.349338 L 688.258074 134.032778 L 697.586916 135.155072 L 708.081864 136.200845 L 719.742919 137.119085 L 727.905658 137.654725 L 747.72945 138.636732 L 757.058293 138.981072 L 757.058293 138.981072" clip-path="url(#p9547945bb1)" style="fill: none; stroke-dasharray: 3.7,1.6; stroke-dashoffset: 0; stroke: #6670b0; stroke-opacity: 0.5" />
   </g>
   <g id="patch_10">
    <path d="M 40.603125 255.878125  L 40.603125 26.318125  " style="fill: none; stroke: #cccccc; stroke-width: 0.8; stroke-linejoin: miter; stroke-linecap: square" />
   </g>
   <g id="patch_11">
    <path d="M 631.863125 255.878125  L 631.863125 26.318125  " style="fill: none; stroke: #cccccc; stroke-width: 0.8; stroke-linejoin: miter; stroke-linecap: square" />
   </g>
   <g id="patch_12">
    <path d="M 40.603125 255.878125  L 631.863125 255.878125  " style="fill: none; stroke: #cccccc; stroke-width: 0.8; stroke-linejoin: miter; stroke-linecap: square" />
   </g>
   <g id="patch_13">
    <path d="M 40.603125 26.318125  L 631.863125 26.318125  " style="fill: none; stroke: #cccccc; stroke-width: 0.8; stroke-linejoin: miter; stroke-linecap: square" />
   </g>
  </g>
 </g>
 <defs>
  <clipPath id="p9547945bb1">
   <rect x="40.603125" y="26.318125" width="591.26" height="229.56" />
  </clipPath>
 </defs>
</svg>