<svg xmlns="http://www.w3.org/2000/svg" viewBox="0 0 1200 700" role="img" aria-labelledby="title subtitle">
  <defs>
    <style>
      text {
        font-family: "Segoe UI", system-ui, -apple-system, sans-serif;
      }
      .card {
        fill: #ffffff;
        stroke: #d1d9e0;
        stroke-width: 1;
      }
      .grid {
        stroke: #e6ebf1;
        stroke-width: 1;
      }
      .grid.v {
        stroke-dasharray: 4 6;
      }
      .axis {
        stroke: #8a98a9;
        stroke-width: 1.2;
      }
      .axis-label {
        fill: #5f6f81;
        font-size: 20px;
      }
      .title {
        fill: #25364a;
        font-size: 30px;
        font-weight: 700;
      }
      .subtitle {
        fill: #5f6f81;
        font-size: 18px;
      }
      .legend {
        fill: #25364a;
        font-size: 18px;
        font-weight: 600;
      }
      .label {
        fill: #25364a;
        font-size: 21px;
        font-weight: 600;
      }
      .caption {
        fill: #5f6f81;
        font-size: 18px;
      }
    </style>
    <clipPath id="plot-area">
      <rect x="92" y="96" width="1016" height="518" rx="10" />
    </clipPath>
  </defs>
  <title id="title">XSim System Frequency Response</title>
  <desc id="subtitle">Final system FRD export | magnitude and phase | 10 Hz to 20 kHz</desc>
  <rect x="8" y="8" width="1184" height="684" rx="18" class="card" />
  <text x="36.00" y="42.00" class="title">XSim System Frequency Response</text>
  <text x="36.00" y="70.00" class="subtitle">Final system FRD export | magnitude and phase | 10 Hz to 20 kHz</text>
  <rect x="890" y="36" width="258" height="70" rx="14" fill="#f7f9fb" stroke="#d1d9e0" />
  <line x1="908" y1="62" x2="952" y2="62" stroke="#165da8" stroke-width="4" />
  <text x="964.00" y="68.00" class="legend">System magnitude</text>
  <line x1="908" y1="86" x2="952" y2="86" stroke="#c86a1d" stroke-width="4" stroke-dasharray="12 10" />
  <text x="964.00" y="92.00" class="legend">System phase</text>
  <line x1="92.00" y1="96" x2="92.00" y2="614" class="grid v" /><line x1="184.65" y1="96" x2="184.65" y2="614" class="grid v" /><line x1="307.13" y1="96" x2="307.13" y2="614" class="grid v" /><line x1="399.78" y1="96" x2="399.78" y2="614" class="grid v" /><line x1="492.43" y1="96" x2="492.43" y2="614" class="grid v" /><line x1="614.91" y1="96" x2="614.91" y2="614" class="grid v" /><line x1="707.57" y1="96" x2="707.57" y2="614" class="grid v" /><line x1="800.22" y1="96" x2="800.22" y2="614" class="grid v" /><line x1="922.70" y1="96" x2="922.70" y2="614" class="grid v" /><line x1="1015.35" y1="96" x2="1015.35" y2="614" class="grid v" /><line x1="1108.00" y1="96" x2="1108.00" y2="614" class="grid v" />
  <line x1="92" y1="614.00" x2="1108" y2="614.00" class="grid h" /><line x1="92" y1="540.00" x2="1108" y2="540.00" class="grid h" /><line x1="92" y1="466.00" x2="1108" y2="466.00" class="grid h" /><line x1="92" y1="392.00" x2="1108" y2="392.00" class="grid h" /><line x1="92" y1="318.00" x2="1108" y2="318.00" class="grid h" /><line x1="92" y1="244.00" x2="1108" y2="244.00" class="grid h" /><line x1="92" y1="170.00" x2="1108" y2="170.00" class="grid h" /><line x1="92" y1="96.00" x2="1108" y2="96.00" class="grid h" />
  <line x1="92" y1="96" x2="92" y2="614" class="axis" />
  <line x1="92" y1="614" x2="1108" y2="614" class="axis" />
  <line x1="1108" y1="96" x2="1108" y2="614" class="axis" />
  <g clip-path="url(#plot-area)">
    <path d="M92.80,564.76 L94.81,560.28 L96.81,555.81 L98.81,551.34 L100.82,546.85 L102.82,542.37 L104.82,537.88 L106.83,533.38 L108.83,528.89 L110.84,524.40 L112.84,519.92 L114.84,515.43 L116.85,510.98 L118.85,506.54 L120.85,502.13 L122.86,497.75 L124.86,493.41 L126.87,489.10 L128.87,484.84 L130.87,480.61 L132.88,476.42 L134.88,472.29 L136.88,468.19 L138.89,464.14 L140.89,460.14 L142.90,456.20 L144.90,452.35 L146.90,448.57 L148.91,444.84 L150.91,441.15 L152.92,437.54 L154.92,434.03 L156.92,430.61 L158.93,427.28 L160.93,424.00 L162.93,420.79 L164.94,417.65 L166.94,414.61 L168.95,411.70 L170.95,408.92 L172.95,406.27 L174.96,403.69 L176.96,401.21 L178.96,398.82 L180.97,396.56 L182.97,394.47 L184.98,392.58 L186.98,390.82 L188.98,389.11 L190.99,387.40 L192.99,385.58 L195.00,383.58 L197.00,381.36 L199.00,378.90 L201.01,376.18 L203.01,373.23 L205.01,370.10 L207.02,366.85 L209.02,363.63 L211.03,360.56 L213.03,357.80 L215.03,355.38 L217.04,353.27 L219.04,351.27 L221.04,349.21 L223.05,346.95 L225.05,344.36 L227.06,341.44 L229.06,338.20 L231.06,334.71 L233.07,331.02 L235.07,327.19 L237.07,323.27 L239.08,319.27 L241.08,315.14 L243.09,310.88 L245.09,306.43 L247.09,301.82 L249.10,297.12 L251.10,292.37 L253.11,287.62 L255.11,282.94 L257.11,278.41 L259.12,274.18 L261.12,270.42 L263.12,267.34 L265.13,265.16 L267.13,263.85 L269.14,263.17 L271.14,262.71 L273.14,261.92 L275.15,260.28 L277.15,257.47 L279.15,253.53 L281.16,248.90 L283.16,244.06 L285.17,239.38 L287.17,235.03 L289.17,231.15 L291.18,227.79 L293.18,224.95 L295.18,222.60 L297.19,220.60 L299.19,218.81 L301.20,217.12 L303.20,215.47 L305.20,213.87 L307.21,212.33 L309.21,210.80 L311.22,209.18 L313.22,207.38 L315.22,205.37 L317.23,203.24 L319.23,200.99 L321.23,198.67 L323.24,196.24 L325.24,193.78 L327.25,191.37 L329.25,189.05 L331.25,186.77 L333.26,184.50 L335.26,182.37 L337.26,180.67 L339.27,179.52 L341.27,178.89 L343.28,178.69 L345.28,178.73 L347.28,178.85 L349.29,179.03 L351.29,179.29 L353.29,179.74 L355.30,180.40 L357.30,181.25 L359.31,182.21 L361.31,183.22 L363.31,184.30 L365.32,185.45 L367.32,186.64 L369.33,187.80 L371.33,188.94 L373.33,190.04 L375.34,191.03 L377.34,191.86 L379.34,192.53 L381.35,193.03 L383.35,193.44 L385.36,193.89 L387.36,194.51 L389.36,195.40 L391.37,196.61 L393.37,198.12 L395.37,199.82 L397.38,201.60 L399.38,203.39 L401.39,205.12 L403.39,206.72 L405.39,208.12 L407.40,209.35 L409.40,210.40 L411.40,211.37 L413.41,212.28 L415.41,213.25 L417.42,214.33 L419.42,215.57 L421.42,217.00 L423.43,218.63 L425.43,220.39 L427.44,222.10 L429.44,223.52 L431.44,224.67 L433.45,225.69 L435.45,226.73 L437.45,227.82 L439.46,228.92 L441.46,229.85 L443.47,230.53 L445.47,230.96 L447.47,231.21 L449.48,231.41 L451.48,231.63 L453.48,232.00 L455.49,232.57 L457.49,233.33 L459.50,234.14 L461.50,234.87 L463.50,235.42 L465.51,235.80 L467.51,236.16 L469.51,236.57 L471.52,237.06 L473.52,237.50 L475.53,237.80 L477.53,237.86 L479.53,237.71 L481.54,237.47 L483.54,237.31 L485.55,237.27 L487.55,237.34 L489.55,237.40 L491.56,237.41 L493.56,237.40 L495.56,237.47 L497.57,237.65 L499.57,237.87 L501.58,238.04 L503.58,238.07 L505.58,238.05 L507.59,238.09 L509.59,238.23 L511.59,238.41 L513.60,238.58 L515.60,238.75 L517.61,238.92 L519.61,239.18 L521.61,239.46 L523.62,239.72 L525.62,239.99 L527.62,240.29 L529.63,240.64 L531.63,241.01 L533.64,241.35 L535.64,241.65 L537.64,241.94 L539.65,242.22 L541.65,242.49 L543.66,242.76 L545.66,243.01 L547.66,243.27 L549.67,243.56 L551.67,243.85 L553.67,244.16 L555.68,244.55 L557.68,244.98 L559.69,245.44 L561.69,245.89 L563.69,246.32 L565.70,246.72 L567.70,247.08 L569.70,247.40 L571.71,247.70 L573.71,248.03 L575.72,248.40 L577.72,248.82 L579.72,249.30 L581.73,249.80 L583.73,250.30 L585.73,250.78 L587.74,251.22 L589.74,251.62 L591.75,252.02 L593.75,252.38 L595.75,252.69 L597.76,252.95 L599.76,253.16 L601.77,253.35 L603.77,253.55 L605.77,253.75 L607.78,254.00 L609.78,254.24 L611.78,254.45 L613.79,254.58 L615.79,254.61 L617.80,254.55 L619.80,254.40 L621.80,254.18 L623.81,253.90 L625.81,253.56 L627.81,253.19 L629.82,252.78 L631.82,252.36 L633.83,251.93 L635.83,251.53 L637.83,251.18 L639.84,250.88 L641.84,250.65 L643.84,250.48 L645.85,250.42 L647.85,250.42 L649.86,250.50 L651.86,250.62 L653.86,250.78 L655.87,250.94 L657.87,251.07 L659.88,251.15 L661.88,251.15 L663.88,251.03 L665.89,250.73 L667.89,250.23 L669.89,249.51 L671.90,248.54 L673.90,247.36 L675.91,245.94 L677.91,244.33 L679.91,242.55 L681.92,240.68 L683.92,238.78 L685.92,236.90 L687.93,235.11 L689.93,233.49 L691.94,232.09 L693.94,230.98 L695.94,230.19 L697.95,229.78 L699.95,229.73 L701.95,230.09 L703.96,230.80 L705.96,231.83 L707.97,233.09 L709.97,234.53 L711.97,235.99 L713.98,237.41 L715.98,238.66 L717.99,239.60 L719.99,240.20 L721.99,240.37 L724.00,240.14 L726.00,239.50 L728.00,238.58 L730.01,237.46 L732.01,236.24 L734.02,235.05 L736.02,233.91 L738.02,232.86 L740.03,231.88 L742.03,230.98 L744.03,230.09 L746.04,229.19 L748.04,228.22 L750.05,227.20 L752.05,226.14 L754.05,225.07 L756.06,224.09 L758.06,223.28 L760.06,222.72 L762.07,222.50 L764.07,222.64 L766.08,223.21 L768.08,224.18 L770.08,225.50 L772.09,227.04 L774.09,228.64 L776.10,230.16 L778.10,231.43 L780.10,232.29 L782.11,232.62 L784.11,232.37 L786.11,231.52 L788.12,230.15 L790.12,228.31 L792.13,226.17 L794.13,223.87 L796.13,221.62 L798.14,219.71 L800.14,218.37 L802.14,217.88 L804.15,218.51 L806.15,220.41 L808.16,223.56 L810.16,227.75 L812.16,232.53 L814.17,237.22 L816.17,241.14 L818.17,243.75 L820.18,244.83 L822.18,244.55 L824.19,243.26 L826.19,241.26 L828.19,238.63 L830.20,235.24 L832.20,230.98 L834.21,225.87 L836.21,220.23 L838.21,214.56 L840.22,209.43 L842.22,205.27 L844.22,202.41 L846.23,201.02 L848.23,201.08 L850.24,202.41 L852.24,204.62 L854.24,207.00 L856.25,208.67 L858.25,208.85 L860.25,207.15 L862.26,203.83 L864.26,199.63 L866.27,195.47 L868.27,192.17 L870.27,190.20 L872.28,189.79 L874.28,190.90 L876.28,193.49 L878.29,197.48 L880.29,202.89 L882.30,209.59 L884.30,217.32 L886.30,225.37 L888.31,232.89 L890.31,239.10 L892.32,243.59 L894.32,246.35 L896.32,247.66 L898.33,247.97 L900.33,247.79 L902.33,247.42 L904.34,246.87 L906.34,246.01 L908.35,244.71 L910.35,242.99 L912.35,241.00 L914.36,238.89 L916.36,237.07 L918.36,235.89 L920.37,235.50 L922.37,235.86 L924.38,236.90 L926.38,238.58 L928.38,241.01 L930.39,244.27 L932.39,248.34 L934.39,253.06 L936.40,258.15 L938.40,263.33 L940.41,268.27 L942.41,272.55 L944.41,275.45 L946.42,276.22 L948.42,274.43 L950.43,270.24 L952.43,264.42 L954.43,258.22 L956.44,252.82 L958.44,249.09 L960.44,247.54 L962.45,248.22 L964.45,250.76 L966.46,254.45 L968.46,258.28 L970.46,261.14 L972.47,262.09 L974.47,260.68 L976.47,257.20 L978.48,252.54 L980.48,247.76 L982.49,243.64 L984.49,240.77 L986.49,239.52 L988.50,239.97 L990.50,241.93 L992.50,244.65 L994.51,247.12 L996.51,248.60 L998.52,248.88 L1000.52,248.32 L1002.52,247.64 L1004.53,247.48 L1006.53,248.13 L1008.54,249.46 L1010.54,251.16 L1012.54,252.95 L1014.55,254.67 L1016.55,256.12 L1018.55,257.16 L1020.56,257.66 L1022.56,257.65 L1024.57,257.33 L1026.57,256.94 L1028.57,256.48 L1030.58,255.91 L1032.58,255.26 L1034.58,254.80 L1036.59,255.03 L1038.59,256.18 L1040.60,257.72 L1042.60,258.39 L1044.60,256.85 L1046.61,252.72 L1048.61,247.17 L1050.61,242.09 L1052.62,238.58 L1054.62,236.04 L1056.63,232.78 L1058.63,227.42 L1060.63,219.68 L1062.64,210.29 L1064.64,200.18 L1066.65,189.97 L1068.65,179.78 L1070.65,169.79 L1072.66,160.59 L1074.66,152.91 L1076.66,147.09 L1078.67,142.92 L1080.67,140.52 L1082.68,140.95 L1084.68,145.12 L1086.68,152.73 L1088.69,162.36 L1090.69,172.53 L1092.69,182.25 L1094.70,190.81 L1096.70,197.25 L1098.71,200.64 L1100.71,200.61 L1102.71,197.45 L1104.72,191.89 L1106.72,184.70" fill="none" stroke="#165da8" stroke-width="4" stroke-linejoin="round" stroke-linecap="round" />
    <path d="M92.80,138.19 L94.81,138.23 L96.81,138.27 L98.81,138.30 L100.82,138.36 L102.82,138.43 L104.82,138.53 L106.83,138.61 L108.83,138.71 L110.84,138.82 L112.84,138.94 L114.84,139.04 L116.85,139.15 L118.85,139.27 L120.85,139.38 L122.86,139.48 L124.86,139.58 L126.87,139.68 L128.87,139.79 L130.87,139.87 L132.88,139.94 L134.88,140.03 L136.88,140.07 L138.89,140.07 L140.89,140.07 L142.90,140.07 L144.90,140.09 L146.90,140.10 L148.91,140.07 L150.91,140.02 L152.92,139.93 L154.92,139.86 L156.92,139.80 L158.93,139.71 L160.93,139.58 L162.93,139.41 L164.94,139.21 L166.94,138.99 L168.95,138.78 L170.95,138.55 L172.95,138.30 L174.96,138.02 L176.96,137.67 L178.96,137.27 L180.97,136.81 L182.97,136.30 L184.98,135.76 L186.98,135.12 L188.98,134.42 L190.99,133.67 L192.99,132.91 L195.00,132.17 L197.00,131.47 L199.00,130.81 L201.01,130.20 L203.01,129.67 L205.01,129.22 L207.02,128.86 L209.02,128.61 L211.03,128.43 L213.03,128.30 L215.03,128.20 L217.04,128.13 L219.04,128.07 L221.04,128.03 L223.05,128.00 L225.05,127.99 L227.06,127.97 L229.06,127.99 L231.06,128.00 L233.07,128.00 L235.07,128.00 L237.07,128.00 L239.08,128.00 L241.08,128.00 L243.09,128.00 L245.09,128.02 L247.09,128.03 L249.10,128.03 L251.10,128.04 L253.11,128.06 L255.11,128.09 L257.11,128.10 L259.12,128.14 L261.12,128.22 L263.12,128.35 L265.13,128.55 L267.13,128.82 L269.14,129.15 L271.14,129.53 L273.14,129.87 L275.15,130.16 L277.15,130.35 L279.15,130.46 L281.16,130.59 L283.16,130.79 L285.17,131.11 L287.17,131.57 L289.17,132.16 L291.18,132.88 L293.18,133.74 L295.18,134.73 L297.19,135.84 L299.19,137.08 L301.20,138.42 L303.20,139.81 L305.20,141.28 L307.21,142.82 L309.21,144.40 L311.22,146.04 L313.22,147.74 L315.22,149.51 L317.23,151.37 L319.23,153.30 L321.23,155.31 L323.24,157.40 L325.24,159.56 L327.25,161.81 L329.25,164.13 L331.25,166.45 L333.26,168.74 L335.26,171.01 L337.26,173.33 L339.27,175.74 L341.27,178.29 L343.28,180.97 L345.28,183.79 L347.28,186.72 L349.29,189.76 L351.29,192.88 L353.29,196.03 L355.30,199.20 L357.30,202.29 L359.31,205.28 L361.31,208.13 L363.31,210.84 L365.32,213.37 L367.32,215.73 L369.33,217.93 L371.33,220.00 L373.33,222.02 L375.34,224.03 L377.34,226.10 L379.34,228.25 L381.35,230.44 L383.35,232.62 L385.36,234.75 L387.36,236.75 L389.36,238.61 L391.37,240.33 L393.37,241.96 L395.37,243.57 L397.38,245.18 L399.38,246.88 L401.39,248.68 L403.39,250.62 L405.39,252.69 L407.40,254.84 L409.40,257.00 L411.40,259.08 L413.41,261.04 L415.41,262.82 L417.42,264.44 L419.42,265.92 L421.42,267.33 L423.43,268.81 L425.43,270.49 L427.44,272.38 L429.44,274.41 L431.44,276.47 L433.45,278.45 L435.45,280.29 L437.45,281.99 L439.46,283.57 L441.46,285.13 L443.47,286.70 L445.47,288.32 L447.47,289.99 L449.48,291.66 L451.48,293.27 L453.48,294.77 L455.49,296.15 L457.49,297.46 L459.50,298.80 L461.50,300.28 L463.50,301.93 L465.51,303.75 L467.51,305.57 L469.51,307.33 L471.52,308.96 L473.52,310.48 L475.53,311.95 L477.53,313.36 L479.53,314.71 L481.54,315.99 L483.54,317.23 L485.55,318.42 L487.55,319.66 L489.55,320.97 L491.56,322.37 L493.56,323.82 L495.56,325.23 L497.57,326.58 L499.57,327.88 L501.58,329.16 L503.58,330.44 L505.58,331.75 L507.59,333.09 L509.59,334.42 L511.59,335.76 L513.60,337.10 L515.60,338.45 L517.61,339.79 L519.61,341.11 L521.61,342.42 L523.62,343.73 L525.62,345.03 L527.62,346.31 L529.63,347.59 L531.63,348.83 L533.64,350.05 L535.64,351.23 L537.64,352.38 L539.65,353.50 L541.65,354.60 L543.66,355.65 L545.66,356.67 L547.66,357.65 L549.67,358.58 L551.67,359.49 L553.67,360.40 L555.68,361.27 L557.68,362.15 L559.69,363.01 L561.69,363.85 L563.69,364.65 L565.70,365.42 L567.70,366.12 L569.70,366.80 L571.71,367.43 L573.71,368.05 L575.72,368.63 L577.72,369.17 L579.72,369.68 L581.73,370.14 L583.73,370.55 L585.73,370.93 L587.74,371.26 L589.74,371.55 L591.75,371.81 L593.75,372.05 L595.75,372.27 L597.76,372.45 L599.76,372.61 L601.77,372.74 L603.77,372.84 L605.77,372.90 L607.78,372.89 L609.78,372.81 L611.78,372.74 L613.79,372.67 L615.79,372.63 L617.80,372.61 L619.80,372.66 L621.80,372.74 L623.81,372.90 L625.81,373.12 L627.81,373.42 L629.82,373.81 L631.82,374.25 L633.83,374.77 L635.83,375.37 L637.83,376.04 L639.84,376.73 L641.84,377.45 L643.84,378.17 L645.85,378.84 L647.85,379.46 L649.86,380.04 L651.86,380.54 L653.86,380.96 L655.87,381.29 L657.87,381.50 L659.88,381.63 L661.88,381.68 L663.88,381.65 L665.89,381.53 L667.89,381.37 L669.89,381.16 L671.90,380.96 L673.90,380.81 L675.91,380.74 L677.91,380.81 L679.91,381.02 L681.92,381.40 L683.92,381.98 L685.92,382.74 L687.93,383.71 L689.93,384.84 L691.94,386.15 L693.94,387.59 L695.94,389.13 L697.95,390.73 L699.95,392.31 L701.95,393.85 L703.96,395.25 L705.96,396.47 L707.97,397.46 L709.97,398.18 L711.97,398.63 L713.98,398.79 L715.98,398.70 L717.99,398.38 L719.99,397.91 L721.99,397.35 L724.00,396.80 L726.00,396.31 L728.00,395.97 L730.01,395.78 L732.01,395.78 L734.02,395.92 L736.02,396.21 L738.02,396.57 L740.03,396.99 L742.03,397.42 L744.03,397.85 L746.04,398.32 L748.04,398.81 L750.05,399.36 L752.05,400.01 L754.05,400.80 L756.06,401.74 L758.06,402.81 L760.06,404.04 L762.07,405.35 L764.07,406.68 L766.08,407.97 L768.08,409.09 L770.08,409.99 L772.09,410.61 L774.09,410.89 L776.10,410.81 L778.10,410.43 L780.10,409.79 L782.11,409.00 L784.11,408.15 L786.11,407.36 L788.12,406.77 L790.12,406.44 L792.13,406.47 L794.13,406.94 L796.13,407.91 L798.14,409.38 L800.14,411.30 L802.14,413.59 L804.15,416.04 L806.15,418.38 L808.16,420.31 L810.16,421.49 L812.16,421.66 L814.17,420.71 L816.17,418.79 L818.17,416.15 L820.18,413.28 L822.18,410.50 L824.19,407.99 L826.19,405.78 L828.19,403.76 L830.20,401.94 L832.20,400.43 L834.21,399.49 L836.21,399.40 L838.21,400.30 L840.22,402.18 L842.22,404.84 L844.22,408.05 L846.23,411.46 L848.23,414.74 L850.24,417.49 L852.24,419.40 L854.24,420.28 L856.25,420.17 L858.25,419.40 L860.25,418.60 L862.26,418.44 L864.26,419.39 L866.27,421.55 L868.27,424.81 L870.27,428.84 L872.28,433.29 L874.28,437.84 L876.28,442.23 L878.29,446.27 L880.29,449.74 L882.30,452.37 L884.30,453.82 L886.30,453.88 L888.31,452.57 L890.31,450.21 L892.32,447.32 L894.32,444.34 L896.32,441.65 L898.33,439.45 L900.33,437.75 L902.33,436.37 L904.34,435.16 L906.34,434.07 L908.35,433.19 L910.35,432.64 L912.35,432.53 L914.36,432.97 L916.36,434.01 L918.36,435.52 L920.37,437.30 L922.37,439.15 L924.38,440.99 L926.38,442.77 L928.38,444.44 L930.39,445.88 L932.39,446.89 L934.39,447.29 L936.40,446.96 L938.40,445.82 L940.41,443.85 L942.41,440.96 L944.41,437.15 L946.42,432.74 L948.42,428.35 L950.43,424.71 L952.43,422.48 L954.43,421.97 L956.44,423.06 L958.44,425.36 L960.44,428.27 L962.45,431.10 L964.45,433.20 L966.46,434.11 L968.46,433.62 L970.46,431.82 L972.47,429.13 L974.47,426.33 L976.47,424.17 L978.48,423.25 L980.48,423.71 L982.49,425.32 L984.49,427.79 L986.49,430.71 L988.50,433.58 L990.50,435.82 L992.50,437.03 L994.51,437.26 L996.51,436.87 L998.52,436.47 L1000.52,436.54 L1002.52,437.23 L1004.53,438.38 L1006.53,439.65 L1008.54,440.67 L1010.54,441.35 L1012.54,441.68 L1014.55,441.71 L1016.55,441.46 L1018.55,441.00 L1020.56,440.43 L1022.56,439.92 L1024.57,439.58 L1026.57,439.41 L1028.57,439.32 L1030.58,439.36 L1032.58,439.61 L1034.58,440.15 L1036.59,440.82 L1038.59,441.10 L1040.60,440.38 L1042.60,438.48 L1044.60,435.84 L1046.61,433.56 L1048.61,432.70 L1050.61,433.25 L1052.62,434.25 L1054.62,434.60 L1056.63,433.89 L1058.63,432.66 L1060.63,431.88 L1062.64,432.33 L1064.64,434.20 L1066.65,437.41 L1068.65,441.87 L1070.65,447.72 L1072.66,455.13 L1074.66,463.98 L1076.66,473.82 L1078.67,484.41 L1080.67,495.88 L1082.68,508.11 L1084.68,520.27 L1086.68,531.15 L1088.69,540.04 L1090.69,547.02 L1092.69,552.49 L1094.70,556.66 L1096.70,559.90 L1098.71,562.80 L1100.71,566.09 L1102.71,570.34 L1104.72,575.83 L1106.72,582.20" fill="none" stroke="#c86a1d" stroke-width="4" stroke-dasharray="14 10" stroke-linejoin="round" stroke-linecap="round" />
  </g>
  <text x="78.00" y="619.00" class="axis-label" text-anchor="end">60</text><text x="78.00" y="545.00" class="axis-label" text-anchor="end">65</text><text x="78.00" y="471.00" class="axis-label" text-anchor="end">70</text><text x="78.00" y="397.00" class="axis-label" text-anchor="end">75</text><text x="78.00" y="323.00" class="axis-label" text-anchor="end">80</text><text x="78.00" y="249.00" class="axis-label" text-anchor="end">85</text><text x="78.00" y="175.00" class="axis-label" text-anchor="end">90</text><text x="78.00" y="101.00" class="axis-label" text-anchor="end">95</text>
  <text x="1122.00" y="619.00" class="axis-label" text-anchor="start">-300</text><text x="1122.00" y="532.67" class="axis-label" text-anchor="start">-240</text><text x="1122.00" y="446.33" class="axis-label" text-anchor="start">-180</text><text x="1122.00" y="360.00" class="axis-label" text-anchor="start">-120</text><text x="1122.00" y="273.67" class="axis-label" text-anchor="start">-60</text><text x="1122.00" y="187.33" class="axis-label" text-anchor="start">0</text><text x="1122.00" y="101.00" class="axis-label" text-anchor="start">60</text>
  <text x="92.00" y="648.00" class="axis-label" text-anchor="middle">10</text><text x="184.65" y="648.00" class="axis-label" text-anchor="middle">20</text><text x="307.13" y="648.00" class="axis-label" text-anchor="middle">50</text><text x="399.78" y="648.00" class="axis-label" text-anchor="middle">100</text><text x="492.43" y="648.00" class="axis-label" text-anchor="middle">200</text><text x="614.91" y="648.00" class="axis-label" text-anchor="middle">500</text><text x="707.57" y="648.00" class="axis-label" text-anchor="middle">1k</text><text x="800.22" y="648.00" class="axis-label" text-anchor="middle">2k</text><text x="922.70" y="648.00" class="axis-label" text-anchor="middle">5k</text><text x="1015.35" y="648.00" class="axis-label" text-anchor="middle">10k</text><text x="1108.00" y="648.00" class="axis-label" text-anchor="middle">20k</text>
  <text x="600.00" y="674.00" class="label" text-anchor="middle">Frequency (Hz)</text>
  <g transform="translate(28 355.0) rotate(-90)">
    <text x="0.00" y="0.00" class="label" text-anchor="middle">Magnitude (dB)</text>
  </g>
  <g transform="translate(1172 355.0) rotate(90)">
    <text x="0.00" y="0.00" class="label" text-anchor="middle">Phase (deg)</text>
  </g>
  <text x="36.00" y="674.00" class="caption">Charts regenerated from the final XSim system FRD/ZMA exports and capped at 20 kHz for readability.</text>
</svg>
