<svg xmlns="http://www.w3.org/2000/svg" viewBox="0 0 1200 700" role="img" aria-labelledby="title subtitle">
  <defs>
    <style>
      text {
        font-family: "Segoe UI", system-ui, -apple-system, sans-serif;
      }
      .card {
        fill: #ffffff;
        stroke: #d1d9e0;
        stroke-width: 1;
      }
      .grid {
        stroke: #e6ebf1;
        stroke-width: 1;
      }
      .grid.v {
        stroke-dasharray: 4 6;
      }
      .axis {
        stroke: #8a98a9;
        stroke-width: 1.2;
      }
      .axis-label {
        fill: #5f6f81;
        font-size: 20px;
      }
      .title {
        fill: #25364a;
        font-size: 30px;
        font-weight: 700;
      }
      .subtitle {
        fill: #5f6f81;
        font-size: 18px;
      }
      .legend {
        fill: #25364a;
        font-size: 18px;
        font-weight: 600;
      }
      .label {
        fill: #25364a;
        font-size: 21px;
        font-weight: 600;
      }
      .caption {
        fill: #5f6f81;
        font-size: 18px;
      }
    </style>
    <clipPath id="plot-area">
      <rect x="92" y="96" width="1016" height="518" rx="10" />
    </clipPath>
  </defs>
  <title id="title">XSim System Impedance</title>
  <desc id="subtitle">Final system ZMA export | impedance magnitude and phase | 10 Hz to 20 kHz</desc>
  <rect x="8" y="8" width="1184" height="684" rx="18" class="card" />
  <text x="36.00" y="42.00" class="title">XSim System Impedance</text>
  <text x="36.00" y="70.00" class="subtitle">Final system ZMA export | impedance magnitude and phase | 10 Hz to 20 kHz</text>
  <rect x="890" y="36" width="258" height="70" rx="14" fill="#f7f9fb" stroke="#d1d9e0" />
  <line x1="908" y1="62" x2="952" y2="62" stroke="#1a7f62" stroke-width="4" />
  <text x="964.00" y="68.00" class="legend">Impedance magnitude</text>
  <line x1="908" y1="86" x2="952" y2="86" stroke="#7b4ac9" stroke-width="4" stroke-dasharray="12 10" />
  <text x="964.00" y="92.00" class="legend">Impedance phase</text>
  <line x1="92.00" y1="96" x2="92.00" y2="614" class="grid v" /><line x1="184.65" y1="96" x2="184.65" y2="614" class="grid v" /><line x1="307.13" y1="96" x2="307.13" y2="614" class="grid v" /><line x1="399.78" y1="96" x2="399.78" y2="614" class="grid v" /><line x1="492.43" y1="96" x2="492.43" y2="614" class="grid v" /><line x1="614.91" y1="96" x2="614.91" y2="614" class="grid v" /><line x1="707.57" y1="96" x2="707.57" y2="614" class="grid v" /><line x1="800.22" y1="96" x2="800.22" y2="614" class="grid v" /><line x1="922.70" y1="96" x2="922.70" y2="614" class="grid v" /><line x1="1015.35" y1="96" x2="1015.35" y2="614" class="grid v" /><line x1="1108.00" y1="96" x2="1108.00" y2="614" class="grid v" />
  <line x1="92" y1="614.00" x2="1108" y2="614.00" class="grid h" /><line x1="92" y1="527.67" x2="1108" y2="527.67" class="grid h" /><line x1="92" y1="441.33" x2="1108" y2="441.33" class="grid h" /><line x1="92" y1="355.00" x2="1108" y2="355.00" class="grid h" /><line x1="92" y1="268.67" x2="1108" y2="268.67" class="grid h" /><line x1="92" y1="182.33" x2="1108" y2="182.33" class="grid h" /><line x1="92" y1="96.00" x2="1108" y2="96.00" class="grid h" />
  <line x1="92" y1="96" x2="92" y2="614" class="axis" />
  <line x1="92" y1="614" x2="1108" y2="614" class="axis" />
  <line x1="1108" y1="96" x2="1108" y2="614" class="axis" />
  <g clip-path="url(#plot-area)">
    <path d="M92.80,583.09 L94.81,582.83 L96.81,582.57 L98.81,578.69 L100.82,574.55 L102.82,574.37 L104.82,574.11 L106.83,569.54 L108.83,566.43 L110.84,566.17 L112.84,565.57 L114.84,560.21 L116.85,557.80 L118.85,557.54 L120.85,556.42 L122.86,550.37 L124.86,548.56 L126.87,548.30 L128.87,546.57 L130.87,540.79 L132.88,539.67 L134.88,539.41 L136.88,537.34 L138.89,531.29 L140.89,525.94 L142.90,521.71 L144.90,521.28 L146.90,521.02 L148.91,517.82 L150.91,512.04 L152.92,506.34 L154.92,502.98 L156.92,502.63 L158.93,502.37 L160.93,498.05 L162.93,492.44 L164.94,487.26 L166.94,482.17 L168.95,476.47 L170.95,474.57 L172.95,474.31 L174.96,473.36 L176.96,467.49 L178.96,460.41 L180.97,452.04 L182.97,447.64 L184.98,445.05 L186.98,440.82 L188.98,435.03 L190.99,429.51 L192.99,424.15 L195.00,418.80 L197.00,413.36 L199.00,407.58 L201.01,401.71 L203.01,396.27 L205.01,390.91 L207.02,385.22 L209.02,379.52 L211.03,374.08 L213.03,368.47 L215.03,362.60 L217.04,356.90 L219.04,351.72 L221.04,346.45 L223.05,340.75 L225.05,335.23 L227.06,329.79 L229.06,324.96 L231.06,320.03 L233.07,313.56 L235.07,305.19 L237.07,297.50 L239.08,289.21 L241.08,282.74 L243.09,277.65 L245.09,270.83 L247.09,263.31 L249.10,257.79 L251.10,248.29 L253.11,239.57 L255.11,232.15 L257.11,224.81 L259.12,217.21 L261.12,211.77 L263.12,206.16 L265.13,201.59 L267.13,197.87 L269.14,194.77 L271.14,192.78 L273.14,192.35 L275.15,193.56 L277.15,195.46 L279.15,198.05 L281.16,201.67 L283.16,206.94 L285.17,214.62 L287.17,223.69 L289.17,233.79 L291.18,244.58 L293.18,255.89 L295.18,267.89 L297.19,280.32 L299.19,292.84 L301.20,305.44 L303.20,317.88 L305.20,330.05 L307.21,342.05 L309.21,353.71 L311.22,364.58 L313.22,375.89 L315.22,388.93 L317.23,402.31 L319.23,415.52 L321.23,427.52 L323.24,437.36 L325.24,447.72 L327.25,459.55 L329.25,470.00 L331.25,478.63 L333.26,486.49 L335.26,493.48 L337.26,499.78 L339.27,505.31 L341.27,509.97 L343.28,513.77 L345.28,516.53 L347.28,518.43 L349.29,519.46 L351.29,519.81 L353.29,519.21 L355.30,517.82 L357.30,516.01 L359.31,513.51 L361.31,510.49 L363.31,506.69 L365.32,502.03 L367.32,496.67 L369.33,491.23 L371.33,485.10 L373.33,477.68 L375.34,470.08 L377.34,462.57 L379.34,455.15 L381.35,448.15 L383.35,440.04 L385.36,430.20 L387.36,420.10 L389.36,408.70 L391.37,396.61 L393.37,384.61 L395.37,373.65 L397.38,363.46 L399.38,352.41 L401.39,340.67 L403.39,328.32 L405.39,315.29 L407.40,302.42 L409.40,289.47 L411.40,276.35 L413.41,263.49 L415.41,251.75 L417.42,239.75 L419.42,227.74 L421.42,216.09 L423.43,204.69 L425.43,193.73 L427.44,183.20 L429.44,173.44 L431.44,164.38 L433.45,155.74 L435.45,147.54 L437.45,140.29 L439.46,134.42 L441.46,129.93 L443.47,126.48 L445.47,124.14 L447.47,122.94 L449.48,121.99 L451.48,121.30 L453.48,121.30 L455.49,121.99 L457.49,123.54 L459.50,125.70 L461.50,127.34 L463.50,129.15 L465.51,131.74 L467.51,135.02 L469.51,139.51 L471.52,144.86 L473.52,151.51 L475.53,157.64 L477.53,162.22 L479.53,166.28 L481.54,170.16 L483.54,174.39 L485.55,179.48 L487.55,184.75 L489.55,190.19 L491.56,195.63 L493.56,201.24 L495.56,206.68 L497.57,211.95 L499.57,216.26 L501.58,219.97 L503.58,223.51 L505.58,226.97 L507.59,231.03 L509.59,235.43 L511.59,239.40 L513.60,243.11 L515.60,246.39 L517.61,249.50 L519.61,252.78 L521.61,256.06 L523.62,259.00 L525.62,261.85 L527.62,264.87 L529.63,267.72 L531.63,270.22 L533.64,272.55 L535.64,274.88 L537.64,277.04 L539.65,279.20 L541.65,281.27 L543.66,283.34 L545.66,285.07 L547.66,286.54 L549.67,288.26 L551.67,290.08 L553.67,291.72 L555.68,293.19 L557.68,294.65 L559.69,296.03 L561.69,297.33 L563.69,298.62 L565.70,299.83 L567.70,300.96 L569.70,301.99 L571.71,302.94 L573.71,303.80 L575.72,304.67 L577.72,305.44 L579.72,306.14 L581.73,306.91 L583.73,307.52 L585.73,308.03 L587.74,308.55 L589.74,308.98 L591.75,309.50 L593.75,309.93 L595.75,310.37 L597.76,310.71 L599.76,311.06 L601.77,311.23 L603.77,311.49 L605.77,311.66 L607.78,311.83 L609.78,312.01 L611.78,312.18 L613.79,312.44 L615.79,312.52 L617.80,312.61 L619.80,312.78 L621.80,312.87 L623.81,312.96 L625.81,313.04 L627.81,313.04 L629.82,313.13 L631.82,313.04 L633.83,313.04 L635.83,312.87 L637.83,312.70 L639.84,312.61 L641.84,312.52 L643.84,312.44 L645.85,312.44 L647.85,312.35 L649.86,312.26 L651.86,312.18 L653.86,312.09 L655.87,311.92 L657.87,311.75 L659.88,311.66 L661.88,311.49 L663.88,311.40 L665.89,311.23 L667.89,311.14 L669.89,311.06 L671.90,310.97 L673.90,310.88 L675.91,310.71 L677.91,310.62 L679.91,310.62 L681.92,310.45 L683.92,310.37 L685.92,310.28 L687.93,310.19 L689.93,310.19 L691.94,310.19 L693.94,310.11 L695.94,310.11 L697.95,310.11 L699.95,310.11 L701.95,310.19 L703.96,310.19 L705.96,310.11 L707.97,310.11 L709.97,310.02 L711.97,310.11 L713.98,310.28 L715.98,310.28 L717.99,310.37 L719.99,310.45 L721.99,310.54 L724.00,310.62 L726.00,310.71 L728.00,310.80 L730.01,310.97 L732.01,310.88 L734.02,310.71 L736.02,310.62 L738.02,310.71 L740.03,310.97 L742.03,311.40 L744.03,311.92 L746.04,312.52 L748.04,313.13 L750.05,313.91 L752.05,314.77 L754.05,315.55 L756.06,316.24 L758.06,316.93 L760.06,317.45 L762.07,318.05 L764.07,318.57 L766.08,319.17 L768.08,319.69 L770.08,320.21 L772.09,320.73 L774.09,321.33 L776.10,321.93 L778.10,322.54 L780.10,323.14 L782.11,323.83 L784.11,324.52 L786.11,325.30 L788.12,326.08 L790.12,326.86 L792.13,327.63 L794.13,328.41 L796.13,329.19 L798.14,330.05 L800.14,330.83 L802.14,331.69 L804.15,332.55 L806.15,333.33 L808.16,334.11 L810.16,334.97 L812.16,335.92 L814.17,336.78 L816.17,337.73 L818.17,338.68 L820.18,339.63 L822.18,340.67 L824.19,341.53 L826.19,342.48 L828.19,343.35 L830.20,344.29 L832.20,345.24 L834.21,346.19 L836.21,347.06 L838.21,347.83 L840.22,348.70 L842.22,349.56 L844.22,350.42 L846.23,351.20 L848.23,351.98 L850.24,352.76 L852.24,353.53 L854.24,354.31 L856.25,355.09 L858.25,355.78 L860.25,356.47 L862.26,357.07 L864.26,357.76 L866.27,358.37 L868.27,358.97 L870.27,359.58 L872.28,360.09 L874.28,360.70 L876.28,361.22 L878.29,361.65 L880.29,362.08 L882.30,362.51 L884.30,362.94 L886.30,363.29 L888.31,363.63 L890.31,363.89 L892.32,364.15 L894.32,364.50 L896.32,364.76 L898.33,365.10 L900.33,365.36 L902.33,365.71 L904.34,365.96 L906.34,366.22 L908.35,366.48 L910.35,366.74 L912.35,366.91 L914.36,367.17 L916.36,367.35 L918.36,367.60 L920.37,367.78 L922.37,368.04 L924.38,368.21 L926.38,368.38 L928.38,368.47 L930.39,368.55 L932.39,368.55 L934.39,368.55 L936.40,368.55 L938.40,368.38 L940.41,368.21 L942.41,368.04 L944.41,367.78 L946.42,367.43 L948.42,367.17 L950.43,366.83 L952.43,366.48 L954.43,366.05 L956.44,365.62 L958.44,365.19 L960.44,364.67 L962.45,364.15 L964.45,363.55 L966.46,362.94 L968.46,362.34 L970.46,361.73 L972.47,361.13 L974.47,360.44 L976.47,359.83 L978.48,359.14 L980.48,358.45 L982.49,357.76 L984.49,356.99 L986.49,356.21 L988.50,355.43 L990.50,354.65 L992.50,353.88 L994.51,353.01 L996.51,352.24 L998.52,351.37 L1000.52,350.42 L1002.52,349.56 L1004.53,348.70 L1006.53,347.75 L1008.54,346.88 L1010.54,345.93 L1012.54,344.99 L1014.55,344.04 L1016.55,343.09 L1018.55,342.22 L1020.56,341.27 L1022.56,340.41 L1024.57,339.46 L1026.57,338.51 L1028.57,337.56 L1030.58,336.52 L1032.58,335.58 L1034.58,334.54 L1036.59,333.59 L1038.59,332.55 L1040.60,331.43 L1042.60,330.31 L1044.60,329.27 L1046.61,328.06 L1048.61,327.03 L1050.61,325.82 L1052.62,324.70 L1054.62,323.57 L1056.63,322.37 L1058.63,321.16 L1060.63,319.86 L1062.64,318.65 L1064.64,317.45 L1066.65,316.24 L1068.65,315.03 L1070.65,313.91 L1072.66,312.78 L1074.66,311.75 L1076.66,310.71 L1078.67,309.59 L1080.67,308.55 L1082.68,307.52 L1084.68,306.39 L1086.68,305.27 L1088.69,304.06 L1090.69,302.85 L1092.69,301.65 L1094.70,300.44 L1096.70,299.23 L1098.71,298.02 L1100.71,296.81 L1102.71,295.60 L1104.72,294.13 L1106.72,292.41" fill="none" stroke="#1a7f62" stroke-width="4" stroke-linejoin="round" stroke-linecap="round" />
    <path d="M92.80,230.27 L94.81,229.95 L96.81,229.75 L98.81,226.02 L100.82,222.29 L102.82,222.08 L104.82,221.87 L106.83,217.52 L108.83,214.52 L110.84,214.41 L112.84,214.00 L114.84,210.37 L116.85,208.82 L118.85,208.61 L120.85,207.89 L122.86,203.85 L124.86,202.71 L126.87,202.60 L128.87,201.57 L130.87,198.46 L132.88,197.94 L134.88,197.84 L136.88,196.91 L138.89,194.32 L140.89,191.93 L142.90,190.07 L144.90,189.97 L146.90,189.86 L148.91,189.14 L150.91,187.69 L152.92,185.82 L154.92,184.68 L156.92,184.58 L158.93,184.58 L160.93,183.85 L162.93,182.82 L164.94,181.78 L166.94,180.95 L168.95,180.33 L170.95,180.12 L172.95,180.12 L174.96,180.12 L176.96,179.81 L178.96,179.71 L180.97,179.92 L182.97,180.12 L184.98,180.33 L186.98,180.85 L188.98,181.88 L190.99,182.71 L192.99,183.65 L195.00,184.79 L197.00,186.24 L199.00,187.79 L201.01,189.45 L203.01,191.62 L205.01,194.01 L207.02,196.28 L209.02,198.67 L211.03,201.15 L213.03,203.95 L215.03,207.27 L217.04,210.48 L219.04,213.38 L221.04,216.49 L223.05,220.22 L225.05,223.53 L227.06,226.33 L229.06,230.47 L231.06,236.90 L233.07,243.22 L235.07,249.22 L237.07,255.23 L239.08,260.83 L241.08,265.18 L243.09,269.84 L245.09,274.71 L247.09,280.10 L249.10,287.45 L251.10,295.43 L253.11,302.37 L255.11,311.49 L257.11,320.60 L259.12,331.07 L261.12,341.53 L263.12,352.72 L265.13,364.84 L267.13,377.79 L269.14,391.05 L271.14,405.76 L273.14,423.69 L275.15,438.61 L277.15,449.07 L279.15,460.05 L281.16,472.38 L283.16,486.47 L285.17,502.73 L287.17,518.07 L289.17,532.36 L291.18,545.42 L293.18,557.12 L295.18,567.59 L297.19,577.01 L299.19,584.89 L301.20,591.62 L303.20,597.01 L305.20,601.36 L307.21,604.78 L309.21,607.37 L311.22,609.34 L313.22,611.00 L315.22,612.45 L317.23,612.96 L319.23,612.55 L321.23,610.37 L323.24,606.64 L325.24,601.36 L327.25,593.49 L329.25,583.85 L331.25,573.39 L333.26,561.79 L335.26,549.15 L337.26,535.47 L339.27,520.86 L341.27,504.29 L343.28,485.95 L345.28,467.82 L347.28,449.90 L349.29,431.97 L351.29,414.16 L353.29,396.96 L355.30,380.38 L357.30,364.53 L359.31,349.41 L361.31,335.11 L363.31,321.23 L365.32,307.03 L367.32,293.77 L369.33,282.27 L371.33,271.50 L373.33,261.03 L375.34,251.61 L377.34,243.32 L379.34,236.07 L381.35,229.64 L383.35,223.84 L385.36,218.66 L387.36,214.41 L389.36,211.10 L391.37,208.41 L393.37,206.96 L395.37,205.61 L397.38,204.78 L399.38,204.37 L401.39,204.68 L403.39,205.30 L405.39,206.44 L407.40,207.78 L409.40,209.75 L411.40,212.96 L413.41,217.32 L415.41,222.18 L417.42,227.78 L419.42,234.41 L421.42,241.77 L423.43,249.64 L425.43,258.34 L427.44,268.29 L429.44,278.44 L431.44,288.18 L433.45,298.33 L435.45,309.21 L437.45,320.71 L439.46,332.93 L441.46,343.60 L443.47,352.72 L445.47,362.25 L447.47,371.89 L449.48,381.73 L451.48,391.78 L453.48,402.24 L455.49,413.02 L457.49,423.48 L459.50,433.32 L461.50,441.82 L463.50,449.38 L465.51,456.32 L467.51,462.85 L469.51,468.96 L471.52,474.97 L473.52,481.50 L475.53,488.02 L477.53,494.45 L479.53,500.35 L481.54,505.63 L483.54,510.19 L485.55,513.82 L487.55,516.82 L489.55,519.31 L491.56,522.00 L493.56,525.11 L495.56,528.22 L497.57,531.22 L499.57,533.81 L501.58,535.89 L503.58,537.44 L505.58,538.48 L507.59,539.51 L509.59,540.44 L511.59,541.79 L513.60,543.24 L515.60,544.17 L517.61,544.90 L519.61,545.31 L521.61,545.62 L523.62,545.83 L525.62,545.93 L527.62,546.25 L529.63,546.35 L531.63,545.93 L533.64,545.62 L535.64,545.83 L537.64,545.73 L539.65,545.21 L541.65,544.90 L543.66,544.80 L545.66,544.48 L547.66,544.07 L549.67,543.66 L551.67,543.24 L553.67,542.62 L555.68,542.00 L557.68,541.48 L559.69,541.07 L561.69,540.55 L563.69,540.13 L565.70,539.41 L567.70,538.68 L569.70,538.16 L571.71,537.54 L573.71,536.92 L575.72,536.09 L577.72,535.37 L579.72,534.75 L581.73,534.02 L583.73,533.40 L585.73,532.88 L587.74,532.36 L589.74,531.95 L591.75,531.43 L593.75,530.81 L595.75,530.29 L597.76,529.67 L599.76,529.15 L601.77,528.63 L603.77,528.22 L605.77,527.80 L607.78,527.39 L609.78,526.98 L611.78,526.67 L613.79,526.35 L615.79,526.04 L617.80,525.73 L619.80,525.32 L621.80,525.01 L623.81,524.59 L625.81,524.28 L627.81,523.97 L629.82,523.76 L631.82,523.45 L633.83,523.25 L635.83,523.14 L637.83,522.94 L639.84,522.83 L641.84,522.73 L643.84,522.62 L645.85,522.62 L647.85,522.52 L649.86,522.52 L651.86,522.42 L653.86,522.31 L655.87,522.31 L657.87,522.21 L659.88,522.21 L661.88,522.31 L663.88,522.42 L665.89,522.62 L667.89,522.73 L669.89,522.94 L671.90,523.04 L673.90,523.14 L675.91,523.25 L677.91,523.45 L679.91,523.66 L681.92,523.87 L683.92,524.18 L685.92,524.49 L687.93,524.70 L689.93,524.90 L691.94,525.11 L693.94,525.42 L695.94,525.73 L697.95,526.15 L699.95,526.46 L701.95,526.67 L703.96,526.98 L705.96,527.29 L707.97,527.60 L709.97,528.01 L711.97,528.53 L713.98,528.94 L715.98,529.36 L717.99,529.77 L719.99,530.29 L721.99,530.71 L724.00,531.12 L726.00,531.53 L728.00,531.95 L730.01,532.26 L732.01,532.67 L734.02,533.19 L736.02,534.02 L738.02,534.95 L740.03,535.89 L742.03,536.71 L744.03,537.44 L746.04,538.16 L748.04,538.89 L750.05,539.41 L752.05,539.93 L754.05,540.24 L756.06,540.34 L758.06,540.55 L760.06,540.86 L762.07,541.27 L764.07,541.58 L766.08,541.89 L768.08,542.10 L770.08,542.41 L772.09,542.62 L774.09,542.93 L776.10,543.34 L778.10,543.66 L780.10,543.97 L782.11,544.28 L784.11,544.48 L786.11,544.80 L788.12,545.00 L790.12,545.11 L792.13,545.31 L794.13,545.42 L796.13,545.52 L798.14,545.73 L800.14,545.83 L802.14,545.83 L804.15,545.93 L806.15,546.04 L808.16,546.14 L810.16,546.25 L812.16,546.25 L814.17,546.35 L816.17,546.25 L818.17,546.14 L820.18,545.93 L822.18,545.62 L824.19,545.21 L826.19,544.90 L828.19,544.48 L830.20,544.07 L832.20,543.66 L834.21,543.14 L836.21,542.62 L838.21,542.10 L840.22,541.48 L842.22,540.86 L844.22,540.24 L846.23,539.62 L848.23,538.99 L850.24,538.37 L852.24,537.54 L854.24,536.71 L856.25,535.78 L858.25,534.85 L860.25,534.02 L862.26,533.09 L864.26,532.26 L866.27,531.33 L868.27,530.39 L870.27,529.57 L872.28,528.53 L874.28,527.60 L876.28,526.56 L878.29,525.53 L880.29,524.39 L882.30,523.35 L884.30,522.21 L886.30,521.07 L888.31,520.03 L890.31,519.00 L892.32,517.86 L894.32,516.82 L896.32,515.79 L898.33,514.65 L900.33,513.61 L902.33,512.47 L904.34,511.44 L906.34,510.30 L908.35,509.16 L910.35,508.02 L912.35,506.88 L914.36,505.63 L916.36,504.49 L918.36,503.25 L920.37,502.01 L922.37,500.77 L924.38,499.52 L926.38,498.07 L928.38,496.72 L930.39,495.17 L932.39,493.62 L934.39,492.17 L936.40,490.61 L938.40,489.16 L940.41,487.71 L942.41,486.16 L944.41,484.71 L946.42,483.26 L948.42,481.70 L950.43,480.25 L952.43,478.91 L954.43,477.46 L956.44,476.00 L958.44,474.66 L960.44,473.31 L962.45,471.96 L964.45,470.62 L966.46,469.27 L968.46,467.92 L970.46,466.68 L972.47,465.33 L974.47,464.09 L976.47,462.85 L978.48,461.60 L980.48,460.46 L982.49,459.22 L984.49,458.08 L986.49,456.94 L988.50,455.80 L990.50,454.66 L992.50,453.63 L994.51,452.49 L996.51,451.45 L998.52,450.42 L1000.52,449.38 L1002.52,448.34 L1004.53,447.31 L1006.53,446.38 L1008.54,445.34 L1010.54,444.41 L1012.54,443.58 L1014.55,442.65 L1016.55,441.71 L1018.55,440.88 L1020.56,440.06 L1022.56,439.23 L1024.57,438.40 L1026.57,437.57 L1028.57,436.64 L1030.58,435.81 L1032.58,434.98 L1034.58,434.15 L1036.59,433.32 L1038.59,432.49 L1040.60,431.66 L1042.60,430.94 L1044.60,430.11 L1046.61,429.38 L1048.61,428.66 L1050.61,427.93 L1052.62,427.31 L1054.62,426.59 L1056.63,425.97 L1058.63,425.34 L1060.63,424.72 L1062.64,424.10 L1064.64,423.58 L1066.65,423.07 L1068.65,422.65 L1070.65,422.24 L1072.66,421.82 L1074.66,421.41 L1076.66,420.89 L1078.67,420.48 L1080.67,419.96 L1082.68,419.34 L1084.68,418.82 L1086.68,418.20 L1088.69,417.57 L1090.69,417.06 L1092.69,416.64 L1094.70,416.12 L1096.70,415.71 L1098.71,415.19 L1100.71,414.78 L1102.71,414.36 L1104.72,413.84 L1106.72,413.12" fill="none" stroke="#7b4ac9" stroke-width="4" stroke-dasharray="14 10" stroke-linejoin="round" stroke-linecap="round" />
  </g>
  <text x="78.00" y="619.00" class="axis-label" text-anchor="end">3</text><text x="78.00" y="532.67" class="axis-label" text-anchor="end">4</text><text x="78.00" y="446.33" class="axis-label" text-anchor="end">5</text><text x="78.00" y="360.00" class="axis-label" text-anchor="end">6</text><text x="78.00" y="273.67" class="axis-label" text-anchor="end">7</text><text x="78.00" y="187.33" class="axis-label" text-anchor="end">8</text><text x="78.00" y="101.00" class="axis-label" text-anchor="end">9</text>
  <text x="1122.00" y="619.00" class="axis-label" text-anchor="start">-10</text><text x="1122.00" y="515.40" class="axis-label" text-anchor="start">0</text><text x="1122.00" y="411.80" class="axis-label" text-anchor="start">10</text><text x="1122.00" y="308.20" class="axis-label" text-anchor="start">20</text><text x="1122.00" y="204.60" class="axis-label" text-anchor="start">30</text><text x="1122.00" y="101.00" class="axis-label" text-anchor="start">40</text>
  <text x="92.00" y="648.00" class="axis-label" text-anchor="middle">10</text><text x="184.65" y="648.00" class="axis-label" text-anchor="middle">20</text><text x="307.13" y="648.00" class="axis-label" text-anchor="middle">50</text><text x="399.78" y="648.00" class="axis-label" text-anchor="middle">100</text><text x="492.43" y="648.00" class="axis-label" text-anchor="middle">200</text><text x="614.91" y="648.00" class="axis-label" text-anchor="middle">500</text><text x="707.57" y="648.00" class="axis-label" text-anchor="middle">1k</text><text x="800.22" y="648.00" class="axis-label" text-anchor="middle">2k</text><text x="922.70" y="648.00" class="axis-label" text-anchor="middle">5k</text><text x="1015.35" y="648.00" class="axis-label" text-anchor="middle">10k</text><text x="1108.00" y="648.00" class="axis-label" text-anchor="middle">20k</text>
  <text x="600.00" y="674.00" class="label" text-anchor="middle">Frequency (Hz)</text>
  <g transform="translate(28 355.0) rotate(-90)">
    <text x="0.00" y="0.00" class="label" text-anchor="middle">Impedance (ohms)</text>
  </g>
  <g transform="translate(1172 355.0) rotate(90)">
    <text x="0.00" y="0.00" class="label" text-anchor="middle">Phase (deg)</text>
  </g>
  <text x="36.00" y="674.00" class="caption">Charts regenerated from the final XSim system FRD/ZMA exports and capped at 20 kHz for readability.</text>
</svg>
