<?xml version='1.0' encoding='UTF-8'?>
<svg xmlns="http://www.w3.org/2000/svg" xmlns:dc="http://purl.org/dc/elements/1.1/" xmlns:ns2="http://creativecommons.org/ns#" xmlns:rdf="http://www.w3.org/1999/02/22-rdf-syntax-ns#" xmlns:xlink="http://www.w3.org/1999/xlink" width="675.769688pt" height="336.62125pt" viewBox="0 0 675.769688 336.62125" version="1.1">
 <metadata>
  <rdf:RDF>
   <ns2:Work>
    <dc:type rdf:resource="http://purl.org/dc/dcmitype/StillImage" />
    <dc:date>2026-03-27T00:43:19.447354</dc:date>
    <dc:format>image/svg+xml</dc:format>
    <dc:creator>
     <ns2:Agent>
      <dc:title>Matplotlib v3.10.8, https://matplotlib.org/</dc:title>
     </ns2:Agent>
    </dc:creator>
   </ns2:Work>
  </rdf:RDF>
 </metadata>
 <defs>
  <style type="text/css">*{stroke-linejoin: round; stroke-linecap: butt}</style>
 </defs>
 <g id="figure_1">
  <g id="patch_1">
   <path d="M -0 336.62125  L 675.769688 336.62125  L 675.769688 0  L -0 0  z " style="fill: #ffffff" />
  </g>
  <g id="axes_1">
   <g id="patch_2">
    <path d="M 46.965625 299.065  L 626.885625 299.065  L 626.885625 26.305  L 46.965625 26.305  z " style="fill: #ffffff" />
   </g>
   <g id="matplotlib.axis_1">
    <g id="xtick_1">
     <g id="line2d_1">
      <path d="M 46.965625 299.065 L 46.965625 26.305" clip-path="url(#pb6d1fc8011)" style="fill: none; stroke: #e0e0e0; stroke-width: 0.5; stroke-linecap: square" />
     </g>
     <g id="line2d_2">
      <defs>
       <path id="mc6cf8c1da0" d="M -9.944642 0 L -9.944642 3.5" style="stroke: #333333; stroke-width: 0.8" />
      </defs>
      <g>
       <use xlink:href="#mc6cf8c1da0" x="46.965625" y="299.065" style="fill: #333333; stroke: #333333; stroke-width: 0.8" />
      </g>
     </g>
     <g id="text_1">
      
      <g style="fill: #333333" transform="translate(39.25591 313.663438) scale(0.1 -0.1)">
       <defs>
        <path id="DejaVuSans-31" d="M 952.179302 531 L 2201.486338 531 L 2201.486338 4091 L 841.910689 3866 L 841.910689 4441 L 2194.21588 4666 L 2958.825715 4666 L 2958.825715 531 L 4208.132751 531 L 4208.132751 0 L 952.179302 0 L 952.179302 531 z" transform="scale(0.015625)" />
        <path id="DejaVuSans-30" d="M 2454.740626 4250 Q 1864.621783 4250 1566.533004 3770 Q 1269.655969 3291 1269.655969 2328 Q 1269.655969 1369 1566.533004 889 Q 1864.621783 409 2454.740626 409 Q 3049.70644 409 3346.583476 889 Q 3644.672255 1369 3644.672255 2328 Q 3644.672255 3291 3346.583476 3770 Q 3049.70644 4250 2454.740626 4250 z M 2454.740626 4750 Q 3405.958883 4750 3907.620486 4129 Q 4409.28209 3509 4409.28209 2328 Q 4409.28209 1150 3907.620486 529 Q 3405.958883 -91 2454.740626 -91 Q 1504.734111 -91 1003.072508 529 Q 501.410905 1150 501.410905 2328 Q 501.410905 3509 1003.072508 4129 Q 1504.734111 4750 2454.740626 4750 z" transform="scale(0.015625)" />
       </defs>
       <use xlink:href="#DejaVuSans-31" />
       <use xlink:href="#DejaVuSans-30" transform="translate(67.15014 0)" />
      </g>
     </g>
    </g>
    <g id="xtick_2">
     <g id="line2d_3">
      <path d="M 222.644126 299.065 L 222.644126 26.305" clip-path="url(#pb6d1fc8011)" style="fill: none; stroke: #e0e0e0; stroke-width: 0.5; stroke-linecap: square" />
     </g>
     <g id="line2d_4">
      <g>
       <use xlink:href="#mc6cf8c1da0" x="222.644126" y="299.065" style="fill: #333333; stroke: #333333; stroke-width: 0.8" />
      </g>
     </g>
     <g id="text_2">
      
      <g style="fill: #333333" transform="translate(211.079553 313.663438) scale(0.1 -0.1)">
       <use xlink:href="#DejaVuSans-31" />
       <use xlink:href="#DejaVuSans-30" transform="translate(67.15014 0)" />
       <use xlink:href="#DejaVuSans-30" transform="translate(144.244922 0)" />
      </g>
     </g>
    </g>
    <g id="xtick_3">
     <g id="line2d_5">
      <path d="M 398.322626 299.065 L 398.322626 26.305" clip-path="url(#pb6d1fc8011)" style="fill: none; stroke: #e0e0e0; stroke-width: 0.5; stroke-linecap: square" />
     </g>
     <g id="line2d_6">
      <g>
       <use xlink:href="#mc6cf8c1da0" x="398.322626" y="299.065" style="fill: #333333; stroke: #333333; stroke-width: 0.8" />
      </g>
     </g>
     <g id="text_3">
      
      <g style="fill: #333333" transform="translate(390.959395 313.663438) scale(0.1 -0.1)">
       <defs>
        <path id="DejaVuSans-6b" d="M 694.078042 4863 L 1394.465498 4863 L 1394.465498 1991 L 3473.816491 3500 L 4363.235855 3500 L 2114.240842 1863 L 4458.963553 0 L 3550.1563 0 L 1394.465498 1709 L 1394.465498 0 L 694.078042 0 L 694.078042 4863 z" transform="scale(0.015625)" />
       </defs>
       <use xlink:href="#DejaVuSans-31" />
       <use xlink:href="#DejaVuSans-6b" transform="translate(67.15014 0)" />
      </g>
     </g>
    </g>
    <g id="xtick_4">
     <g id="line2d_7">
      <path d="M 574.001127 299.065 L 574.001127 26.305" clip-path="url(#pb6d1fc8011)" style="fill: none; stroke: #e0e0e0; stroke-width: 0.5; stroke-linecap: square" />
     </g>
     <g id="line2d_8">
      <g>
       <use xlink:href="#mc6cf8c1da0" x="574.001127" y="299.065" style="fill: #333333; stroke: #333333; stroke-width: 0.8" />
      </g>
     </g>
     <g id="text_4">
      
      <g style="fill: #333333" transform="translate(562.783038 313.663438) scale(0.1 -0.1)">
       <use xlink:href="#DejaVuSans-31" />
       <use xlink:href="#DejaVuSans-30" transform="translate(67.15014 0)" />
       <use xlink:href="#DejaVuSans-6b" transform="translate(144.244922 0)" />
      </g>
     </g>
    </g>
    <g id="xtick_5">
     <g id="line2d_9">
      <path d="M 749.679627 299.065 L 749.679627 26.305" clip-path="url(#pb6d1fc8011)" style="fill: none; stroke: #e0e0e0; stroke-width: 0.5; stroke-linecap: square" />
     </g>
     <g id="line2d_10">
      <g>
       <use xlink:href="#mc6cf8c1da0" x="749.679627" y="299.065" style="fill: #333333; stroke: #333333; stroke-width: 0.8" />
      </g>
     </g>
     <text id="text_20k" x="626.885625" y="313.663438" style="font: 10px 'DejaVu Sans'; fill: #333333; text-anchor: middle">20k</text></g>
    <g id="xtick_6">
     <g id="line2d_11">
      <path d="M 99.850124 299.065 L 99.850124 26.305" clip-path="url(#pb6d1fc8011)" style="fill: none; stroke: #f0f0f0; stroke-width: 0.3; stroke-linecap: square" />
     </g>
     <g id="line2d_12">
      <defs>
       <path id="m2659954c19" d="M -9.944642 0 L -9.944642 2" style="stroke: #333333; stroke-width: 0.6" />
      </defs>
      <g>
       <use xlink:href="#m2659954c19" x="99.850124" y="299.065" style="fill: #333333; stroke: #333333; stroke-width: 0.6" />
      </g>
     </g>
    </g>
    <g id="xtick_7">
     <g id="line2d_13">
      <path d="M 130.785572 299.065 L 130.785572 26.305" clip-path="url(#pb6d1fc8011)" style="fill: none; stroke: #f0f0f0; stroke-width: 0.3; stroke-linecap: square" />
     </g>
     <g id="line2d_14">
      <g>
       <use xlink:href="#m2659954c19" x="130.785572" y="299.065" style="fill: #333333; stroke: #333333; stroke-width: 0.6" />
      </g>
     </g>
    </g>
    <g id="xtick_8">
     <g id="line2d_15">
      <path d="M 152.734622 299.065 L 152.734622 26.305" clip-path="url(#pb6d1fc8011)" style="fill: none; stroke: #f0f0f0; stroke-width: 0.3; stroke-linecap: square" />
     </g>
     <g id="line2d_16">
      <g>
       <use xlink:href="#m2659954c19" x="152.734622" y="299.065" style="fill: #333333; stroke: #333333; stroke-width: 0.6" />
      </g>
     </g>
    </g>
    <g id="xtick_9">
     <g id="line2d_17">
      <path d="M 169.759627 299.065 L 169.759627 26.305" clip-path="url(#pb6d1fc8011)" style="fill: none; stroke: #f0f0f0; stroke-width: 0.3; stroke-linecap: square" />
     </g>
     <g id="line2d_18">
      <g>
       <use xlink:href="#m2659954c19" x="169.759627" y="299.065" style="fill: #333333; stroke: #333333; stroke-width: 0.6" />
      </g>
     </g>
    </g>
    <g id="xtick_10">
     <g id="line2d_19">
      <path d="M 183.67007 299.065 L 183.67007 26.305" clip-path="url(#pb6d1fc8011)" style="fill: none; stroke: #f0f0f0; stroke-width: 0.3; stroke-linecap: square" />
     </g>
     <g id="line2d_20">
      <g>
       <use xlink:href="#m2659954c19" x="183.67007" y="299.065" style="fill: #333333; stroke: #333333; stroke-width: 0.6" />
      </g>
     </g>
    </g>
    <g id="xtick_11">
     <g id="line2d_21">
      <path d="M 195.431182 299.065 L 195.431182 26.305" clip-path="url(#pb6d1fc8011)" style="fill: none; stroke: #f0f0f0; stroke-width: 0.3; stroke-linecap: square" />
     </g>
     <g id="line2d_22">
      <g>
       <use xlink:href="#m2659954c19" x="195.431182" y="299.065" style="fill: #333333; stroke: #333333; stroke-width: 0.6" />
      </g>
     </g>
    </g>
    <g id="xtick_12">
     <g id="line2d_23">
      <path d="M 205.619119 299.065 L 205.619119 26.305" clip-path="url(#pb6d1fc8011)" style="fill: none; stroke: #f0f0f0; stroke-width: 0.3; stroke-linecap: square" />
     </g>
     <g id="line2d_24">
      <g>
       <use xlink:href="#m2659954c19" x="205.619119" y="299.065" style="fill: #333333; stroke: #333333; stroke-width: 0.6" />
      </g>
     </g>
    </g>
    <g id="xtick_13">
     <g id="line2d_25">
      <path d="M 214.605518 299.065 L 214.605518 26.305" clip-path="url(#pb6d1fc8011)" style="fill: none; stroke: #f0f0f0; stroke-width: 0.3; stroke-linecap: square" />
     </g>
     <g id="line2d_26">
      <g>
       <use xlink:href="#m2659954c19" x="214.605518" y="299.065" style="fill: #333333; stroke: #333333; stroke-width: 0.6" />
      </g>
     </g>
    </g>
    <g id="xtick_14">
     <g id="line2d_27">
      <path d="M 275.528624 299.065 L 275.528624 26.305" clip-path="url(#pb6d1fc8011)" style="fill: none; stroke: #f0f0f0; stroke-width: 0.3; stroke-linecap: square" />
     </g>
     <g id="line2d_28">
      <g>
       <use xlink:href="#m2659954c19" x="275.528624" y="299.065" style="fill: #333333; stroke: #333333; stroke-width: 0.6" />
      </g>
     </g>
    </g>
    <g id="xtick_15">
     <g id="line2d_29">
      <path d="M 306.464073 299.065 L 306.464073 26.305" clip-path="url(#pb6d1fc8011)" style="fill: none; stroke: #f0f0f0; stroke-width: 0.3; stroke-linecap: square" />
     </g>
     <g id="line2d_30">
      <g>
       <use xlink:href="#m2659954c19" x="306.464073" y="299.065" style="fill: #333333; stroke: #333333; stroke-width: 0.6" />
      </g>
     </g>
    </g>
    <g id="xtick_16">
     <g id="line2d_31">
      <path d="M 328.413123 299.065 L 328.413123 26.305" clip-path="url(#pb6d1fc8011)" style="fill: none; stroke: #f0f0f0; stroke-width: 0.3; stroke-linecap: square" />
     </g>
     <g id="line2d_32">
      <g>
       <use xlink:href="#m2659954c19" x="328.413123" y="299.065" style="fill: #333333; stroke: #333333; stroke-width: 0.6" />
      </g>
     </g>
    </g>
    <g id="xtick_17">
     <g id="line2d_33">
      <path d="M 345.438128 299.065 L 345.438128 26.305" clip-path="url(#pb6d1fc8011)" style="fill: none; stroke: #f0f0f0; stroke-width: 0.3; stroke-linecap: square" />
     </g>
     <g id="line2d_34">
      <g>
       <use xlink:href="#m2659954c19" x="345.438128" y="299.065" style="fill: #333333; stroke: #333333; stroke-width: 0.6" />
      </g>
     </g>
    </g>
    <g id="xtick_18">
     <g id="line2d_35">
      <path d="M 359.34857 299.065 L 359.34857 26.305" clip-path="url(#pb6d1fc8011)" style="fill: none; stroke: #f0f0f0; stroke-width: 0.3; stroke-linecap: square" />
     </g>
     <g id="line2d_36">
      <g>
       <use xlink:href="#m2659954c19" x="359.34857" y="299.065" style="fill: #333333; stroke: #333333; stroke-width: 0.6" />
      </g>
     </g>
    </g>
    <g id="xtick_19">
     <g id="line2d_37">
      <path d="M 371.109682 299.065 L 371.109682 26.305" clip-path="url(#pb6d1fc8011)" style="fill: none; stroke: #f0f0f0; stroke-width: 0.3; stroke-linecap: square" />
     </g>
     <g id="line2d_38">
      <g>
       <use xlink:href="#m2659954c19" x="371.109682" y="299.065" style="fill: #333333; stroke: #333333; stroke-width: 0.6" />
      </g>
     </g>
    </g>
    <g id="xtick_20">
     <g id="line2d_39">
      <path d="M 381.29762 299.065 L 381.29762 26.305" clip-path="url(#pb6d1fc8011)" style="fill: none; stroke: #f0f0f0; stroke-width: 0.3; stroke-linecap: square" />
     </g>
     <g id="line2d_40">
      <g>
       <use xlink:href="#m2659954c19" x="381.29762" y="299.065" style="fill: #333333; stroke: #333333; stroke-width: 0.6" />
      </g>
     </g>
    </g>
    <g id="xtick_21">
     <g id="line2d_41">
      <path d="M 390.284019 299.065 L 390.284019 26.305" clip-path="url(#pb6d1fc8011)" style="fill: none; stroke: #f0f0f0; stroke-width: 0.3; stroke-linecap: square" />
     </g>
     <g id="line2d_42">
      <g>
       <use xlink:href="#m2659954c19" x="390.284019" y="299.065" style="fill: #333333; stroke: #333333; stroke-width: 0.6" />
      </g>
     </g>
    </g>
    <g id="xtick_22">
     <g id="line2d_43">
      <path d="M 451.207125 299.065 L 451.207125 26.305" clip-path="url(#pb6d1fc8011)" style="fill: none; stroke: #f0f0f0; stroke-width: 0.3; stroke-linecap: square" />
     </g>
     <g id="line2d_44">
      <g>
       <use xlink:href="#m2659954c19" x="451.207125" y="299.065" style="fill: #333333; stroke: #333333; stroke-width: 0.6" />
      </g>
     </g>
    </g>
    <g id="xtick_23">
     <g id="line2d_45">
      <path d="M 482.142573 299.065 L 482.142573 26.305" clip-path="url(#pb6d1fc8011)" style="fill: none; stroke: #f0f0f0; stroke-width: 0.3; stroke-linecap: square" />
     </g>
     <g id="line2d_46">
      <g>
       <use xlink:href="#m2659954c19" x="482.142573" y="299.065" style="fill: #333333; stroke: #333333; stroke-width: 0.6" />
      </g>
     </g>
    </g>
    <g id="xtick_24">
     <g id="line2d_47">
      <path d="M 504.091623 299.065 L 504.091623 26.305" clip-path="url(#pb6d1fc8011)" style="fill: none; stroke: #f0f0f0; stroke-width: 0.3; stroke-linecap: square" />
     </g>
     <g id="line2d_48">
      <g>
       <use xlink:href="#m2659954c19" x="504.091623" y="299.065" style="fill: #333333; stroke: #333333; stroke-width: 0.6" />
      </g>
     </g>
    </g>
    <g id="xtick_25">
     <g id="line2d_49">
      <path d="M 521.116628 299.065 L 521.116628 26.305" clip-path="url(#pb6d1fc8011)" style="fill: none; stroke: #f0f0f0; stroke-width: 0.3; stroke-linecap: square" />
     </g>
     <g id="line2d_50">
      <g>
       <use xlink:href="#m2659954c19" x="521.116628" y="299.065" style="fill: #333333; stroke: #333333; stroke-width: 0.6" />
      </g>
     </g>
    </g>
    <g id="xtick_26">
     <g id="line2d_51">
      <path d="M 535.027071 299.065 L 535.027071 26.305" clip-path="url(#pb6d1fc8011)" style="fill: none; stroke: #f0f0f0; stroke-width: 0.3; stroke-linecap: square" />
     </g>
     <g id="line2d_52">
      <g>
       <use xlink:href="#m2659954c19" x="535.027071" y="299.065" style="fill: #333333; stroke: #333333; stroke-width: 0.6" />
      </g>
     </g>
    </g>
    <g id="xtick_27">
     <g id="line2d_53">
      <path d="M 546.788183 299.065 L 546.788183 26.305" clip-path="url(#pb6d1fc8011)" style="fill: none; stroke: #f0f0f0; stroke-width: 0.3; stroke-linecap: square" />
     </g>
     <g id="line2d_54">
      <g>
       <use xlink:href="#m2659954c19" x="546.788183" y="299.065" style="fill: #333333; stroke: #333333; stroke-width: 0.6" />
      </g>
     </g>
    </g>
    <g id="xtick_28">
     <g id="line2d_55">
      <path d="M 556.976121 299.065 L 556.976121 26.305" clip-path="url(#pb6d1fc8011)" style="fill: none; stroke: #f0f0f0; stroke-width: 0.3; stroke-linecap: square" />
     </g>
     <g id="line2d_56">
      <g>
       <use xlink:href="#m2659954c19" x="556.976121" y="299.065" style="fill: #333333; stroke: #333333; stroke-width: 0.6" />
      </g>
     </g>
    </g>
    <g id="xtick_29">
     <g id="line2d_57">
      <path d="M 565.962519 299.065 L 565.962519 26.305" clip-path="url(#pb6d1fc8011)" style="fill: none; stroke: #f0f0f0; stroke-width: 0.3; stroke-linecap: square" />
     </g>
     <g id="line2d_58">
      <g>
       <use xlink:href="#m2659954c19" x="565.962519" y="299.065" style="fill: #333333; stroke: #333333; stroke-width: 0.6" />
      </g>
     </g>
    </g>
    <g id="xtick_30">
     <g id="line2d_59">
      <path d="M 626.885625 299.065 L 626.885625 26.305" clip-path="url(#pb6d1fc8011)" style="fill: none; stroke: #f0f0f0; stroke-width: 0.3; stroke-linecap: square" />
     </g>
     <g id="line2d_60">
      <g>
       <use xlink:href="#m2659954c19" x="626.885625" y="299.065" style="fill: #333333; stroke: #333333; stroke-width: 0.6" />
      </g>
     </g>
    </g>
    <g id="text_6">
     
     <g style="fill: #333333" transform="translate(299.220938 327.341563) scale(0.1 -0.1)">
      <defs>
       <path id="DejaVuSans-46" d="M 628 4666  L 3309 4666  L 3309 4134  L 1259 4134  L 1259 2759  L 3109 2759  L 3109 2228  L 1259 2228  L 1259 0  L 628 0  L 628 4666  z " transform="scale(0.015625)" />
       <path id="DejaVuSans-72" d="M 2631 2963  Q 2534 3019 2420 3045  Q 2306 3072 2169 3072  Q 1681 3072 1420 2755  Q 1159 2438 1159 1844  L 1159 0  L 581 0  L 581 3500  L 1159 3500  L 1159 2956  Q 1341 3275 1631 3429  Q 1922 3584 2338 3584  Q 2397 3584 2469 3576  Q 2541 3569 2628 3553  L 2631 2963  z " transform="scale(0.015625)" />
       <path id="DejaVuSans-65" d="M 3597 1894  L 3597 1613  L 953 1613  Q 991 1019 1311 708  Q 1631 397 2203 397  Q 2534 397 2845 478  Q 3156 559 3463 722  L 3463 178  Q 3153 47 2828 -22  Q 2503 -91 2169 -91  Q 1331 -91 842 396  Q 353 884 353 1716  Q 353 2575 817 3079  Q 1281 3584 2069 3584  Q 2775 3584 3186 3129  Q 3597 2675 3597 1894  z M 3022 2063  Q 3016 2534 2758 2815  Q 2500 3097 2075 3097  Q 1594 3097 1305 2825  Q 1016 2553 972 2059  L 3022 2063  z " transform="scale(0.015625)" />
       <path id="DejaVuSans-71" d="M 947 1747  Q 947 1113 1208 752  Q 1469 391 1925 391  Q 2381 391 2643 752  Q 2906 1113 2906 1747  Q 2906 2381 2643 2742  Q 2381 3103 1925 3103  Q 1469 3103 1208 2742  Q 947 2381 947 1747  z M 2906 525  Q 2725 213 2448 61  Q 2172 -91 1784 -91  Q 1150 -91 751 415  Q 353 922 353 1747  Q 353 2572 751 3078  Q 1150 3584 1784 3584  Q 2172 3584 2448 3432  Q 2725 3281 2906 2969  L 2906 3500  L 3481 3500  L 3481 -1331  L 2906 -1331  L 2906 525  z " transform="scale(0.015625)" />
       <path id="DejaVuSans-75" d="M 544 1381  L 544 3500  L 1119 3500  L 1119 1403  Q 1119 906 1312 657  Q 1506 409 1894 409  Q 2359 409 2629 706  Q 2900 1003 2900 1516  L 2900 3500  L 3475 3500  L 3475 0  L 2900 0  L 2900 538  Q 2691 219 2414 64  Q 2138 -91 1772 -91  Q 1169 -91 856 284  Q 544 659 544 1381  z M 1991 3584  L 1991 3584  z " transform="scale(0.015625)" />
       <path id="DejaVuSans-6e" d="M 3513 2113  L 3513 0  L 2938 0  L 2938 2094  Q 2938 2591 2744 2837  Q 2550 3084 2163 3084  Q 1697 3084 1428 2787  Q 1159 2491 1159 1978  L 1159 0  L 581 0  L 581 3500  L 1159 3500  L 1159 2956  Q 1366 3272 1645 3428  Q 1925 3584 2291 3584  Q 2894 3584 3203 3211  Q 3513 2838 3513 2113  z " transform="scale(0.015625)" />
       <path id="DejaVuSans-63" d="M 3122 3366  L 3122 2828  Q 2878 2963 2633 3030  Q 2388 3097 2138 3097  Q 1578 3097 1268 2742  Q 959 2388 959 1747  Q 959 1106 1268 751  Q 1578 397 2138 397  Q 2388 397 2633 464  Q 2878 531 3122 666  L 3122 134  Q 2881 22 2623 -34  Q 2366 -91 2075 -91  Q 1284 -91 818 406  Q 353 903 353 1747  Q 353 2603 823 3093  Q 1294 3584 2113 3584  Q 2378 3584 2631 3529  Q 2884 3475 3122 3366  z " transform="scale(0.015625)" />
       <path id="DejaVuSans-79" d="M 2059 -325  Q 1816 -950 1584 -1140  Q 1353 -1331 966 -1331  L 506 -1331  L 506 -850  L 844 -850  Q 1081 -850 1212 -737  Q 1344 -625 1503 -206  L 1606 56  L 191 3500  L 800 3500  L 1894 763  L 2988 3500  L 3597 3500  L 2059 -325  z " transform="scale(0.015625)" />
       <path id="DejaVuSans-20" transform="scale(0.015625)" />
       <path id="DejaVuSans-5b" d="M 550 4863  L 1875 4863  L 1875 4416  L 1125 4416  L 1125 -397  L 1875 -397  L 1875 -844  L 550 -844  L 550 4863  z " transform="scale(0.015625)" />
       <path id="DejaVuSans-48" d="M 628 4666  L 1259 4666  L 1259 2753  L 3553 2753  L 3553 4666  L 4184 4666  L 4184 0  L 3553 0  L 3553 2222  L 1259 2222  L 1259 0  L 628 0  L 628 4666  z " transform="scale(0.015625)" />
       <path id="DejaVuSans-7a" d="M 353 3500  L 3084 3500  L 3084 2975  L 922 459  L 3084 459  L 3084 0  L 275 0  L 275 525  L 2438 3041  L 353 3041  L 353 3500  z " transform="scale(0.015625)" />
       <path id="DejaVuSans-5d" d="M 1947 4863  L 1947 -844  L 622 -844  L 622 -397  L 1369 -397  L 1369 4416  L 622 4416  L 622 4863  L 1947 4863  z " transform="scale(0.015625)" />
      </defs>
      <use xlink:href="#DejaVuSans-46" />
      <use xlink:href="#DejaVuSans-72" transform="translate(50.269531 0)" />
      <use xlink:href="#DejaVuSans-65" transform="translate(89.132812 0)" />
      <use xlink:href="#DejaVuSans-71" transform="translate(150.65625 0)" />
      <use xlink:href="#DejaVuSans-75" transform="translate(214.132812 0)" />
      <use xlink:href="#DejaVuSans-65" transform="translate(277.511719 0)" />
      <use xlink:href="#DejaVuSans-6e" transform="translate(339.035156 0)" />
      <use xlink:href="#DejaVuSans-63" transform="translate(402.414062 0)" />
      <use xlink:href="#DejaVuSans-79" transform="translate(457.394531 0)" />
      <use xlink:href="#DejaVuSans-20" transform="translate(516.574219 0)" />
      <use xlink:href="#DejaVuSans-5b" transform="translate(548.361328 0)" />
      <use xlink:href="#DejaVuSans-48" transform="translate(587.375 0)" />
      <use xlink:href="#DejaVuSans-7a" transform="translate(662.570312 0)" />
      <use xlink:href="#DejaVuSans-5d" transform="translate(715.060547 0)" />
     </g>
    </g>
   </g>
   <g id="matplotlib.axis_2">
    <g id="ytick_1">
     <g id="line2d_75">
      <path d="M 46.965625 299.065  L 626.885625 299.065  " clip-path="url(#pb6d1fc8011)" style="fill: none; stroke: #e0e0e0; stroke-width: 0.5; stroke-linecap: square" />
     </g>
     <g id="line2d_76">
      <defs>
       <path id="m9ce4727055" d="M 0 0  L -3.5 0  " style="stroke: #333333; stroke-width: 0.8" />
      </defs>
      <g>
       <use xlink:href="#m9ce4727055" x="46.965625" y="299.065" style="fill: #333333; stroke: #333333; stroke-width: 0.8" />
      </g>
     </g>
     <g id="text_7">
      
      <g style="fill: #333333" transform="translate(27.240625 302.864219) scale(0.1 -0.1)">
       <defs>
        <path id="DejaVuSans-36" d="M 2113 2584  Q 1688 2584 1439 2293  Q 1191 2003 1191 1497  Q 1191 994 1439 701  Q 1688 409 2113 409  Q 2538 409 2786 701  Q 3034 994 3034 1497  Q 3034 2003 2786 2293  Q 2538 2584 2113 2584  z M 3366 4563  L 3366 3988  Q 3128 4100 2886 4159  Q 2644 4219 2406 4219  Q 1781 4219 1451 3797  Q 1122 3375 1075 2522  Q 1259 2794 1537 2939  Q 1816 3084 2150 3084  Q 2853 3084 3261 2657  Q 3669 2231 3669 1497  Q 3669 778 3244 343  Q 2819 -91 2113 -91  Q 1303 -91 875 529  Q 447 1150 447 2328  Q 447 3434 972 4092  Q 1497 4750 2381 4750  Q 2619 4750 2861 4703  Q 3103 4656 3366 4563  z " transform="scale(0.015625)" />
       </defs>
       <use xlink:href="#DejaVuSans-36" />
       <use xlink:href="#DejaVuSans-30" transform="translate(63.623047 0)" />
      </g>
     </g>
    </g>
    <g id="ytick_2">
     <g id="line2d_77">
      <path d="M 46.965625 276.335  L 626.885625 276.335  " clip-path="url(#pb6d1fc8011)" style="fill: none; stroke: #e0e0e0; stroke-width: 0.5; stroke-linecap: square" />
     </g>
     <g id="line2d_78">
      <g>
       <use xlink:href="#m9ce4727055" x="46.965625" y="276.335" style="fill: #333333; stroke: #333333; stroke-width: 0.8" />
      </g>
     </g>
     <g id="text_8">
      
      <g style="fill: #333333" transform="translate(27.240625 280.134219) scale(0.1 -0.1)">
       <defs>
        <path id="DejaVuSans-35" d="M 691 4666  L 3169 4666  L 3169 4134  L 1269 4134  L 1269 2991  Q 1406 3038 1543 3061  Q 1681 3084 1819 3084  Q 2600 3084 3056 2656  Q 3513 2228 3513 1497  Q 3513 744 3044 326  Q 2575 -91 1722 -91  Q 1428 -91 1123 -41  Q 819 9 494 109  L 494 744  Q 775 591 1075 516  Q 1375 441 1709 441  Q 2250 441 2565 725  Q 2881 1009 2881 1497  Q 2881 1984 2565 2268  Q 2250 2553 1709 2553  Q 1456 2553 1204 2497  Q 953 2441 691 2322  L 691 4666  z " transform="scale(0.015625)" />
       </defs>
       <use xlink:href="#DejaVuSans-36" />
       <use xlink:href="#DejaVuSans-35" transform="translate(63.623047 0)" />
      </g>
     </g>
    </g>
    <g id="ytick_3">
     <g id="line2d_79">
      <path d="M 46.965625 253.605  L 626.885625 253.605  " clip-path="url(#pb6d1fc8011)" style="fill: none; stroke: #e0e0e0; stroke-width: 0.5; stroke-linecap: square" />
     </g>
     <g id="line2d_80">
      <g>
       <use xlink:href="#m9ce4727055" x="46.965625" y="253.605" style="fill: #333333; stroke: #333333; stroke-width: 0.8" />
      </g>
     </g>
     <g id="text_9">
      
      <g style="fill: #333333" transform="translate(27.240625 257.404219) scale(0.1 -0.1)">
       <defs>
        <path id="DejaVuSans-37" d="M 525 4666  L 3525 4666  L 3525 4397  L 1831 0  L 1172 0  L 2766 4134  L 525 4134  L 525 4666  z " transform="scale(0.015625)" />
       </defs>
       <use xlink:href="#DejaVuSans-37" />
       <use xlink:href="#DejaVuSans-30" transform="translate(63.623047 0)" />
      </g>
     </g>
    </g>
    <g id="ytick_4">
     <g id="line2d_81">
      <path d="M 46.965625 230.875  L 626.885625 230.875  " clip-path="url(#pb6d1fc8011)" style="fill: none; stroke: #e0e0e0; stroke-width: 0.5; stroke-linecap: square" />
     </g>
     <g id="line2d_82">
      <g>
       <use xlink:href="#m9ce4727055" x="46.965625" y="230.875" style="fill: #333333; stroke: #333333; stroke-width: 0.8" />
      </g>
     </g>
     <g id="text_10">
      
      <g style="fill: #333333" transform="translate(27.240625 234.674219) scale(0.1 -0.1)">
       <use xlink:href="#DejaVuSans-37" />
       <use xlink:href="#DejaVuSans-35" transform="translate(63.623047 0)" />
      </g>
     </g>
    </g>
    <g id="ytick_5">
     <g id="line2d_83">
      <path d="M 46.965625 208.145  L 626.885625 208.145  " clip-path="url(#pb6d1fc8011)" style="fill: none; stroke: #e0e0e0; stroke-width: 0.5; stroke-linecap: square" />
     </g>
     <g id="line2d_84">
      <g>
       <use xlink:href="#m9ce4727055" x="46.965625" y="208.145" style="fill: #333333; stroke: #333333; stroke-width: 0.8" />
      </g>
     </g>
     <g id="text_11">
      
      <g style="fill: #333333" transform="translate(27.240625 211.944219) scale(0.1 -0.1)">
       <defs>
        <path id="DejaVuSans-38" d="M 2034 2216  Q 1584 2216 1326 1975  Q 1069 1734 1069 1313  Q 1069 891 1326 650  Q 1584 409 2034 409  Q 2484 409 2743 651  Q 3003 894 3003 1313  Q 3003 1734 2745 1975  Q 2488 2216 2034 2216  z M 1403 2484  Q 997 2584 770 2862  Q 544 3141 544 3541  Q 544 4100 942 4425  Q 1341 4750 2034 4750  Q 2731 4750 3128 4425  Q 3525 4100 3525 3541  Q 3525 3141 3298 2862  Q 3072 2584 2669 2484  Q 3125 2378 3379 2068  Q 3634 1759 3634 1313  Q 3634 634 3220 271  Q 2806 -91 2034 -91  Q 1263 -91 848 271  Q 434 634 434 1313  Q 434 1759 690 2068  Q 947 2378 1403 2484  z M 1172 3481  Q 1172 3119 1398 2916  Q 1625 2713 2034 2713  Q 2441 2713 2670 2916  Q 2900 3119 2900 3481  Q 2900 3844 2670 4047  Q 2441 4250 2034 4250  Q 1625 4250 1398 4047  Q 1172 3844 1172 3481  z " transform="scale(0.015625)" />
       </defs>
       <use xlink:href="#DejaVuSans-38" />
       <use xlink:href="#DejaVuSans-30" transform="translate(63.623047 0)" />
      </g>
     </g>
    </g>
    <g id="ytick_6">
     <g id="line2d_85">
      <path d="M 46.965625 185.415  L 626.885625 185.415  " clip-path="url(#pb6d1fc8011)" style="fill: none; stroke: #e0e0e0; stroke-width: 0.5; stroke-linecap: square" />
     </g>
     <g id="line2d_86">
      <g>
       <use xlink:href="#m9ce4727055" x="46.965625" y="185.415" style="fill: #333333; stroke: #333333; stroke-width: 0.8" />
      </g>
     </g>
     <g id="text_12">
      
      <g style="fill: #333333" transform="translate(27.240625 189.214219) scale(0.1 -0.1)">
       <use xlink:href="#DejaVuSans-38" />
       <use xlink:href="#DejaVuSans-35" transform="translate(63.623047 0)" />
      </g>
     </g>
    </g>
    <g id="ytick_7">
     <g id="line2d_87">
      <path d="M 46.965625 162.685  L 626.885625 162.685  " clip-path="url(#pb6d1fc8011)" style="fill: none; stroke: #e0e0e0; stroke-width: 0.5; stroke-linecap: square" />
     </g>
     <g id="line2d_88">
      <g>
       <use xlink:href="#m9ce4727055" x="46.965625" y="162.685" style="fill: #333333; stroke: #333333; stroke-width: 0.8" />
      </g>
     </g>
     <g id="text_13">
      
      <g style="fill: #333333" transform="translate(27.240625 166.484219) scale(0.1 -0.1)">
       <defs>
        <path id="DejaVuSans-39" d="M 703 97  L 703 672  Q 941 559 1184 500  Q 1428 441 1663 441  Q 2288 441 2617 861  Q 2947 1281 2994 2138  Q 2813 1869 2534 1725  Q 2256 1581 1919 1581  Q 1219 1581 811 2004  Q 403 2428 403 3163  Q 403 3881 828 4315  Q 1253 4750 1959 4750  Q 2769 4750 3195 4129  Q 3622 3509 3622 2328  Q 3622 1225 3098 567  Q 2575 -91 1691 -91  Q 1453 -91 1209 -44  Q 966 3 703 97  z M 1959 2075  Q 2384 2075 2632 2365  Q 2881 2656 2881 3163  Q 2881 3666 2632 3958  Q 2384 4250 1959 4250  Q 1534 4250 1286 3958  Q 1038 3666 1038 3163  Q 1038 2656 1286 2365  Q 1534 2075 1959 2075  z " transform="scale(0.015625)" />
       </defs>
       <use xlink:href="#DejaVuSans-39" />
       <use xlink:href="#DejaVuSans-30" transform="translate(63.623047 0)" />
      </g>
     </g>
    </g>
    <g id="ytick_8">
     <g id="line2d_89">
      <path d="M 46.965625 139.955  L 626.885625 139.955  " clip-path="url(#pb6d1fc8011)" style="fill: none; stroke: #e0e0e0; stroke-width: 0.5; stroke-linecap: square" />
     </g>
     <g id="line2d_90">
      <g>
       <use xlink:href="#m9ce4727055" x="46.965625" y="139.955" style="fill: #333333; stroke: #333333; stroke-width: 0.8" />
      </g>
     </g>
     <g id="text_14">
      
      <g style="fill: #333333" transform="translate(27.240625 143.754219) scale(0.1 -0.1)">
       <use xlink:href="#DejaVuSans-39" />
       <use xlink:href="#DejaVuSans-35" transform="translate(63.623047 0)" />
      </g>
     </g>
    </g>
    <g id="ytick_9">
     <g id="line2d_91">
      <path d="M 46.965625 117.225  L 626.885625 117.225  " clip-path="url(#pb6d1fc8011)" style="fill: none; stroke: #e0e0e0; stroke-width: 0.5; stroke-linecap: square" />
     </g>
     <g id="line2d_92">
      <g>
       <use xlink:href="#m9ce4727055" x="46.965625" y="117.225" style="fill: #333333; stroke: #333333; stroke-width: 0.8" />
      </g>
     </g>
     <g id="text_15">
      
      <g style="fill: #333333" transform="translate(20.878125 121.024219) scale(0.1 -0.1)">
       <use xlink:href="#DejaVuSans-31" />
       <use xlink:href="#DejaVuSans-30" transform="translate(63.623047 0)" />
       <use xlink:href="#DejaVuSans-30" transform="translate(127.246094 0)" />
      </g>
     </g>
    </g>
    <g id="ytick_10">
     <g id="line2d_93">
      <path d="M 46.965625 94.495  L 626.885625 94.495  " clip-path="url(#pb6d1fc8011)" style="fill: none; stroke: #e0e0e0; stroke-width: 0.5; stroke-linecap: square" />
     </g>
     <g id="line2d_94">
      <g>
       <use xlink:href="#m9ce4727055" x="46.965625" y="94.495" style="fill: #333333; stroke: #333333; stroke-width: 0.8" />
      </g>
     </g>
     <g id="text_16">
      
      <g style="fill: #333333" transform="translate(20.878125 98.294219) scale(0.1 -0.1)">
       <use xlink:href="#DejaVuSans-31" />
       <use xlink:href="#DejaVuSans-30" transform="translate(63.623047 0)" />
       <use xlink:href="#DejaVuSans-35" transform="translate(127.246094 0)" />
      </g>
     </g>
    </g>
    <g id="ytick_11">
     <g id="line2d_95">
      <path d="M 46.965625 71.765  L 626.885625 71.765  " clip-path="url(#pb6d1fc8011)" style="fill: none; stroke: #e0e0e0; stroke-width: 0.5; stroke-linecap: square" />
     </g>
     <g id="line2d_96">
      <g>
       <use xlink:href="#m9ce4727055" x="46.965625" y="71.765" style="fill: #333333; stroke: #333333; stroke-width: 0.8" />
      </g>
     </g>
     <g id="text_17">
      
      <g style="fill: #333333" transform="translate(20.878125 75.564219) scale(0.1 -0.1)">
       <use xlink:href="#DejaVuSans-31" />
       <use xlink:href="#DejaVuSans-31" transform="translate(63.623047 0)" />
       <use xlink:href="#DejaVuSans-30" transform="translate(127.246094 0)" />
      </g>
     </g>
    </g>
    <g id="ytick_12">
     <g id="line2d_97">
      <path d="M 46.965625 49.035  L 626.885625 49.035  " clip-path="url(#pb6d1fc8011)" style="fill: none; stroke: #e0e0e0; stroke-width: 0.5; stroke-linecap: square" />
     </g>
     <g id="line2d_98">
      <g>
       <use xlink:href="#m9ce4727055" x="46.965625" y="49.035" style="fill: #333333; stroke: #333333; stroke-width: 0.8" />
      </g>
     </g>
     <g id="text_18">
      
      <g style="fill: #333333" transform="translate(20.878125 52.834219) scale(0.1 -0.1)">
       <use xlink:href="#DejaVuSans-31" />
       <use xlink:href="#DejaVuSans-31" transform="translate(63.623047 0)" />
       <use xlink:href="#DejaVuSans-35" transform="translate(127.246094 0)" />
      </g>
     </g>
    </g>
    <g id="ytick_13">
     <g id="line2d_99">
      <path d="M 46.965625 26.305  L 626.885625 26.305  " clip-path="url(#pb6d1fc8011)" style="fill: none; stroke: #e0e0e0; stroke-width: 0.5; stroke-linecap: square" />
     </g>
     <g id="line2d_100">
      <g>
       <use xlink:href="#m9ce4727055" x="46.965625" y="26.305" style="fill: #333333; stroke: #333333; stroke-width: 0.8" />
      </g>
     </g>
     <g id="text_19">
      
      <g style="fill: #333333" transform="translate(20.878125 30.104219) scale(0.1 -0.1)">
       <defs>
        <path id="DejaVuSans-32" d="M 1228 531  L 3431 531  L 3431 0  L 469 0  L 469 531  Q 828 903 1448 1529  Q 2069 2156 2228 2338  Q 2531 2678 2651 2914  Q 2772 3150 2772 3378  Q 2772 3750 2511 3984  Q 2250 4219 1831 4219  Q 1534 4219 1204 4116  Q 875 4013 500 3803  L 500 4441  Q 881 4594 1212 4672  Q 1544 4750 1819 4750  Q 2544 4750 2975 4387  Q 3406 4025 3406 3419  Q 3406 3131 3298 2873  Q 3191 2616 2906 2266  Q 2828 2175 2409 1742  Q 1991 1309 1228 531  z " transform="scale(0.015625)" />
       </defs>
       <use xlink:href="#DejaVuSans-31" />
       <use xlink:href="#DejaVuSans-32" transform="translate(63.623047 0)" />
       <use xlink:href="#DejaVuSans-30" transform="translate(127.246094 0)" />
      </g>
     </g>
    </g>
    <g id="text_20">
     
     <g style="fill: #333333" transform="translate(14.798437 178.177188) rotate(-90) scale(0.1 -0.1)">
      <defs>
       <path id="DejaVuSans-64" d="M 2906 2969  L 2906 4863  L 3481 4863  L 3481 0  L 2906 0  L 2906 525  Q 2725 213 2448 61  Q 2172 -91 1784 -91  Q 1150 -91 751 415  Q 353 922 353 1747  Q 353 2572 751 3078  Q 1150 3584 1784 3584  Q 2172 3584 2448 3432  Q 2725 3281 2906 2969  z M 947 1747  Q 947 1113 1208 752  Q 1469 391 1925 391  Q 2381 391 2643 752  Q 2906 1113 2906 1747  Q 2906 2381 2643 2742  Q 2381 3103 1925 3103  Q 1469 3103 1208 2742  Q 947 2381 947 1747  z " transform="scale(0.015625)" />
       <path id="DejaVuSans-42" d="M 1259 2228  L 1259 519  L 2272 519  Q 2781 519 3026 730  Q 3272 941 3272 1375  Q 3272 1813 3026 2020  Q 2781 2228 2272 2228  L 1259 2228  z M 1259 4147  L 1259 2741  L 2194 2741  Q 2656 2741 2882 2914  Q 3109 3088 3109 3444  Q 3109 3797 2882 3972  Q 2656 4147 2194 4147  L 1259 4147  z M 628 4666  L 2241 4666  Q 2963 4666 3353 4366  Q 3744 4066 3744 3513  Q 3744 3084 3544 2831  Q 3344 2578 2956 2516  Q 3422 2416 3680 2098  Q 3938 1781 3938 1306  Q 3938 681 3513 340  Q 3088 0 2303 0  L 628 0  L 628 4666  z " transform="scale(0.015625)" />
       <path id="DejaVuSans-53" d="M 3425 4513  L 3425 3897  Q 3066 4069 2747 4153  Q 2428 4238 2131 4238  Q 1616 4238 1336 4038  Q 1056 3838 1056 3469  Q 1056 3159 1242 3001  Q 1428 2844 1947 2747  L 2328 2669  Q 3034 2534 3370 2195  Q 3706 1856 3706 1288  Q 3706 609 3251 259  Q 2797 -91 1919 -91  Q 1588 -91 1214 -16  Q 841 59 441 206  L 441 856  Q 825 641 1194 531  Q 1563 422 1919 422  Q 2459 422 2753 634  Q 3047 847 3047 1241  Q 3047 1584 2836 1778  Q 2625 1972 2144 2069  L 1759 2144  Q 1053 2284 737 2584  Q 422 2884 422 3419  Q 422 4038 858 4394  Q 1294 4750 2059 4750  Q 2388 4750 2728 4690  Q 3069 4631 3425 4513  z " transform="scale(0.015625)" />
       <path id="DejaVuSans-50" d="M 1259 4147  L 1259 2394  L 2053 2394  Q 2494 2394 2734 2622  Q 2975 2850 2975 3272  Q 2975 3691 2734 3919  Q 2494 4147 2053 4147  L 1259 4147  z M 628 4666  L 2053 4666  Q 2838 4666 3239 4311  Q 3641 3956 3641 3272  Q 3641 2581 3239 2228  Q 2838 1875 2053 1875  L 1259 1875  L 1259 0  L 628 0  L 628 4666  z " transform="scale(0.015625)" />
       <path id="DejaVuSans-4c" d="M 628 4666  L 1259 4666  L 1259 531  L 3531 531  L 3531 0  L 628 0  L 628 4666  z " transform="scale(0.015625)" />
      </defs>
      <use xlink:href="#DejaVuSans-64" />
      <use xlink:href="#DejaVuSans-42" transform="translate(63.476562 0)" />
      <use xlink:href="#DejaVuSans-53" transform="translate(130.330078 0)" />
      <use xlink:href="#DejaVuSans-50" transform="translate(193.806641 0)" />
      <use xlink:href="#DejaVuSans-4c" transform="translate(254.109375 0)" />
     </g>
    </g>
   </g>
   <g id="patch_3">
    <path d="M 46.965625 299.065  L 46.965625 26.305  " style="fill: none; stroke: #cccccc; stroke-width: 0.8; stroke-linejoin: miter; stroke-linecap: square" />
   </g>
   <g id="patch_4">
    <path d="M 626.885625 299.065  L 626.885625 26.305  " style="fill: none; stroke: #cccccc; stroke-width: 0.8; stroke-linejoin: miter; stroke-linecap: square" />
   </g>
   <g id="patch_5">
    <path d="M 46.965625 299.065  L 626.885625 299.065  " style="fill: none; stroke: #cccccc; stroke-width: 0.8; stroke-linejoin: miter; stroke-linecap: square" />
   </g>
   <g id="patch_6">
    <path d="M 46.965625 26.305  L 626.885625 26.305  " style="fill: none; stroke: #cccccc; stroke-width: 0.8; stroke-linejoin: miter; stroke-linecap: square" />
   </g>
   <g id="line2d_101">
    <path d="M 99.337181 232.148751 L 100.60533 231.4562 L 101.873477 230.96373 L 103.14161 230.318185 L 104.409783 229.824233 L 106.946071 228.394909 L 110.750507 225.312702 L 114.554919 221.429553 L 117.09123 219.569004 L 118.359361 219.01023 L 119.627514 218.726437 L 122.163788 217.572815 L 123.431958 216.550242 L 124.700083 215.251768 L 125.968227 214.18446 L 127.236395 212.681172 L 128.504531 211.47191 L 129.772684 209.986992 L 131.040813 208.817781 L 132.308952 207.386337 L 133.577103 205.700951 L 134.845261 204.24975 L 136.113392 202.347272 L 137.381552 200.843947 L 138.649696 198.927755 L 139.917844 197.371895 L 142.454134 193.431357 L 143.722264 192.041066 L 144.990415 190.423144 L 147.526717 189.90633 L 148.794852 190.768797 L 150.062997 191.025429 L 151.331141 191.06619 L 152.599286 190.40713 L 156.403718 183.747659 L 157.671868 182.290572 L 158.940017 180.486297 L 160.208154 178.956951 L 161.476311 178.201123 L 162.744446 177.289048 L 164.012598 177.065676 L 165.280747 176.423601 L 166.548886 176.188199 L 169.085172 174.724521 L 170.353322 174.517003 L 171.621469 174.069954 L 172.889609 173.762968 L 175.425907 172.011919 L 176.694054 171.557301 L 179.23034 170.152499 L 180.498489 169.25544 L 181.766635 168.626058 L 183.034771 168.272927 L 184.302922 167.765267 L 185.571067 166.534765 L 188.107356 165.557479 L 189.375497 166.128278 L 190.643644 166.014916 L 193.179936 167.741417 L 194.448087 167.308219 L 195.716225 168.227636 L 196.984372 168.116805 L 198.252522 169.511529 L 199.520664 169.630539 L 202.056954 172.353886 L 203.325101 172.326737 L 204.593242 173.570147 L 205.861386 173.489651 L 207.129536 174.717612 L 208.397684 174.580442 L 209.665828 175.716662 L 210.93397 176.651289 L 212.202112 176.698457 L 213.470262 177.778166 L 214.738404 177.712037 L 217.274695 179.917043 L 218.542843 180.239782 L 219.810989 181.476475 L 221.079135 181.996906 L 222.347275 183.422261 L 223.615424 184.003362 L 226.151717 187.221438 L 227.419858 187.869388 L 228.688005 189.37839 L 229.956149 189.947194 L 231.224295 191.002183 L 232.492443 191.398809 L 233.760589 192.364534 L 235.028734 192.957655 L 236.296875 193.363446 L 237.565022 195.252539 L 240.10131 198.391374 L 242.637603 200.742182 L 243.905749 201.864357 L 246.442041 203.556954 L 247.710184 204.16476 L 252.782766 207.174437 L 255.319054 208.172732 L 256.587204 208.60867 L 257.855349 209.288115 L 259.123494 210.307955 L 262.927929 214.086066 L 265.46422 215.623937 L 266.732364 216.238776 L 268.000507 216.491592 L 271.804945 216.684226 L 273.073091 216.837888 L 278.14567 219.659594 L 285.754543 222.055982 L 287.022688 222.879018 L 288.290834 223.333133 L 289.55898 224.067563 L 290.827123 224.553042 L 292.095269 225.380632 L 294.631561 226.379434 L 295.899705 227.299945 L 297.167849 227.977857 L 298.435995 228.900561 L 299.704141 229.378438 L 300.972287 230.121763 L 303.508577 231.026023 L 304.776721 231.725704 L 306.044868 231.992947 L 307.313013 232.604107 L 309.849303 232.99453 L 311.117448 233.698681 L 312.385594 234.100492 L 313.653738 235.034151 L 314.921884 235.578611 L 316.190029 236.469172 L 321.26261 238.001242 L 322.530755 238.624469 L 323.798902 239.022664 L 325.067046 239.784897 L 326.335193 240.14861 L 327.603337 240.355446 L 328.871483 240.847697 L 330.139629 240.915302 L 331.407773 241.364501 L 332.675918 241.416998 L 333.944064 241.868557 L 336.480354 241.888873 L 337.7485 242.206808 L 339.016645 242.235483 L 340.284791 242.692099 L 341.552937 242.796436 L 342.82108 243.25526 L 345.357371 243.47078 L 346.625517 243.886631 L 347.893662 243.94065 L 349.161807 244.358639 L 351.698097 244.489534 L 352.966242 244.955498 L 354.234388 245.002881 L 355.502534 245.470895 L 356.770679 245.528316 L 358.038824 245.998388 L 360.575115 246.12927 L 361.843261 246.510868 L 363.111405 246.492484 L 364.379551 246.830645 L 365.647696 246.709451 L 366.915841 246.913168 L 370.720277 246.197701 L 371.988421 245.63529 L 373.256567 245.297686 L 374.524712 244.458662 L 375.792858 243.850145 L 380.86544 239.526835 L 382.133585 238.694864 L 383.401729 237.587513 L 384.669875 236.93904 L 387.206166 235.132169 L 388.474311 234.985545 L 389.742457 234.5687 L 392.278747 235.077756 L 393.546891 235.736024 L 396.083182 238.405499 L 398.619473 242.540605 L 401.155766 248.686199 L 403.692053 257.078987 L 408.764637 277.071723 L 410.032778 280.380467 L 411.300927 281.854984 L 412.569074 281.772056 L 413.837215 279.899342 L 415.105365 277.408232 L 417.641656 271.633753 L 418.909796 268.84532 L 420.177944 266.379735 L 422.714235 262.600891 L 425.250526 259.765772 L 426.518669 258.779752 L 429.054958 256.590859 L 430.323107 255.924477 L 431.59125 255.074988 L 432.859397 254.500635 L 435.395688 252.980834 L 436.66383 252.589528 L 437.931976 251.844783 L 439.200121 251.363543 L 440.468266 250.341517 L 441.736412 249.088402 L 443.004559 246.866133 L 444.272705 243.844411 L 445.540848 240.455659 L 448.077142 232.512865 L 449.345284 228.66135 L 450.61343 225.86532 L 451.881576 223.493141 L 453.149721 222.369864 L 454.417866 222.666772 L 455.686009 224.275328 L 456.954155 227.346633 L 458.222302 231.990375 L 459.490447 238.290383 L 460.758591 246.139533 L 462.026737 255.326462 L 464.563029 275.250535 L 465.831175 283.052038 L 467.099317 287.598288 L 468.367463 290.127042 L 470.903754 292.362116 L 473.440046 295.899446 L 474.70819 298.338619 L 475.976336 300.465347 L 477.24448 302.268673 L 478.512628 302.647168 L 479.780771 302.147813 L 481.048916 301.815039 L 482.317063 301.952895 L 483.585207 303.711832 L 484.853353 306.621659 L 486.121498 310.56721 L 487.389642 315.099696 L 488.65779 318.442194 L 489.925933 320.929477 L 492.462224 323.426745 L 493.73037 323.792824 L 494.998516 323.247511 L 496.266661 322.053406 L 497.534804 319.780469 L 500.071096 316.212321 L 501.339241 315.928318 L 502.607387 316.316744 L 503.875532 317.51605 L 505.143678 319.459906 L 506.411823 320.922318 L 507.679967 322.639271 L 508.948113 323.819626 L 510.21626 325.173287 L 511.484403 325.522606 L 512.752549 325.314096 L 514.020695 325.258729 L 515.288839 324.443232 L 517.825129 323.335488 L 519.093277 324.371851 L 520.36142 326.63645 L 521.629565 330.489437 L 523.253688 337.62125 L 523.253688 337.62125" clip-path="url(#pb6d1fc8011)" style="fill: none; stroke: #c02020; stroke-width: 1.3; stroke-linecap: square" />
   </g>
   <g id="line2d_102">
    <path d="M 327.732833 337.62125 L 331.407775 335.973063 L 332.675921 335.510157 L 340.284791 331.954725 L 344.089227 330.611204 L 346.625518 329.461181 L 349.161803 328.12053 L 352.966241 325.836179 L 363.111408 319.024667 L 370.720277 314.978464 L 375.792861 312.331053 L 379.597296 309.808348 L 388.474311 302.954937 L 389.742457 302.121252 L 392.278744 300.912264 L 393.546893 300.440712 L 396.083185 299.937089 L 397.351331 299.925798 L 398.619473 299.747163 L 399.88762 299.690857 L 401.155766 299.298195 L 402.423911 298.755512 L 403.692053 298.063367 L 406.228343 295.686438 L 408.764637 292.482647 L 411.300927 288.803506 L 413.837215 285.679023 L 416.373505 283.282902 L 418.909796 281.424276 L 420.177944 280.485231 L 421.44608 279.707339 L 429.054958 273.728288 L 431.59125 272.629926 L 434.127548 272.561136 L 435.395688 272.678519 L 436.66383 273.135498 L 439.200121 273.617838 L 441.736407 273.194225 L 445.540848 271.212591 L 446.808993 270.549054 L 448.077145 270.287992 L 449.345288 269.759985 L 450.613434 269.456123 L 451.881576 268.562529 L 454.417866 266.266318 L 455.686009 264.777053 L 459.490447 261.431752 L 464.563026 255.756263 L 465.831171 254.746394 L 468.367467 252.258813 L 469.635606 249.95846 L 472.171901 243.465212 L 473.440046 239.928849 L 474.708186 237.209358 L 475.976333 234.898347 L 477.24448 233.730573 L 478.512628 233.054404 L 479.780774 233.200721 L 482.317063 235.508397 L 483.585204 236.312618 L 484.85335 235.270995 L 486.121498 232.595811 L 488.657792 225.872065 L 489.925933 223.469345 L 491.194079 221.625023 L 492.462224 221.095356 L 493.730368 220.934743 L 494.998516 221.267629 L 496.266663 222.480688 L 497.534803 224.04946 L 500.071096 230.166713 L 501.339241 233.265663 L 502.607385 234.66577 L 503.875532 234.853095 L 505.143677 234.56135 L 507.679966 231.909192 L 508.948113 230.783099 L 510.216263 230.381045 L 511.484407 229.495825 L 514.020693 227.06434 L 517.825128 221.657577 L 519.093279 220.806308 L 520.361423 220.283367 L 521.629564 220.03824 L 524.165855 220.196029 L 525.434001 221.065782 L 526.702147 222.108751 L 527.970295 223.466962 L 529.238437 225.361571 L 530.506586 226.772995 L 533.042875 230.427027 L 534.31102 231.581254 L 535.579166 230.666673 L 536.847307 228.120613 L 538.115457 224.345236 L 539.383598 220.045172 L 540.651744 216.876926 L 541.919893 214.505106 L 543.188036 214.125883 L 544.456179 214.994329 L 545.724325 216.969663 L 546.992471 219.615499 L 548.260615 221.477054 L 549.528761 222.365092 L 550.796909 220.89017 L 552.065055 217.974212 L 553.333199 214.336304 L 554.601342 211.250958 L 555.86949 209.220906 L 557.137633 207.611715 L 558.405779 207.549745 L 559.673925 208.691777 L 560.942073 211.051853 L 562.210213 212.48359 L 563.478361 212.651173 L 564.746504 211.802384 L 566.01465 210.033126 L 567.282795 208.877171 L 568.550943 208.671211 L 569.819083 209.340321 L 571.08723 210.155258 L 572.355377 210.569675 L 573.623526 211.393953 L 574.891665 211.650703 L 576.159817 212.074496 L 577.42796 211.753653 L 578.696106 210.666611 L 582.500541 210.009354 L 583.768685 209.212837 L 585.036829 208.20821 L 586.304975 207.4213 L 587.57312 208.768939 L 588.841267 211.274201 L 590.109414 213.039436 L 591.377554 211.685979 L 592.645704 206.324988 L 593.91385 201.930615 L 595.181993 201.122466 L 596.450137 202.676283 L 597.718282 203.925818 L 598.986431 201.895681 L 600.254575 197.875698 L 601.522721 192.854721 L 604.059009 185.562065 L 605.327157 181.254777 L 606.595301 176.469986 L 607.863446 172.71956 L 609.13159 171.255914 L 610.399736 169.556794 L 611.667883 166.822618 L 612.936025 166.073506 L 614.204179 170.135706 L 615.472322 176.451372 L 618.008608 184.651683 L 619.276752 188.768035 L 620.544899 191.710157 L 621.813039 192.847567 L 623.081191 192.003349 L 625.617477 186.044317 L 625.617477 186.044317" clip-path="url(#pb6d1fc8011)" style="fill: none; stroke: #c8a010; stroke-width: 1.3; stroke-linecap: square" />
   </g>
   <g id="text_21">
    
    <g style="fill: #1a3ea0; opacity: 0.7" transform="translate(52.764825 293.6098) scale(0.09 -0.09)">
     <defs>
      <path id="DejaVuSans-Bold-58" d="M 3188 2381  L 4806 0  L 3553 0  L 2463 1594  L 1381 0  L 122 0  L 1741 2381  L 184 4666  L 1441 4666  L 2463 3163  L 3481 4666  L 4744 4666  L 3188 2381  z " transform="scale(0.015625)" />
      <path id="DejaVuSans-Bold-53" d="M 3834 4519  L 3834 3531  Q 3450 3703 3084 3790  Q 2719 3878 2394 3878  Q 1963 3878 1756 3759  Q 1550 3641 1550 3391  Q 1550 3203 1689 3098  Q 1828 2994 2194 2919  L 2706 2816  Q 3484 2659 3812 2340  Q 4141 2022 4141 1434  Q 4141 663 3683 286  Q 3225 -91 2284 -91  Q 1841 -91 1394 -6  Q 947 78 500 244  L 500 1259  Q 947 1022 1364 901  Q 1781 781 2169 781  Q 2563 781 2772 912  Q 2981 1044 2981 1288  Q 2981 1506 2839 1625  Q 2697 1744 2272 1838  L 1806 1941  Q 1106 2091 782 2419  Q 459 2747 459 3303  Q 459 4000 909 4375  Q 1359 4750 2203 4750  Q 2588 4750 2994 4692  Q 3400 4634 3834 4519  z " transform="scale(0.015625)" />
      <path id="DejaVuSans-Bold-69" d="M 538 3500  L 1656 3500  L 1656 0  L 538 0  L 538 3500  z M 538 4863  L 1656 4863  L 1656 3950  L 538 3950  L 538 4863  z " transform="scale(0.015625)" />
      <path id="DejaVuSans-Bold-6d" d="M 3781 2919  Q 3994 3244 4286 3414  Q 4578 3584 4928 3584  Q 5531 3584 5847 3212  Q 6163 2841 6163 2131  L 6163 0  L 5038 0  L 5038 1825  Q 5041 1866 5042 1909  Q 5044 1953 5044 2034  Q 5044 2406 4934 2573  Q 4825 2741 4581 2741  Q 4263 2741 4089 2478  Q 3916 2216 3909 1719  L 3909 0  L 2784 0  L 2784 1825  Q 2784 2406 2684 2573  Q 2584 2741 2328 2741  Q 2006 2741 1831 2477  Q 1656 2213 1656 1722  L 1656 0  L 531 0  L 531 3500  L 1656 3500  L 1656 2988  Q 1863 3284 2130 3434  Q 2397 3584 2719 3584  Q 3081 3584 3359 3409  Q 3638 3234 3781 2919  z " transform="scale(0.015625)" />
      <path id="DejaVuSans-Bold-34" d="M 2356 3675  L 1038 1722  L 2356 1722  L 2356 3675  z M 2156 4666  L 3494 4666  L 3494 1722  L 4159 1722  L 4159 850  L 3494 850  L 3494 0  L 2356 0  L 2356 850  L 288 850  L 288 1881  L 2156 4666  z " transform="scale(0.015625)" />
     </defs>
     <use xlink:href="#DejaVuSans-Bold-58" />
     <use xlink:href="#DejaVuSans-Bold-53" transform="translate(77.099609 0)" />
     <use xlink:href="#DejaVuSans-Bold-69" transform="translate(149.121094 0)" />
     <use xlink:href="#DejaVuSans-Bold-6d" transform="translate(183.398438 0)" />
     <use xlink:href="#DejaVuSans-Bold-34" transform="translate(287.597656 0)" />
    </g>
   </g>
   <g id="text_22"><text x="345.885" y="16.305" style="fill: #1a3ea0; font-family: 'DejaVu Sans', Arial, sans-serif; font-size: 14.4px; font-weight: 700; text-anchor: middle">Frequency Response</text></g><g id="line2d_103">
    <path d="M 47.423096 283.940458 L 66.866729 260.701306 L 73.729137 253.032204 L 78.304122 248.249812 L 82.879078 243.78564 L 87.454046 239.71697 L 90.885232 236.925726 L 94.316454 234.46634 L 97.747689 232.275168 L 100.035185 231.052294 L 105.753883 228.288326 L 108.041354 226.85179 L 110.328835 225.110672 L 116.047543 220.369194 L 118.335023 218.978118 L 121.766244 217.036976 L 124.053712 215.345864 L 126.341204 213.277434 L 129.772425 209.763376 L 133.203634 205.958374 L 136.634868 201.730594 L 141.209818 195.98445 L 143.497294 193.52961 L 144.64104 192.584042 L 145.784776 191.91578 L 146.928519 191.511186 L 150.359733 190.920206 L 151.503488 190.4156 L 152.647231 189.55186 L 153.790959 188.342624 L 158.365921 182.660124 L 160.653407 180.43713 L 162.94089 178.841484 L 165.228365 177.677708 L 169.803332 175.68656 L 173.234545 174.168196 L 176.665765 172.204324 L 185.815685 166.485456 L 186.959426 165.962666 L 188.10317 165.608078 L 189.246912 165.417146 L 191.534389 165.36714 L 194.965611 165.539888 L 197.253093 165.880838 L 200.684312 166.744578 L 209.834239 169.399442 L 212.121714 169.758576 L 215.552933 170.213176 L 217.840416 170.858708 L 220.1279 171.84519 L 224.70286 173.963626 L 226.990342 174.772814 L 234.996522 177.123096 L 239.571483 179.123336 L 245.290185 180.782626 L 247.577662 181.27814 L 249.865143 181.487256 L 253.296367 181.728194 L 255.583843 182.137334 L 259.015063 182.77832 L 267.021248 183.52841 L 272.739947 183.3693 L 286.46483 183.696612 L 294.471011 184.183034 L 312.770856 185.715036 L 319.633298 186.46058 L 324.208258 186.896996 L 333.35818 187.988036 L 337.93314 188.288072 L 347.083064 188.656298 L 350.514284 188.456274 L 363.095426 187.387964 L 367.670388 187.497068 L 372.245348 187.610718 L 374.53283 187.48343 L 376.82031 187.106112 L 379.10779 186.446942 L 381.395271 185.515012 L 389.401452 181.75547 L 391.688933 181.173582 L 392.832673 181.046294 L 393.976413 181.032656 L 396.263894 181.359968 L 398.551378 182.064598 L 403.126333 183.773894 L 405.413819 184.246678 L 406.557559 184.30123 L 407.701296 184.228494 L 409.988778 183.751164 L 417.994961 181.41452 L 422.56992 180.25529 L 427.14488 179.0506 L 429.43236 178.809662 L 430.576101 178.855122 L 431.719843 179.02787 L 434.00732 179.7325 L 438.582285 181.555446 L 439.726025 181.819114 L 440.869761 181.919126 L 442.013502 181.841844 L 443.157241 181.582722 L 444.300983 181.159944 L 446.588463 179.93707 L 450.019686 177.955014 L 451.163424 177.541328 L 452.307164 177.39131 L 453.450907 177.586788 L 454.594644 178.168676 L 455.738387 179.136974 L 458.025868 181.89185 L 459.169607 183.332932 L 460.313345 184.537622 L 461.457087 185.337718 L 462.600829 185.669576 L 463.744567 185.583202 L 464.888309 185.1877 L 466.032048 184.57399 L 467.175788 183.764802 L 468.319528 182.723768 L 469.463269 181.41452 L 471.750749 178.114124 L 474.038229 174.795544 L 475.181969 173.518118 L 476.325709 172.64074 L 477.469449 172.213416 L 478.613191 172.2316 L 479.756931 172.64074 L 483.188151 174.563698 L 484.331892 174.61825 L 485.475632 174.09546 L 486.619371 173.077156 L 488.906854 170.508666 L 490.050595 169.494908 L 491.194334 168.89029 L 492.338074 168.763002 L 493.481815 169.103952 L 494.625555 169.899502 L 495.769294 171.126922 L 496.913035 172.786212 L 498.056775 174.84555 L 501.487996 182.000954 L 502.631737 183.910274 L 503.775476 185.287712 L 504.919216 186.137814 L 506.062957 186.537862 L 507.206697 186.633328 L 509.494177 186.465126 L 511.781658 186.033256 L 512.925398 185.633208 L 515.212879 184.492162 L 517.500359 183.287472 L 518.644099 182.923792 L 519.787839 182.805596 L 520.931579 182.9147 L 522.075319 183.23292 L 523.21906 183.751164 L 524.3628 184.496708 L 525.50654 185.496828 L 526.650282 186.746978 L 528.937762 189.760976 L 531.225242 192.87044 L 532.368982 194.184234 L 533.512723 195.07525 L 534.656463 195.311642 L 535.800203 194.761576 L 536.943943 193.475058 L 540.375164 188.124416 L 541.518904 186.978824 L 542.662644 186.501494 L 543.806384 186.71061 L 544.950125 187.492522 L 547.237606 189.80189 L 548.381346 190.679268 L 549.525086 190.970212 L 550.668826 190.538342 L 551.812566 189.470032 L 555.243787 185.305896 L 556.387527 184.423972 L 557.531267 184.037562 L 558.675007 184.178488 L 559.818748 184.77856 L 562.106228 186.374206 L 563.249968 186.828806 L 564.393708 186.91518 L 567.82493 186.48331 L 568.96867 186.683334 L 571.256151 187.615264 L 574.687367 189.138174 L 575.831109 189.456394 L 576.974853 189.610958 L 579.262331 189.510946 L 582.693555 189.07453 L 584.981034 188.73358 L 586.124774 188.80177 L 589.555992 189.833712 L 590.699737 189.360928 L 591.843473 188.092594 L 594.130954 184.828566 L 595.274695 183.751164 L 596.418438 182.969252 L 597.562174 181.969132 L 598.705914 180.32348 L 599.849658 177.945922 L 602.137136 171.954294 L 605.568355 162.621356 L 606.712098 159.793744 L 607.855839 157.43437 L 608.999578 155.647792 L 610.143316 154.36582 L 611.287059 153.629368 L 612.430799 153.761202 L 613.57454 155.043174 L 614.718281 157.379818 L 619.293239 169.076676 L 620.436981 171.054186 L 621.580721 172.09522 L 622.72446 172.086128 L 623.868202 171.11783 L 625.011943 169.408534 L 626.155682 167.199178 L 628.443162 161.903088 L 635.305602 144.851042 L 638.736826 137.209216 L 642.168046 130.31748 L 645.599266 124.080368 L 649.030488 118.402414 L 652.461708 113.17906 L 655.892929 108.342116 L 660.467888 102.386856 L 665.042851 96.895288 L 669.617811 91.785584 L 674.192773 86.989554 L 679.911472 81.361606 L 685.630174 76.074608 L 692.492616 70.092072 L 699.355056 64.441394 L 707.361239 58.186098 L 715.367419 52.230838 L 724.517342 45.725512 L 734.811004 38.724672 L 741.673446 34.246862 L 745.104666 32.182978 L 747.392146 31.05557 L 748.535887 30.673706 L 749.679627 30.528234 L 749.679627 30.528234" clip-path="url(#pb6d1fc8011)" style="fill: none; stroke: #1a3ea0; stroke-width: 2.3; stroke-linecap: square" />
   </g>
   <g id="legend_1">
    <g id="patch_7">
     <path d="M 532.360625 79.675  L 621.285625 79.675  Q 622.885625 79.675 622.885625 78.075  L 622.885625 31.905  Q 622.885625 30.305 621.285625 30.305  L 532.360625 30.305  Q 530.760625 30.305 530.760625 31.905  L 530.760625 78.075  Q 530.760625 79.675 532.360625 79.675  z " style="fill: #ffffff; opacity: 0.9; stroke: #cccccc; stroke-linejoin: miter" />
    </g>
    <g id="line2d_104">
     <path d="M 533.960625 36.78375  L 541.960625 36.78375  L 549.960625 36.78375  " style="fill: none; stroke: #c02020; stroke-width: 1.3; stroke-linecap: square" />
    </g>
    <g id="text_23">
     
     <g transform="translate(556.360625 39.58375) scale(0.08 -0.08)">
      <defs>
       <path id="DejaVuSans-2014" d="M 313 1978  L 6088 1978  L 6088 1528  L 313 1528  L 313 1978  z " transform="scale(0.015625)" />
       <path id="DejaVuSans-44" d="M 1259 4147  L 1259 519  L 2022 519  Q 2988 519 3436 956  Q 3884 1394 3884 2338  Q 3884 3275 3436 3711  Q 2988 4147 2022 4147  L 1259 4147  z M 628 4666  L 1925 4666  Q 3281 4666 3915 4102  Q 4550 3538 4550 2338  Q 4550 1131 3912 565  Q 3275 0 1925 0  L 628 0  L 628 4666  z " transform="scale(0.015625)" />
       <path id="DejaVuSans-43" d="M 4122 4306  L 4122 3641  Q 3803 3938 3442 4084  Q 3081 4231 2675 4231  Q 1875 4231 1450 3742  Q 1025 3253 1025 2328  Q 1025 1406 1450 917  Q 1875 428 2675 428  Q 3081 428 3442 575  Q 3803 722 4122 1019  L 4122 359  Q 3791 134 3420 21  Q 3050 -91 2638 -91  Q 1578 -91 968 557  Q 359 1206 359 2328  Q 359 3453 968 4101  Q 1578 4750 2638 4750  Q 3056 4750 3426 4639  Q 3797 4528 4122 4306  z " transform="scale(0.015625)" />
       <path id="DejaVuSans-2d" d="M 313 2009  L 1997 2009  L 1997 1497  L 313 1497  L 313 2009  z " transform="scale(0.015625)" />
       <path id="DejaVuSans-34" d="M 2419 4116  L 825 1625  L 2419 1625  L 2419 4116  z M 2253 4666  L 3047 4666  L 3047 1625  L 3713 1625  L 3713 1100  L 3047 1100  L 3047 0  L 2419 0  L 2419 1100  L 313 1100  L 313 1709  L 2253 4666  z " transform="scale(0.015625)" />
      </defs>
      <use xlink:href="#DejaVuSans-53" />
      <use xlink:href="#DejaVuSans-32" transform="translate(63.476562 0)" />
      <use xlink:href="#DejaVuSans-20" transform="translate(127.099609 0)" />
      <use xlink:href="#DejaVuSans-2014" transform="translate(158.886719 0)" />
      <use xlink:href="#DejaVuSans-20" transform="translate(258.886719 0)" />
      <use xlink:href="#DejaVuSans-44" transform="translate(290.673828 0)" />
      <use xlink:href="#DejaVuSans-43" transform="translate(367.675781 0)" />
      <use xlink:href="#DejaVuSans-53" transform="translate(437.5 0)" />
      <use xlink:href="#DejaVuSans-32" transform="translate(500.976562 0)" />
      <use xlink:href="#DejaVuSans-30" transform="translate(564.599609 0)" />
      <use xlink:href="#DejaVuSans-35" transform="translate(628.222656 0)" />
      <use xlink:href="#DejaVuSans-2d" transform="translate(691.845703 0)" />
      <use xlink:href="#DejaVuSans-34" transform="translate(727.929688 0)" />
     </g>
    </g>
    <g id="line2d_105">
     <path d="M 533.960625 48.52625  L 541.960625 48.52625  L 549.960625 48.52625  " style="fill: none; stroke: #c8a010; stroke-width: 1.3; stroke-linecap: square" />
    </g>
    <g id="text_24">
     
     <g transform="translate(556.360625 51.32625) scale(0.08 -0.08)">
      <defs>
       <path id="DejaVuSans-33" d="M 2597 2516  Q 3050 2419 3304 2112  Q 3559 1806 3559 1356  Q 3559 666 3084 287  Q 2609 -91 1734 -91  Q 1441 -91 1130 -33  Q 819 25 488 141  L 488 750  Q 750 597 1062 519  Q 1375 441 1716 441  Q 2309 441 2620 675  Q 2931 909 2931 1356  Q 2931 1769 2642 2001  Q 2353 2234 1838 2234  L 1294 2234  L 1294 2753  L 1863 2753  Q 2328 2753 2575 2939  Q 2822 3125 2822 3475  Q 2822 3834 2567 4026  Q 2313 4219 1838 4219  Q 1578 4219 1281 4162  Q 984 4106 628 3988  L 628 4550  Q 988 4650 1302 4700  Q 1616 4750 1894 4750  Q 2613 4750 3031 4423  Q 3450 4097 3450 3541  Q 3450 3153 3228 2886  Q 3006 2619 2597 2516  z " transform="scale(0.015625)" />
       <path id="DejaVuSans-52" d="M 2841 2188  Q 3044 2119 3236 1894  Q 3428 1669 3622 1275  L 4263 0  L 3584 0  L 2988 1197  Q 2756 1666 2539 1819  Q 2322 1972 1947 1972  L 1259 1972  L 1259 0  L 628 0  L 628 4666  L 2053 4666  Q 2853 4666 3247 4331  Q 3641 3997 3641 3322  Q 3641 2881 3436 2590  Q 3231 2300 2841 2188  z M 1259 4147  L 1259 2491  L 2053 2491  Q 2509 2491 2742 2702  Q 2975 2913 2975 3322  Q 2975 3731 2742 3939  Q 2509 4147 2053 4147  L 1259 4147  z " transform="scale(0.015625)" />
      </defs>
      <use xlink:href="#DejaVuSans-53" />
      <use xlink:href="#DejaVuSans-33" transform="translate(63.476562 0)" />
      <use xlink:href="#DejaVuSans-20" transform="translate(127.099609 0)" />
      <use xlink:href="#DejaVuSans-2014" transform="translate(158.886719 0)" />
      <use xlink:href="#DejaVuSans-20" transform="translate(258.886719 0)" />
      <use xlink:href="#DejaVuSans-52" transform="translate(290.673828 0)" />
      <use xlink:href="#DejaVuSans-53" transform="translate(360.15625 0)" />
      <use xlink:href="#DejaVuSans-31" transform="translate(423.632812 0)" />
      <use xlink:href="#DejaVuSans-30" transform="translate(487.255859 0)" />
      <use xlink:href="#DejaVuSans-30" transform="translate(550.878906 0)" />
      <use xlink:href="#DejaVuSans-2d" transform="translate(614.501953 0)" />
      <use xlink:href="#DejaVuSans-38" transform="translate(650.585938 0)" />
     </g>
    </g>
    <g id="line2d_106">
     <path d="M 533.960625 60.26875  L 541.960625 60.26875  L 549.960625 60.26875  " style="fill: none; stroke: #1a3ea0; stroke-width: 2.3; stroke-linecap: square" />
    </g>
    <g id="text_25">
     
     <g transform="translate(556.360625 63.06875) scale(0.08 -0.08)">
      <defs>
       <path id="DejaVuSans-73" d="M 2834 3397  L 2834 2853  Q 2591 2978 2328 3040  Q 2066 3103 1784 3103  Q 1356 3103 1142 2972  Q 928 2841 928 2578  Q 928 2378 1081 2264  Q 1234 2150 1697 2047  L 1894 2003  Q 2506 1872 2764 1633  Q 3022 1394 3022 966  Q 3022 478 2636 193  Q 2250 -91 1575 -91  Q 1294 -91 989 -36  Q 684 19 347 128  L 347 722  Q 666 556 975 473  Q 1284 391 1588 391  Q 1994 391 2212 530  Q 2431 669 2431 922  Q 2431 1156 2273 1281  Q 2116 1406 1581 1522  L 1381 1569  Q 847 1681 609 1914  Q 372 2147 372 2553  Q 372 3047 722 3315  Q 1072 3584 1716 3584  Q 2034 3584 2315 3537  Q 2597 3491 2834 3397  z " transform="scale(0.015625)" />
       <path id="DejaVuSans-28" d="M 1984 4856  Q 1566 4138 1362 3434  Q 1159 2731 1159 2009  Q 1159 1288 1364 580  Q 1569 -128 1984 -844  L 1484 -844  Q 1016 -109 783 600  Q 550 1309 550 2009  Q 550 2706 781 3412  Q 1013 4119 1484 4856  L 1984 4856  z " transform="scale(0.015625)" />
       <path id="DejaVuSans-6f" d="M 1959 3097  Q 1497 3097 1228 2736  Q 959 2375 959 1747  Q 959 1119 1226 758  Q 1494 397 1959 397  Q 2419 397 2687 759  Q 2956 1122 2956 1747  Q 2956 2369 2687 2733  Q 2419 3097 1959 3097  z M 1959 3584  Q 2709 3584 3137 3096  Q 3566 2609 3566 1747  Q 3566 888 3137 398  Q 2709 -91 1959 -91  Q 1206 -91 779 398  Q 353 888 353 1747  Q 353 2609 779 3096  Q 1206 3584 1959 3584  z " transform="scale(0.015625)" />
       <path id="DejaVuSans-6d" d="M 3328 2828  Q 3544 3216 3844 3400  Q 4144 3584 4550 3584  Q 5097 3584 5394 3201  Q 5691 2819 5691 2113  L 5691 0  L 5113 0  L 5113 2094  Q 5113 2597 4934 2840  Q 4756 3084 4391 3084  Q 3944 3084 3684 2787  Q 3425 2491 3425 1978  L 3425 0  L 2847 0  L 2847 2094  Q 2847 2600 2669 2842  Q 2491 3084 2119 3084  Q 1678 3084 1418 2786  Q 1159 2488 1159 1978  L 1159 0  L 581 0  L 581 3500  L 1159 3500  L 1159 2956  Q 1356 3278 1631 3431  Q 1906 3584 2284 3584  Q 2666 3584 2933 3390  Q 3200 3197 3328 2828  z " transform="scale(0.015625)" />
       <path id="DejaVuSans-62" d="M 3116 1747  Q 3116 2381 2855 2742  Q 2594 3103 2138 3103  Q 1681 3103 1420 2742  Q 1159 2381 1159 1747  Q 1159 1113 1420 752  Q 1681 391 2138 391  Q 2594 391 2855 752  Q 3116 1113 3116 1747  z M 1159 2969  Q 1341 3281 1617 3432  Q 1894 3584 2278 3584  Q 2916 3584 3314 3078  Q 3713 2572 3713 1747  Q 3713 922 3314 415  Q 2916 -91 2278 -91  Q 1894 -91 1617 61  Q 1341 213 1159 525  L 1159 0  L 581 0  L 581 4863  L 1159 4863  L 1159 2969  z " transform="scale(0.015625)" />
       <path id="DejaVuSans-69" d="M 603 3500  L 1178 3500  L 1178 0  L 603 0  L 603 3500  z M 603 4863  L 1178 4863  L 1178 4134  L 603 4134  L 603 4863  z " transform="scale(0.015625)" />
       <path id="DejaVuSans-29" d="M 513 4856  L 1013 4856  Q 1481 4119 1714 3412  Q 1947 2706 1947 2009  Q 1947 1309 1714 600  Q 1481 -109 1013 -844  L 513 -844  Q 928 -128 1133 580  Q 1338 1288 1338 2009  Q 1338 2731 1133 3434  Q 928 4138 513 4856  z " transform="scale(0.015625)" />
      </defs>
      <use xlink:href="#DejaVuSans-53" />
      <use xlink:href="#DejaVuSans-79" transform="translate(63.476562 0)" />
      <use xlink:href="#DejaVuSans-73" transform="translate(122.65625 0)" />
      <use xlink:href="#DejaVuSans-20" transform="translate(174.755859 0)" />
      <use xlink:href="#DejaVuSans-28" transform="translate(206.542969 0)" />
      <use xlink:href="#DejaVuSans-63" transform="translate(245.556641 0)" />
      <use xlink:href="#DejaVuSans-6f" transform="translate(300.537109 0)" />
      <use xlink:href="#DejaVuSans-6d" transform="translate(361.71875 0)" />
      <use xlink:href="#DejaVuSans-62" transform="translate(459.130859 0)" />
      <use xlink:href="#DejaVuSans-69" transform="translate(522.607422 0)" />
      <use xlink:href="#DejaVuSans-6e" transform="translate(550.390625 0)" />
      <use xlink:href="#DejaVuSans-65" transform="translate(613.769531 0)" />
      <use xlink:href="#DejaVuSans-64" transform="translate(675.292969 0)" />
      <use xlink:href="#DejaVuSans-29" transform="translate(738.769531 0)" />
     </g>
    </g>
    <g id="line2d_107">
     <path d="M 533.960625 72.01125  L 541.960625 72.01125  L 549.960625 72.01125  " style="fill: none; stroke-dasharray: 2.96,1.28; stroke-dashoffset: 0; stroke: #6670b0; stroke-opacity: 0.5; stroke-width: 0.8" />
    </g>
    <g id="text_26">
     
     <g transform="translate(556.360625 74.81125) scale(0.08 -0.08)">
      <defs>
       <path id="DejaVuSans-b0" d="M 1600 4347  Q 1350 4347 1178 4173  Q 1006 4000 1006 3750  Q 1006 3503 1178 3333  Q 1350 3163 1600 3163  Q 1850 3163 2022 3333  Q 2194 3503 2194 3750  Q 2194 3997 2020 4172  Q 1847 4347 1600 4347  z M 1600 4750  Q 1800 4750 1984 4673  Q 2169 4597 2303 4453  Q 2447 4313 2519 4134  Q 2591 3956 2591 3750  Q 2591 3338 2302 3052  Q 2013 2766 1594 2766  Q 1172 2766 890 3047  Q 609 3328 609 3750  Q 609 4169 896 4459  Q 1184 4750 1600 4750  z " transform="scale(0.015625)" />
      </defs>
      <use xlink:href="#DejaVuSans-53" />
      <use xlink:href="#DejaVuSans-79" transform="translate(63.476562 0)" />
      <use xlink:href="#DejaVuSans-73" transform="translate(122.65625 0)" />
      <use xlink:href="#DejaVuSans-b0" transform="translate(174.755859 0)" />
     </g>
    </g>
   </g>
  </g>
  <g id="axes_2">
   <g id="matplotlib.axis_3">
    <g id="ytick_14">
     <g id="line2d_108">
      <defs>
       <path id="m6dd4feb18f" d="M 0 0  L 3.5 0  " style="stroke: #333333; stroke-width: 0.8" />
      </defs>
      <g>
       <use xlink:href="#m6dd4feb18f" x="626.885625" y="299.065" style="fill: #333333; stroke: #333333; stroke-width: 0.8" />
      </g>
     </g>
     <g id="text_27">
      
      <g style="fill: #6670b0" transform="translate(633.885625 302.104375) scale(0.08 -0.08)">
       <defs>
        <path id="DejaVuSans-2212" d="M 678 2272  L 4684 2272  L 4684 1741  L 678 1741  L 678 2272  z " transform="scale(0.015625)" />
       </defs>
       <use xlink:href="#DejaVuSans-2212" />
       <use xlink:href="#DejaVuSans-31" transform="translate(83.789062 0)" />
       <use xlink:href="#DejaVuSans-38" transform="translate(147.412109 0)" />
       <use xlink:href="#DejaVuSans-30" transform="translate(211.035156 0)" />
      </g>
     </g>
    </g>
    <g id="ytick_15">
     <g id="line2d_109">
      <g>
       <use xlink:href="#m6dd4feb18f" x="626.885625" y="276.335" style="fill: #333333; stroke: #333333; stroke-width: 0.8" />
      </g>
     </g>
     <g id="text_28">
      
      <g style="fill: #6670b0" transform="translate(633.885625 279.374375) scale(0.08 -0.08)">
       <use xlink:href="#DejaVuSans-2212" />
       <use xlink:href="#DejaVuSans-31" transform="translate(83.789062 0)" />
       <use xlink:href="#DejaVuSans-35" transform="translate(147.412109 0)" />
       <use xlink:href="#DejaVuSans-30" transform="translate(211.035156 0)" />
      </g>
     </g>
    </g>
    <g id="ytick_16">
     <g id="line2d_110">
      <g>
       <use xlink:href="#m6dd4feb18f" x="626.885625" y="253.605" style="fill: #333333; stroke: #333333; stroke-width: 0.8" />
      </g>
     </g>
     <g id="text_29">
      
      <g style="fill: #6670b0" transform="translate(633.885625 256.644375) scale(0.08 -0.08)">
       <use xlink:href="#DejaVuSans-2212" />
       <use xlink:href="#DejaVuSans-31" transform="translate(83.789062 0)" />
       <use xlink:href="#DejaVuSans-32" transform="translate(147.412109 0)" />
       <use xlink:href="#DejaVuSans-30" transform="translate(211.035156 0)" />
      </g>
     </g>
    </g>
    <g id="ytick_17">
     <g id="line2d_111">
      <g>
       <use xlink:href="#m6dd4feb18f" x="626.885625" y="230.875" style="fill: #333333; stroke: #333333; stroke-width: 0.8" />
      </g>
     </g>
     <g id="text_30">
      
      <g style="fill: #6670b0" transform="translate(633.885625 233.914375) scale(0.08 -0.08)">
       <use xlink:href="#DejaVuSans-2212" />
       <use xlink:href="#DejaVuSans-39" transform="translate(83.789062 0)" />
       <use xlink:href="#DejaVuSans-30" transform="translate(147.412109 0)" />
      </g>
     </g>
    </g>
    <g id="ytick_18">
     <g id="line2d_112">
      <g>
       <use xlink:href="#m6dd4feb18f" x="626.885625" y="208.145" style="fill: #333333; stroke: #333333; stroke-width: 0.8" />
      </g>
     </g>
     <g id="text_31">
      
      <g style="fill: #6670b0" transform="translate(633.885625 211.184375) scale(0.08 -0.08)">
       <use xlink:href="#DejaVuSans-2212" />
       <use xlink:href="#DejaVuSans-36" transform="translate(83.789062 0)" />
       <use xlink:href="#DejaVuSans-30" transform="translate(147.412109 0)" />
      </g>
     </g>
    </g>
    <g id="ytick_19">
     <g id="line2d_113">
      <g>
       <use xlink:href="#m6dd4feb18f" x="626.885625" y="185.415" style="fill: #333333; stroke: #333333; stroke-width: 0.8" />
      </g>
     </g>
     <g id="text_32">
      
      <g style="fill: #6670b0" transform="translate(633.885625 188.454375) scale(0.08 -0.08)">
       <use xlink:href="#DejaVuSans-2212" />
       <use xlink:href="#DejaVuSans-33" transform="translate(83.789062 0)" />
       <use xlink:href="#DejaVuSans-30" transform="translate(147.412109 0)" />
      </g>
     </g>
    </g>
    <g id="ytick_20">
     <g id="line2d_114">
      <g>
       <use xlink:href="#m6dd4feb18f" x="626.885625" y="162.685" style="fill: #333333; stroke: #333333; stroke-width: 0.8" />
      </g>
     </g>
     <g id="text_33">
      
      <g style="fill: #6670b0" transform="translate(633.885625 165.724375) scale(0.08 -0.08)">
       <use xlink:href="#DejaVuSans-30" />
      </g>
     </g>
    </g>
    <g id="ytick_21">
     <g id="line2d_115">
      <g>
       <use xlink:href="#m6dd4feb18f" x="626.885625" y="139.955" style="fill: #333333; stroke: #333333; stroke-width: 0.8" />
      </g>
     </g>
     <g id="text_34">
      
      <g style="fill: #6670b0" transform="translate(633.885625 142.994375) scale(0.08 -0.08)">
       <use xlink:href="#DejaVuSans-33" />
       <use xlink:href="#DejaVuSans-30" transform="translate(63.623047 0)" />
      </g>
     </g>
    </g>
    <g id="ytick_22">
     <g id="line2d_116">
      <g>
       <use xlink:href="#m6dd4feb18f" x="626.885625" y="117.225" style="fill: #333333; stroke: #333333; stroke-width: 0.8" />
      </g>
     </g>
     <g id="text_35">
      
      <g style="fill: #6670b0" transform="translate(633.885625 120.264375) scale(0.08 -0.08)">
       <use xlink:href="#DejaVuSans-36" />
       <use xlink:href="#DejaVuSans-30" transform="translate(63.623047 0)" />
      </g>
     </g>
    </g>
    <g id="ytick_23">
     <g id="line2d_117">
      <g>
       <use xlink:href="#m6dd4feb18f" x="626.885625" y="94.495" style="fill: #333333; stroke: #333333; stroke-width: 0.8" />
      </g>
     </g>
     <g id="text_36">
      
      <g style="fill: #6670b0" transform="translate(633.885625 97.534375) scale(0.08 -0.08)">
       <use xlink:href="#DejaVuSans-39" />
       <use xlink:href="#DejaVuSans-30" transform="translate(63.623047 0)" />
      </g>
     </g>
    </g>
    <g id="ytick_24">
     <g id="line2d_118">
      <g>
       <use xlink:href="#m6dd4feb18f" x="626.885625" y="71.765" style="fill: #333333; stroke: #333333; stroke-width: 0.8" />
      </g>
     </g>
     <g id="text_37">
      
      <g style="fill: #6670b0" transform="translate(633.885625 74.804375) scale(0.08 -0.08)">
       <use xlink:href="#DejaVuSans-31" />
       <use xlink:href="#DejaVuSans-32" transform="translate(63.623047 0)" />
       <use xlink:href="#DejaVuSans-30" transform="translate(127.246094 0)" />
      </g>
     </g>
    </g>
    <g id="ytick_25">
     <g id="line2d_119">
      <g>
       <use xlink:href="#m6dd4feb18f" x="626.885625" y="49.035" style="fill: #333333; stroke: #333333; stroke-width: 0.8" />
      </g>
     </g>
     <g id="text_38">
      
      <g style="fill: #6670b0" transform="translate(633.885625 52.074375) scale(0.08 -0.08)">
       <use xlink:href="#DejaVuSans-31" />
       <use xlink:href="#DejaVuSans-35" transform="translate(63.623047 0)" />
       <use xlink:href="#DejaVuSans-30" transform="translate(127.246094 0)" />
      </g>
     </g>
    </g>
    <g id="ytick_26">
     <g id="line2d_120">
      <g>
       <use xlink:href="#m6dd4feb18f" x="626.885625" y="26.305" style="fill: #333333; stroke: #333333; stroke-width: 0.8" />
      </g>
     </g>
     <g id="text_39">
      
      <g style="fill: #6670b0" transform="translate(633.885625 29.344375) scale(0.08 -0.08)">
       <use xlink:href="#DejaVuSans-31" />
       <use xlink:href="#DejaVuSans-38" transform="translate(63.623047 0)" />
       <use xlink:href="#DejaVuSans-30" transform="translate(127.246094 0)" />
      </g>
     </g>
    </g>
    <g id="text_40">
     
     <g style="fill: #6670b0" transform="translate(666.697969 183.312578) rotate(-90) scale(0.09 -0.09)">
      <defs>
       <path id="DejaVuSans-68" d="M 3513 2113  L 3513 0  L 2938 0  L 2938 2094  Q 2938 2591 2744 2837  Q 2550 3084 2163 3084  Q 1697 3084 1428 2787  Q 1159 2491 1159 1978  L 1159 0  L 581 0  L 581 4863  L 1159 4863  L 1159 2956  Q 1366 3272 1645 3428  Q 1925 3584 2291 3584  Q 2894 3584 3203 3211  Q 3513 2838 3513 2113  z " transform="scale(0.015625)" />
       <path id="DejaVuSans-61" d="M 2194 1759  Q 1497 1759 1228 1600  Q 959 1441 959 1056  Q 959 750 1161 570  Q 1363 391 1709 391  Q 2188 391 2477 730  Q 2766 1069 2766 1631  L 2766 1759  L 2194 1759  z M 3341 1997  L 3341 0  L 2766 0  L 2766 531  Q 2569 213 2275 61  Q 1981 -91 1556 -91  Q 1019 -91 701 211  Q 384 513 384 1019  Q 384 1609 779 1909  Q 1175 2209 1959 2209  L 2766 2209  L 2766 2266  Q 2766 2663 2505 2880  Q 2244 3097 1772 3097  Q 1472 3097 1187 3025  Q 903 2953 641 2809  L 641 3341  Q 956 3463 1253 3523  Q 1550 3584 1831 3584  Q 2591 3584 2966 3190  Q 3341 2797 3341 1997  z " transform="scale(0.015625)" />
      </defs>
      <use xlink:href="#DejaVuSans-50" />
      <use xlink:href="#DejaVuSans-68" transform="translate(60.302734 0)" />
      <use xlink:href="#DejaVuSans-61" transform="translate(123.681641 0)" />
      <use xlink:href="#DejaVuSans-73" transform="translate(184.960938 0)" />
      <use xlink:href="#DejaVuSans-65" transform="translate(237.060547 0)" />
      <use xlink:href="#DejaVuSans-20" transform="translate(298.583984 0)" />
      <use xlink:href="#DejaVuSans-5b" transform="translate(330.371094 0)" />
      <use xlink:href="#DejaVuSans-b0" transform="translate(369.384766 0)" />
      <use xlink:href="#DejaVuSans-5d" transform="translate(419.384766 0)" />
     </g>
    </g>
   </g>
   <g id="line2d_121">
    <path d="M 47.423096 139.439787 L 56.573015 139.712547 L 71.441674 140.4096 L 78.304122 140.447483 L 84.022816 140.288373 L 87.454046 140.083803 L 94.316454 139.348867 L 97.747689 138.712427 L 101.178894 137.825957 L 110.328835 134.9544 L 112.616328 134.530107 L 114.903808 134.302807 L 119.478741 134.11339 L 126.341204 134.075507 L 142.353563 134.151273 L 145.784776 134.36342 L 149.216011 134.878633 L 151.503488 135.212007 L 157.222179 135.712067 L 159.509667 136.265163 L 161.797143 137.098597 L 164.084629 138.20479 L 166.372104 139.561013 L 169.803332 141.879473 L 173.234545 144.470693 L 176.665765 147.395287 L 180.096991 150.691137 L 186.959426 157.942007 L 189.246912 160.555957 L 191.534389 163.450243 L 194.965611 168.238697 L 199.540568 174.769783 L 201.828053 177.694377 L 204.115538 180.270443 L 207.546753 183.581447 L 210.977979 186.862143 L 215.552933 191.339953 L 217.840416 193.226543 L 223.559115 197.62101 L 225.8466 199.7349 L 230.421559 204.129367 L 232.709039 205.91746 L 237.284003 209.107237 L 239.571483 211.16809 L 243.002701 214.266947 L 246.433925 216.812707 L 251.008882 220.252513 L 253.296367 221.889073 L 259.015063 225.662253 L 263.590024 229.359667 L 267.021248 231.678127 L 270.452467 233.71625 L 273.883689 235.686183 L 280.74613 239.997307 L 287.60857 244.179627 L 295.614754 249.028693 L 300.189715 251.619913 L 304.764674 253.94595 L 308.195896 255.49159 L 315.058337 258.26465 L 318.489558 259.461763 L 323.064518 260.780103 L 326.495739 261.575653 L 329.92696 262.166633 L 334.501922 262.697 L 339.076882 263.000067 L 342.508103 262.984913 L 348.226804 262.90157 L 351.658024 263.144023 L 353.945505 263.507703 L 356.232986 264.01534 L 359.664206 265.045767 L 364.239167 266.485333 L 366.526648 267.053583 L 368.814128 267.44757 L 371.101608 267.62941 L 373.389088 267.636987 L 376.82031 267.37938 L 380.251531 267.159657 L 382.539011 267.303613 L 384.826491 267.81125 L 387.113972 268.72045 L 389.401452 270.008483 L 392.832673 272.417863 L 396.263894 274.796937 L 398.551378 275.963743 L 399.695113 276.342577 L 400.838855 276.577453 L 401.982593 276.660797 L 403.126333 276.615337 L 405.413819 276.19862 L 408.845039 275.35761 L 411.132519 275.077273 L 413.419999 275.15304 L 416.85122 275.713713 L 422.56992 276.963863 L 424.857399 277.72153 L 427.14488 278.782263 L 430.576101 280.820387 L 432.863579 282.08569 L 434.00732 282.56302 L 435.151062 282.888817 L 436.294802 283.032773 L 437.43854 282.99489 L 438.582285 282.79032 L 440.869761 282.04023 L 443.157241 281.17649 L 444.300983 280.865847 L 445.444722 280.691583 L 446.588463 280.706737 L 447.732206 280.956767 L 448.875946 281.464403 L 450.019686 282.237223 L 451.163424 283.252497 L 455.738387 287.99549 L 456.882127 288.616777 L 458.025868 288.707697 L 459.169607 288.207637 L 460.313345 287.192363 L 462.600829 284.2905 L 464.888309 281.509863 L 467.175788 279.282323 L 468.319528 278.320087 L 469.463269 277.524537 L 470.607009 277.032053 L 471.750749 276.986593 L 472.89449 277.456347 L 474.038229 278.44889 L 475.181969 279.850573 L 479.756931 286.510463 L 480.900673 287.51816 L 482.04441 287.980337 L 483.188151 287.919723 L 485.475632 287.093867 L 486.619371 287.010523 L 487.763112 287.510583 L 488.906854 288.647083 L 490.050595 290.366987 L 492.338074 294.829643 L 493.481815 297.22387 L 494.625555 26.774753 L 495.769294 28.903797 L 496.913035 30.729773 L 498.056775 32.116303 L 499.200515 32.881547 L 500.344256 32.911853 L 501.487996 32.222377 L 502.631737 30.979803 L 506.062957 26.471687 L 507.206697 298.072457 L 508.350437 297.17841 L 510.637918 295.81461 L 512.925398 294.776607 L 514.069138 294.488693 L 515.212879 294.42808 L 516.356618 294.662957 L 517.500359 295.208477 L 519.787839 296.943533 L 522.075319 298.88316 L 523.21906 27.062667 L 525.50654 28.699227 L 526.650282 29.229593 L 527.79402 29.44174 L 528.937762 29.267477 L 530.081503 28.66892 L 531.225242 27.630917 L 532.368982 298.868007 L 533.512723 296.86019 L 535.800203 292.230847 L 536.943943 290.31395 L 538.087683 289.139567 L 539.231424 288.866807 L 540.375164 289.442633 L 541.518904 290.6549 L 543.806384 293.67799 L 544.950125 294.784183 L 546.093865 295.261513 L 547.237606 295.003907 L 548.381346 294.056823 L 550.668826 291.162537 L 551.812566 290.026037 L 552.956307 289.54113 L 554.100046 289.783583 L 555.243787 290.63217 L 556.387527 291.935357 L 558.675007 294.981177 L 559.818748 296.163137 L 560.962488 296.799577 L 562.106228 296.920803 L 564.393708 296.504087 L 565.53745 296.54197 L 566.68119 296.90565 L 570.11241 298.716473 L 571.256151 26.312577 L 572.399891 26.48684 L 573.543631 26.501993 L 574.687367 26.37319 L 575.831109 298.890737 L 578.118592 298.322487 L 580.406073 298.049727 L 582.693555 298.026997 L 583.837293 298.1558 L 587.268513 298.943773 L 588.412251 298.56494 L 589.555992 297.56482 L 591.843473 294.9736 L 592.987214 294.519 L 594.130954 294.806913 L 595.274695 295.33728 L 596.418438 295.51912 L 597.562174 295.147863 L 598.705914 294.49627 L 599.849658 294.08713 L 600.993398 294.322007 L 602.137136 295.306973 L 603.280879 296.99657 L 604.424618 26.585337 L 605.568355 29.66904 L 606.712098 33.571023 L 608.999578 43.413113 L 611.287059 55.028143 L 614.718281 73.598553 L 615.862021 78.280933 L 617.005759 81.955617 L 618.149501 84.83475 L 619.293239 87.031983 L 622.72446 91.9947 L 623.868202 94.237393 L 625.011943 97.124103 L 629.586902 110.352963 L 631.874383 115.649053 L 634.161862 119.831373 L 636.449342 123.11207 L 638.736826 125.70329 L 641.024306 127.77172 L 643.311784 129.45374 L 645.599266 130.84027 L 649.030488 132.507137 L 652.461708 133.825477 L 655.892929 134.878633 L 660.467888 136.007557 L 665.042851 136.894027 L 670.761551 137.77292 L 677.623992 138.5912 L 686.773915 139.401903 L 698.211316 140.13684 L 718.798642 140.985427 L 735.954745 141.447603 L 749.679627 141.667327 L 749.679627 141.667327" clip-path="url(#pb6d1fc8011)" style="fill: none; stroke-dasharray: 2.96,1.28; stroke-dashoffset: 0; stroke: #6670b0; stroke-opacity: 0.5; stroke-width: 0.8" />
   </g>
   <g id="patch_8">
    <path d="M 46.965625 299.065  L 46.965625 26.305  " style="fill: none; stroke: #cccccc; stroke-width: 0.8; stroke-linejoin: miter; stroke-linecap: square" />
   </g>
   <g id="patch_9">
    <path d="M 626.885625 299.065  L 626.885625 26.305  " style="fill: none; stroke: #cccccc; stroke-width: 0.8; stroke-linejoin: miter; stroke-linecap: square" />
   </g>
   <g id="patch_10">
    <path d="M 46.965625 299.065  L 626.885625 299.065  " style="fill: none; stroke: #cccccc; stroke-width: 0.8; stroke-linejoin: miter; stroke-linecap: square" />
   </g>
   <g id="patch_11">
    <path d="M 46.965625 26.305  L 626.885625 26.305  " style="fill: none; stroke: #cccccc; stroke-width: 0.8; stroke-linejoin: miter; stroke-linecap: square" />
   </g>
  </g>
 </g>
 <defs>
  <clipPath id="pb6d1fc8011">
   <rect x="46.965625" y="26.305" width="579.92" height="272.76" />
  </clipPath>
 </defs>
</svg>