<svg xmlns="http://www.w3.org/2000/svg" viewBox="0 0 900 440" font-family="'Segoe UI', system-ui, sans-serif">
  <defs>
    <filter id="ds3" x="-3%" y="-3%" width="106%" height="110%">
      <feDropShadow dx="0" dy="2" stdDeviation="3" flood-color="#1F4E79" flood-opacity="0.1"/>
    </filter>
    <linearGradient id="hg4" x1="0" y1="0" x2="1" y2="0">
      <stop offset="0%" stop-color="#1F4E79"/>
      <stop offset="100%" stop-color="#2A7F62"/>
    </linearGradient>
    <marker id="arrW" markerWidth="8" markerHeight="6" refX="8" refY="3" orient="auto">
      <polygon points="0 0, 8 3, 0 6" fill="#ffffff"/>
    </marker>
    <marker id="arrN" markerWidth="8" markerHeight="6" refX="8" refY="3" orient="auto">
      <polygon points="0 0, 8 3, 0 6" fill="#1F4E79"/>
    </marker>
  </defs>

  <rect width="900" height="440" fill="#f9fafb" rx="12"/>
  <rect x="0" y="0" width="900" height="50" fill="url(#hg4)" rx="12"/>
  <rect x="0" y="25" width="900" height="25" fill="url(#hg4)"/>
  <text x="450" y="33" text-anchor="middle" fill="#ffffff" font-size="17" font-weight="700">Metadata-Driven Development Methodology</text>

  <!-- Three main swim lanes -->
  <text x="30" y="82" fill="#1F4E79" font-size="13" font-weight="700">Business Requirements</text>
  <rect x="20" y="90" width="860" height="90" rx="8" fill="#1F4E79" opacity="0.05"/>

  <text x="30" y="202" fill="#2A7F62" font-size="13" font-weight="700">Data Model Design</text>
  <rect x="20" y="210" width="860" height="90" rx="8" fill="#2A7F62" opacity="0.05"/>

  <text x="30" y="322" fill="#d4a017" font-size="13" font-weight="700">Data Integration</text>
  <rect x="20" y="330" width="860" height="90" rx="8" fill="#d4a017" opacity="0.05"/>

  <!-- Row 1: Business Requirements -->
  <g filter="url(#ds3)">
    <rect x="40" y="100" width="150" height="68" rx="8" fill="#1F4E79"/>
    <text x="115" y="130" text-anchor="middle" fill="#ffffff" font-size="11" font-weight="600">Business Scoping</text>
    <text x="115" y="148" text-anchor="middle" fill="#d1e3f3" font-size="9">&amp; Process Mapping</text>
  </g>
  <line x1="190" y1="134" x2="218" y2="134" stroke="#1F4E79" stroke-width="1.5" marker-end="url(#arrN)"/>

  <g filter="url(#ds3)">
    <rect x="222" y="100" width="150" height="68" rx="8" fill="#1F4E79"/>
    <text x="297" y="130" text-anchor="middle" fill="#ffffff" font-size="11" font-weight="600">Source Data</text>
    <text x="297" y="148" text-anchor="middle" fill="#d1e3f3" font-size="9">Analysis &amp; Profiling</text>
  </g>
  <line x1="372" y1="134" x2="400" y2="134" stroke="#1F4E79" stroke-width="1.5" marker-end="url(#arrN)"/>

  <g filter="url(#ds3)">
    <rect x="404" y="100" width="150" height="68" rx="8" fill="#1F4E79"/>
    <text x="479" y="130" text-anchor="middle" fill="#ffffff" font-size="11" font-weight="600">Metadata</text>
    <text x="479" y="148" text-anchor="middle" fill="#d1e3f3" font-size="9">Enrichment</text>
  </g>

  <!-- Curved arrow down to row 2 -->
  <path d="M554,140 C590,140 590,250 556,250" stroke="#1F4E79" stroke-width="1.5" fill="none" marker-end="url(#arrN)" stroke-dasharray="4,3"/>

  <!-- Row 2: Data Model Design (right to left) -->
  <g filter="url(#ds3)">
    <rect x="404" y="220" width="150" height="68" rx="8" fill="#2A7F62"/>
    <text x="479" y="250" text-anchor="middle" fill="#ffffff" font-size="11" font-weight="600">Domain Structure</text>
    <text x="479" y="268" text-anchor="middle" fill="#c8e6dc" font-size="9">Design</text>
  </g>
  <line x1="404" y1="254" x2="374" y2="254" stroke="#2A7F62" stroke-width="1.5" marker-end="url(#arrN)"/>

  <g filter="url(#ds3)">
    <rect x="222" y="220" width="150" height="68" rx="8" fill="#2A7F62"/>
    <text x="297" y="250" text-anchor="middle" fill="#ffffff" font-size="11" font-weight="600">Aggregate</text>
    <text x="297" y="268" text-anchor="middle" fill="#c8e6dc" font-size="9">&amp; Standardization</text>
  </g>
  <line x1="222" y1="254" x2="192" y2="254" stroke="#2A7F62" stroke-width="1.5" marker-end="url(#arrN)"/>

  <g filter="url(#ds3)">
    <rect x="40" y="220" width="150" height="68" rx="8" fill="#2A7F62"/>
    <text x="115" y="250" text-anchor="middle" fill="#ffffff" font-size="11" font-weight="600">Consumption</text>
    <text x="115" y="268" text-anchor="middle" fill="#c8e6dc" font-size="9">Data Model</text>
  </g>

  <!-- Curved arrow down to row 3 -->
  <path d="M40,260 C10,260 10,370 38,370" stroke="#2A7F62" stroke-width="1.5" fill="none" marker-end="url(#arrN)" stroke-dasharray="4,3"/>

  <!-- Row 3: Data Integration (left to right) -->
  <g filter="url(#ds3)">
    <rect x="40" y="340" width="150" height="68" rx="8" fill="#d4a017"/>
    <text x="115" y="370" text-anchor="middle" fill="#ffffff" font-size="11" font-weight="600">SDW Ingestion</text>
    <text x="115" y="388" text-anchor="middle" fill="#fef3c7" font-size="9">&amp; Warehouse Build</text>
  </g>
  <line x1="190" y1="374" x2="218" y2="374" stroke="#d4a017" stroke-width="1.5" marker-end="url(#arrN)"/>

  <g filter="url(#ds3)">
    <rect x="222" y="340" width="150" height="68" rx="8" fill="#d4a017"/>
    <text x="297" y="370" text-anchor="middle" fill="#ffffff" font-size="11" font-weight="600">Validation</text>
    <text x="297" y="388" text-anchor="middle" fill="#fef3c7" font-size="9">&amp; Transformation</text>
  </g>
  <line x1="372" y1="374" x2="400" y2="374" stroke="#d4a017" stroke-width="1.5" marker-end="url(#arrN)"/>

  <g filter="url(#ds3)">
    <rect x="404" y="340" width="150" height="68" rx="8" fill="#d4a017"/>
    <text x="479" y="370" text-anchor="middle" fill="#ffffff" font-size="11" font-weight="600">Domain Build</text>
    <text x="479" y="388" text-anchor="middle" fill="#fef3c7" font-size="9">&amp; Semantic Layer</text>
  </g>

  <!-- Incremental delivery callouts on right -->
  <g transform="translate(610, 100)">
    <rect x="0" y="0" width="260" height="60" rx="8" fill="#ffffff" stroke="#1F4E79" stroke-width="1.5" stroke-dasharray="4,3"/>
    <circle cx="20" cy="30" r="12" fill="#1F4E79"/>
    <text x="20" y="35" text-anchor="middle" fill="#ffffff" font-size="11" font-weight="700">1</text>
    <text x="40" y="24" fill="#2C3E50" font-size="10.5" font-weight="600">Incremental Deliverable #1</text>
    <text x="40" y="42" fill="#64748b" font-size="9.5">Imported source structures</text>
  </g>

  <g transform="translate(610, 220)">
    <rect x="0" y="0" width="260" height="60" rx="8" fill="#ffffff" stroke="#2A7F62" stroke-width="1.5" stroke-dasharray="4,3"/>
    <circle cx="20" cy="30" r="12" fill="#2A7F62"/>
    <text x="20" y="35" text-anchor="middle" fill="#ffffff" font-size="11" font-weight="700">2</text>
    <text x="40" y="24" fill="#2C3E50" font-size="10.5" font-weight="600">Incremental Deliverable #2</text>
    <text x="40" y="42" fill="#64748b" font-size="9.5">Integrated domain structures</text>
  </g>

  <g transform="translate(610, 340)">
    <rect x="0" y="0" width="260" height="60" rx="8" fill="#ffffff" stroke="#d4a017" stroke-width="1.5" stroke-dasharray="4,3"/>
    <circle cx="20" cy="30" r="12" fill="#d4a017"/>
    <text x="20" y="35" text-anchor="middle" fill="#ffffff" font-size="11" font-weight="700">3</text>
    <text x="40" y="24" fill="#2C3E50" font-size="10.5" font-weight="600">Incremental Deliverable #3</text>
    <text x="40" y="42" fill="#64748b" font-size="9.5">Consumption-optimized targets</text>
  </g>
</svg>
