<svg xmlns="http://www.w3.org/2000/svg" viewBox="0 0 1100 620" font-family="'Segoe UI', system-ui, -apple-system, sans-serif">
  <defs>
    <linearGradient id="headerGrad" x1="0%" y1="0%" x2="100%" y2="0%">
      <stop offset="0%" style="stop-color:#1F4E79;stop-opacity:1" />
      <stop offset="100%" style="stop-color:#2A7F62;stop-opacity:1" />
    </linearGradient>
    <linearGradient id="madCore" x1="0%" y1="0%" x2="0%" y2="100%">
      <stop offset="0%" style="stop-color:#1F4E79;stop-opacity:1" />
      <stop offset="100%" style="stop-color:#163a5c;stop-opacity:1" />
    </linearGradient>
    <filter id="shadow" x="-4%" y="-4%" width="108%" height="112%">
      <feDropShadow dx="0" dy="2" stdDeviation="4" flood-color="#2C3E50" flood-opacity="0.12"/>
    </filter>
    <filter id="shadowSm" x="-4%" y="-4%" width="108%" height="112%">
      <feDropShadow dx="0" dy="1" stdDeviation="2" flood-color="#2C3E50" flood-opacity="0.10"/>
    </filter>
  </defs>

  <!-- Background -->
  <rect width="1100" height="620" fill="#f9fafb" rx="8"/>

  <!-- Title -->
  <text x="550" y="38" text-anchor="middle" font-size="17" font-weight="700" fill="#1F4E79" letter-spacing="0.5">Marketing Analytical Database — Concept Overview</text>
  <line x1="380" y1="48" x2="720" y2="48" stroke="#2A7F62" stroke-width="2" opacity="0.5"/>

  <!-- Source domains (left column) -->
  <text x="100" y="82" text-anchor="middle" font-size="12" font-weight="600" fill="#2C3E50" letter-spacing="0.8" text-transform="uppercase">SOURCE DOMAINS</text>

  <rect x="20" y="96" width="160" height="36" rx="6" fill="#ffffff" stroke="#1F4E79" stroke-width="1.2" filter="url(#shadowSm)"/>
  <text x="100" y="119" text-anchor="middle" font-size="11.5" fill="#2C3E50">CRM / Customer Master</text>

  <rect x="20" y="142" width="160" height="36" rx="6" fill="#ffffff" stroke="#1F4E79" stroke-width="1.2" filter="url(#shadowSm)"/>
  <text x="100" y="165" text-anchor="middle" font-size="11.5" fill="#2C3E50">Transactional Systems</text>

  <rect x="20" y="188" width="160" height="36" rx="6" fill="#ffffff" stroke="#1F4E79" stroke-width="1.2" filter="url(#shadowSm)"/>
  <text x="100" y="211" text-anchor="middle" font-size="11.5" fill="#2C3E50">Campaign Platforms</text>

  <rect x="20" y="234" width="160" height="36" rx="6" fill="#ffffff" stroke="#1F4E79" stroke-width="1.2" filter="url(#shadowSm)"/>
  <text x="100" y="257" text-anchor="middle" font-size="11.5" fill="#2C3E50">Digital / Web / App</text>

  <rect x="20" y="280" width="160" height="36" rx="6" fill="#ffffff" stroke="#1F4E79" stroke-width="1.2" filter="url(#shadowSm)"/>
  <text x="100" y="303" text-anchor="middle" font-size="11.5" fill="#2C3E50">Credit Bureau / Risk</text>

  <rect x="20" y="326" width="160" height="36" rx="6" fill="#ffffff" stroke="#1F4E79" stroke-width="1.2" filter="url(#shadowSm)"/>
  <text x="100" y="349" text-anchor="middle" font-size="11.5" fill="#2C3E50">3rd Party / DMP</text>

  <!-- Arrows from source to MAD -->
  <path d="M180,200 L250,200" stroke="#1F4E79" stroke-width="1.5" fill="none" marker-end="url(#arrowBlue)"/>
  <path d="M180,260 L250,260" stroke="#1F4E79" stroke-width="1.5" fill="none"/>
  <path d="M180,140 L250,140" stroke="#1F4E79" stroke-width="1.5" fill="none"/>

  <defs>
    <marker id="arrowBlue" markerWidth="8" markerHeight="6" refX="8" refY="3" orient="auto">
      <polygon points="0 0, 8 3, 0 6" fill="#1F4E79"/>
    </marker>
    <marker id="arrowTeal" markerWidth="8" markerHeight="6" refX="8" refY="3" orient="auto">
      <polygon points="0 0, 8 3, 0 6" fill="#2A7F62"/>
    </marker>
    <marker id="arrowGray" markerWidth="8" markerHeight="6" refX="8" refY="3" orient="auto">
      <polygon points="0 0, 8 3, 0 6" fill="#7f8c8d"/>
    </marker>
  </defs>

  <!-- Ingestion zone -->
  <rect x="240" y="88" width="80" height="290" rx="6" fill="#e8f0f8" stroke="#1F4E79" stroke-width="1" stroke-dasharray="4,3" opacity="0.7"/>
  <text x="280" y="108" text-anchor="middle" font-size="9.5" font-weight="600" fill="#1F4E79">INGEST</text>
  <text x="280" y="140" text-anchor="middle" font-size="9" fill="#2C3E50">ELT /</text>
  <text x="280" y="153" text-anchor="middle" font-size="9" fill="#2C3E50">Streaming</text>
  <text x="280" y="200" text-anchor="middle" font-size="9" fill="#2C3E50">CDC /</text>
  <text x="280" y="213" text-anchor="middle" font-size="9" fill="#2C3E50">Batch</text>
  <text x="280" y="260" text-anchor="middle" font-size="9" fill="#2C3E50">API /</text>
  <text x="280" y="273" text-anchor="middle" font-size="9" fill="#2C3E50">Events</text>

  <!-- Central MAD cylinder -->
  <g filter="url(#shadow)">
    <rect x="350" y="92" width="360" height="320" rx="12" fill="url(#madCore)"/>
    <!-- Inner glow line -->
    <rect x="354" y="96" width="352" height="1" rx="0.5" fill="#ffffff" opacity="0.15"/>
  </g>

  <text x="530" y="120" text-anchor="middle" font-size="15" font-weight="700" fill="#ffffff" letter-spacing="1">MARKETING ANALYTICAL DATABASE</text>
  <text x="530" y="138" text-anchor="middle" font-size="10" fill="#a8c8e8" letter-spacing="0.5">Cloud Data Warehouse  •  Identity-Linked  •  Governed</text>

  <!-- Four internal pillars -->
  <!-- Pillar 1: Identity -->
  <rect x="370" y="158" width="155" height="68" rx="6" fill="#ffffff" opacity="0.12"/>
  <rect x="372" y="160" width="151" height="64" rx="5" fill="none" stroke="#ffffff" stroke-width="0.8" opacity="0.3"/>
  <text x="447" y="180" text-anchor="middle" font-size="11" font-weight="600" fill="#ffffff">🔗  Identity Layer</text>
  <text x="447" y="196" text-anchor="middle" font-size="9" fill="#a8c8e8">Party / Consumer / Prospect</text>
  <text x="447" y="210" text-anchor="middle" font-size="9" fill="#a8c8e8">Cross-entity resolution</text>

  <!-- Pillar 2: Curated Models -->
  <rect x="540" y="158" width="155" height="68" rx="6" fill="#ffffff" opacity="0.12"/>
  <rect x="542" y="160" width="151" height="64" rx="5" fill="none" stroke="#ffffff" stroke-width="0.8" opacity="0.3"/>
  <text x="617" y="180" text-anchor="middle" font-size="11" font-weight="600" fill="#ffffff">📊  Curated Models</text>
  <text x="617" y="196" text-anchor="middle" font-size="9" fill="#a8c8e8">Account, Product, Campaign</text>
  <text x="617" y="210" text-anchor="middle" font-size="9" fill="#a8c8e8">Scores, Preferences, Events</text>

  <!-- Pillar 3: Analytics Ready -->
  <rect x="370" y="238" width="155" height="68" rx="6" fill="#ffffff" opacity="0.12"/>
  <rect x="372" y="240" width="151" height="64" rx="5" fill="none" stroke="#ffffff" stroke-width="0.8" opacity="0.3"/>
  <text x="447" y="260" text-anchor="middle" font-size="11" font-weight="600" fill="#ffffff">📈  Analytics-Ready</text>
  <text x="447" y="276" text-anchor="middle" font-size="9" fill="#a8c8e8">BI, Reporting, Ad-hoc</text>
  <text x="447" y="290" text-anchor="middle" font-size="9" fill="#a8c8e8">Attribution, Measurement</text>

  <!-- Pillar 4: Activation Ready -->
  <rect x="540" y="238" width="155" height="68" rx="6" fill="#ffffff" opacity="0.12"/>
  <rect x="542" y="240" width="151" height="64" rx="5" fill="none" stroke="#ffffff" stroke-width="0.8" opacity="0.3"/>
  <text x="617" y="260" text-anchor="middle" font-size="11" font-weight="600" fill="#ffffff">🚀  Activation-Ready</text>
  <text x="617" y="276" text-anchor="middle" font-size="9" fill="#a8c8e8">Segments, Lists, Audiences</text>
  <text x="617" y="290" text-anchor="middle" font-size="9" fill="#a8c8e8">CDP / Orchestration feeds</text>

  <!-- Governance bar at bottom of MAD -->
  <rect x="370" y="320" width="325" height="36" rx="6" fill="#2A7F62" opacity="0.7"/>
  <text x="532" y="343" text-anchor="middle" font-size="10.5" font-weight="600" fill="#ffffff">Governance  •  Consent  •  PII Controls  •  Lineage  •  Auditability</text>

  <!-- Feedback loop arrow (bottom) -->
  <rect x="370" y="370" width="325" height="28" rx="6" fill="#ffffff" opacity="0.12"/>
  <text x="532" y="389" text-anchor="middle" font-size="9.5" fill="#a8c8e8">⟲  Closed-Loop: Responses, Conversions, Attribution flow back</text>

  <!-- Right side — Consumers -->
  <!-- Arrow out -->
  <path d="M710,200 L770,200" stroke="#ffffff" stroke-width="1.5" fill="none" marker-end="url(#arrowTeal)"/>
  <path d="M710,280 L770,280" stroke="#ffffff" stroke-width="1.5" fill="none" marker-end="url(#arrowTeal)"/>

  <text x="940" y="82" text-anchor="middle" font-size="12" font-weight="600" fill="#2C3E50" letter-spacing="0.8">CONSUMERS</text>

  <rect x="780" y="96" width="160" height="36" rx="6" fill="#ffffff" stroke="#2A7F62" stroke-width="1.2" filter="url(#shadowSm)"/>
  <text x="860" y="119" text-anchor="middle" font-size="11.5" fill="#2C3E50">BI / Reporting</text>

  <rect x="780" y="142" width="160" height="36" rx="6" fill="#ffffff" stroke="#2A7F62" stroke-width="1.2" filter="url(#shadowSm)"/>
  <text x="860" y="165" text-anchor="middle" font-size="11.5" fill="#2C3E50">Data Science / ML</text>

  <rect x="780" y="188" width="160" height="36" rx="6" fill="#ffffff" stroke="#2A7F62" stroke-width="1.2" filter="url(#shadowSm)"/>
  <text x="860" y="211" text-anchor="middle" font-size="11.5" fill="#2C3E50">CDP / Personalization</text>

  <rect x="780" y="234" width="160" height="36" rx="6" fill="#ffffff" stroke="#2A7F62" stroke-width="1.2" filter="url(#shadowSm)"/>
  <text x="860" y="257" text-anchor="middle" font-size="11.5" fill="#2C3E50">Campaign Orchestration</text>

  <rect x="780" y="280" width="160" height="36" rx="6" fill="#ffffff" stroke="#2A7F62" stroke-width="1.2" filter="url(#shadowSm)"/>
  <text x="860" y="303" text-anchor="middle" font-size="11.5" fill="#2C3E50">DMP / Onboarding</text>

  <rect x="780" y="326" width="160" height="36" rx="6" fill="#ffffff" stroke="#2A7F62" stroke-width="1.2" filter="url(#shadowSm)"/>
  <text x="860" y="349" text-anchor="middle" font-size="11.5" fill="#2C3E50">Ad Platforms / Media</text>

  <!-- NOT box at bottom -->
  <rect x="80" y="440" width="940" height="160" rx="8" fill="#ffffff" stroke="#e0e4e8" stroke-width="1" filter="url(#shadow)"/>
  <rect x="80" y="440" width="940" height="4" rx="2" fill="#1F4E79"/>

  <text x="550" y="472" text-anchor="middle" font-size="13" font-weight="700" fill="#1F4E79">What MAD is NOT</text>

  <g transform="translate(120, 490)">
    <circle cx="8" cy="8" r="8" fill="#fee2e2"/>
    <text x="8" y="12" text-anchor="middle" font-size="10" fill="#dc2626">✕</text>
    <text x="24" y="12" font-size="11" fill="#2C3E50">Not a CDP — MAD is the <tspan font-weight="600">analytical backbone</tspan>, not a real-time activation engine</text>
  </g>
  <g transform="translate(120, 516)">
    <circle cx="8" cy="8" r="8" fill="#fee2e2"/>
    <text x="8" y="12" text-anchor="middle" font-size="10" fill="#dc2626">✕</text>
    <text x="24" y="12" font-size="11" fill="#2C3E50">Not a data lake — MAD is <tspan font-weight="600">curated and modeled</tspan>, not a raw storage dump</text>
  </g>
  <g transform="translate(120, 542)">
    <circle cx="8" cy="8" r="8" fill="#fee2e2"/>
    <text x="8" y="12" text-anchor="middle" font-size="10" fill="#dc2626">✕</text>
    <text x="24" y="12" font-size="11" fill="#2C3E50">Not an operational database — MAD is optimized for <tspan font-weight="600">analytics and decision support</tspan>, not OLTP transactions</text>
  </g>
  <g transform="translate(120, 568)">
    <circle cx="8" cy="8" r="8" fill="#fee2e2"/>
    <text x="8" y="12" text-anchor="middle" font-size="10" fill="#dc2626">✕</text>
    <text x="24" y="12" font-size="11" fill="#2C3E50">Not a one-time project — MAD is a <tspan font-weight="600">living platform</tspan> that evolves with your marketing data needs</text>
  </g>
</svg>