<svg xmlns="http://www.w3.org/2000/svg" viewBox="0 0 900 520" font-family="'Segoe UI', system-ui, sans-serif">
  <defs>
    <linearGradient id="headerGrad" x1="0" y1="0" x2="1" y2="0">
      <stop offset="0%" stop-color="#1F4E79"/>
      <stop offset="100%" stop-color="#2A7F62"/>
    </linearGradient>
    <linearGradient id="layerGrad1" x1="0" y1="0" x2="0" y2="1">
      <stop offset="0%" stop-color="#1F4E79" stop-opacity="0.08"/>
      <stop offset="100%" stop-color="#1F4E79" stop-opacity="0.03"/>
    </linearGradient>
    <filter id="shadow" x="-2%" y="-2%" width="104%" height="108%">
      <feDropShadow dx="0" dy="2" stdDeviation="3" flood-color="#1F4E79" flood-opacity="0.12"/>
    </filter>
  </defs>

  <!-- Background -->
  <rect width="900" height="520" fill="#f9fafb" rx="12"/>

  <!-- Title -->
  <text x="450" y="36" text-anchor="middle" font-size="18" font-weight="700" fill="#1F4E79">Homeserver Architecture Overview</text>

  <!-- Layer 1: Hardware -->
  <rect x="30" y="56" width="840" height="80" rx="8" fill="#1F4E79" opacity="0.06" stroke="#1F4E79" stroke-width="1" stroke-opacity="0.2"/>
  <text x="50" y="78" font-size="11" font-weight="700" fill="#1F4E79" text-transform="uppercase" letter-spacing="1.5">Hardware Layer</text>

  <rect x="50" y="88" width="120" height="38" rx="6" fill="#fff" filter="url(#shadow)"/>
  <text x="110" y="111" text-anchor="middle" font-size="11" fill="#2C3E50" font-weight="600">Intel i3-12100T</text>

  <rect x="185" y="88" width="100" height="38" rx="6" fill="#fff" filter="url(#shadow)"/>
  <text x="235" y="111" text-anchor="middle" font-size="11" fill="#2C3E50" font-weight="600">32 GB DDR4</text>

  <rect x="300" y="88" width="130" height="38" rx="6" fill="#fff" filter="url(#shadow)"/>
  <text x="365" y="111" text-anchor="middle" font-size="11" fill="#2C3E50" font-weight="600">Nvidia GPU</text>

  <rect x="445" y="88" width="170" height="38" rx="6" fill="#fff" filter="url(#shadow)"/>
  <text x="530" y="111" text-anchor="middle" font-size="11" fill="#2C3E50" font-weight="600">HDD Array + NVMe Cache</text>

  <rect x="630" y="88" width="110" height="38" rx="6" fill="#fff" filter="url(#shadow)"/>
  <text x="685" y="111" text-anchor="middle" font-size="11" fill="#2C3E50" font-weight="600">UPS + Monitoring</text>

  <rect x="755" y="88" width="100" height="38" rx="6" fill="#fff" filter="url(#shadow)"/>
  <text x="805" y="111" text-anchor="middle" font-size="11" fill="#2C3E50" font-weight="600">2.5 GbE NIC</text>

  <!-- Layer 2: Unraid OS -->
  <rect x="30" y="150" width="840" height="60" rx="8" fill="#2A7F62" opacity="0.08" stroke="#2A7F62" stroke-width="1" stroke-opacity="0.25"/>
  <text x="50" y="172" font-size="11" font-weight="700" fill="#2A7F62" letter-spacing="1.5">UNRAID OS</text>
  <text x="160" y="172" font-size="10.5" fill="#2C3E50">Parity Array · SSD Cache Pool · User Shares · Docker Engine · KVM Hypervisor · Community Apps Plugin</text>
  <text x="160" y="192" font-size="10.5" fill="#2C3E50">USB Boot Drive · WireGuard VPN · Built-in Firewall · NVIDIA Driver Plugin · Disk Health Monitoring</text>

  <!-- Layer 3: Docker Containers -->
  <rect x="30" y="224" width="540" height="280" rx="8" fill="#1F4E79" opacity="0.05" stroke="#1F4E79" stroke-width="1" stroke-opacity="0.15"/>
  <text x="50" y="248" font-size="11" font-weight="700" fill="#1F4E79" letter-spacing="1.5">DOCKER CONTAINERS</text>

  <!-- Media Stack -->
  <text x="50" y="272" font-size="10" font-weight="600" fill="#2A7F62">Media</text>
  <rect x="50" y="280" width="72" height="28" rx="5" fill="#1F4E79"/>
  <text x="86" y="298" text-anchor="middle" font-size="9.5" fill="#fff" font-weight="500">Plex</text>
  <rect x="128" y="280" width="72" height="28" rx="5" fill="#1F4E79"/>
  <text x="164" y="298" text-anchor="middle" font-size="9.5" fill="#fff" font-weight="500">Jellyfin</text>
  <rect x="206" y="280" width="72" height="28" rx="5" fill="#1F4E79"/>
  <text x="242" y="298" text-anchor="middle" font-size="9.5" fill="#fff" font-weight="500">Kometa</text>
  <rect x="284" y="280" width="72" height="28" rx="5" fill="#1F4E79"/>
  <text x="320" y="298" text-anchor="middle" font-size="9.5" fill="#fff" font-weight="500">Xsteve</text>

  <!-- ARR Stack -->
  <text x="50" y="326" font-size="10" font-weight="600" fill="#2A7F62">ARR Stack</text>
  <rect x="50" y="334" width="72" height="28" rx="5" fill="#1F4E79" opacity="0.8"/>
  <text x="86" y="352" text-anchor="middle" font-size="9.5" fill="#fff" font-weight="500">Radarr</text>
  <rect x="128" y="334" width="72" height="28" rx="5" fill="#1F4E79" opacity="0.8"/>
  <text x="164" y="352" text-anchor="middle" font-size="9.5" fill="#fff" font-weight="500">Sonarr</text>
  <rect x="206" y="334" width="85" height="28" rx="5" fill="#1F4E79" opacity="0.8"/>
  <text x="248" y="352" text-anchor="middle" font-size="9.5" fill="#fff" font-weight="500">DelugeVPN</text>
  <rect x="297" y="334" width="85" height="28" rx="5" fill="#1F4E79" opacity="0.8"/>
  <text x="339" y="352" text-anchor="middle" font-size="9.5" fill="#fff" font-weight="500">qBittorrent</text>

  <!-- Cloud / Files -->
  <text x="50" y="380" font-size="10" font-weight="600" fill="#2A7F62">Cloud &amp; Files</text>
  <rect x="50" y="388" width="82" height="28" rx="5" fill="#2A7F62"/>
  <text x="91" y="406" text-anchor="middle" font-size="9.5" fill="#fff" font-weight="500">Nextcloud</text>
  <rect x="138" y="388" width="72" height="28" rx="5" fill="#2A7F62"/>
  <text x="174" y="406" text-anchor="middle" font-size="9.5" fill="#fff" font-weight="500">Immich</text>
  <rect x="216" y="388" width="72" height="28" rx="5" fill="#2A7F62"/>
  <text x="252" y="406" text-anchor="middle" font-size="9.5" fill="#fff" font-weight="500">MariaDB</text>
  <rect x="294" y="388" width="72" height="28" rx="5" fill="#2A7F62"/>
  <text x="330" y="406" text-anchor="middle" font-size="9.5" fill="#fff" font-weight="500">Postgres</text>

  <!-- Networking & Security -->
  <text x="50" y="434" font-size="10" font-weight="600" fill="#2A7F62">Network &amp; Security</text>
  <rect x="50" y="442" width="60" height="28" rx="5" fill="#2C3E50"/>
  <text x="80" y="460" text-anchor="middle" font-size="8.5" fill="#fff" font-weight="500">NPM</text>
  <rect x="116" y="442" width="66" height="28" rx="5" fill="#2C3E50"/>
  <text x="149" y="460" text-anchor="middle" font-size="8.5" fill="#fff" font-weight="500">Authentik</text>
  <rect x="188" y="442" width="74" height="28" rx="5" fill="#2C3E50"/>
  <text x="225" y="460" text-anchor="middle" font-size="8.5" fill="#fff" font-weight="500">Cloudflared</text>
  <rect x="268" y="442" width="56" height="28" rx="5" fill="#2C3E50"/>
  <text x="296" y="460" text-anchor="middle" font-size="8.5" fill="#fff" font-weight="500">Pi-hole</text>
  <rect x="330" y="442" width="56" height="28" rx="5" fill="#2C3E50"/>
  <text x="358" y="460" text-anchor="middle" font-size="8.5" fill="#fff" font-weight="500">Redis</text>

  <!-- Infra & Monitoring -->
  <text x="400" y="272" font-size="10" font-weight="600" fill="#2A7F62">Monitoring &amp; Infra</text>
  <rect x="400" y="280" width="72" height="28" rx="5" fill="#2C3E50" opacity="0.75"/>
  <text x="436" y="298" text-anchor="middle" font-size="9.5" fill="#fff" font-weight="500">Grafana</text>
  <rect x="478" y="280" width="72" height="28" rx="5" fill="#2C3E50" opacity="0.75"/>
  <text x="514" y="298" text-anchor="middle" font-size="9.5" fill="#fff" font-weight="500">InfluxDB</text>

  <rect x="400" y="334" width="72" height="28" rx="5" fill="#2C3E50" opacity="0.75"/>
  <text x="436" y="352" text-anchor="middle" font-size="9.5" fill="#fff" font-weight="500">Nginx</text>
  <rect x="478" y="334" width="72" height="28" rx="5" fill="#2C3E50" opacity="0.75"/>
  <text x="514" y="352" text-anchor="middle" font-size="9.5" fill="#fff" font-weight="500">Shinobi</text>

  <rect x="400" y="388" width="72" height="28" rx="5" fill="#2C3E50" opacity="0.75"/>
  <text x="436" y="406" text-anchor="middle" font-size="9.5" fill="#fff" font-weight="500">Duplicati</text>
  <rect x="478" y="388" width="82" height="28" rx="5" fill="#2C3E50" opacity="0.75"/>
  <text x="519" y="406" text-anchor="middle" font-size="9.5" fill="#fff" font-weight="500">Telegram Bot</text>

  <!-- Layer 4: VMs -->
  <rect x="590" y="224" width="280" height="280" rx="8" fill="#2A7F62" opacity="0.06" stroke="#2A7F62" stroke-width="1" stroke-opacity="0.2"/>
  <text x="610" y="248" font-size="11" font-weight="700" fill="#2A7F62" letter-spacing="1.5">VIRTUAL MACHINES</text>

  <rect x="610" y="268" width="240" height="56" rx="6" fill="#fff" filter="url(#shadow)"/>
  <text x="620" y="288" font-size="11" fill="#1F4E79" font-weight="600">Ubuntu Server VM</text>
  <text x="620" y="312" font-size="9.5" fill="#6B7280">Moodle LMS · BigBlueButton · Apache</text>

  <rect x="610" y="336" width="240" height="56" rx="6" fill="#fff" filter="url(#shadow)"/>
  <text x="620" y="356" font-size="11" fill="#1F4E79" font-weight="600">Home Assistant VM</text>
  <text x="620" y="380" font-size="9.5" fill="#6B7280">IoT · Ecobee · Smart Home Automation</text>

  <rect x="610" y="404" width="240" height="56" rx="6" fill="#fff" filter="url(#shadow)"/>
  <text x="620" y="424" font-size="11" fill="#1F4E79" font-weight="600">Windows VM (Passthrough)</text>
  <text x="620" y="448" font-size="9.5" fill="#6B7280">GPU Passthrough · Dual-Boot Capable</text>

  <rect x="610" y="472" width="240" height="24" rx="6" fill="#f3f4f6" stroke="#d1d5db" stroke-width="0.5"/>
  <text x="730" y="489" text-anchor="middle" font-size="9.5" fill="#6B7280">+ Additional dev/test VMs</text>
</svg>