<svg xmlns="http://www.w3.org/2000/svg" viewBox="0 0 900 480" font-family="'Segoe UI', system-ui, sans-serif">
  <defs>
    <filter id="s3" x="-4%" y="-4%" width="108%" height="116%">
      <feDropShadow dx="0" dy="2" stdDeviation="3" flood-color="#1F4E79" flood-opacity="0.12"/>
    </filter>
  </defs>

  <rect width="900" height="480" fill="#f9fafb" rx="8"/>
  <text x="450" y="32" text-anchor="middle" font-size="16" font-weight="700" fill="#1F4E79">MarTech Ecosystem Integration</text>
  <text x="450" y="50" text-anchor="middle" font-size="11" fill="#94A3B8" font-style="italic">Where ML-driven personalization fits in a modern marketing technology stack</text>

  <!-- Layer 1: Data Sources -->
  <rect x="20" y="70" width="860" height="70" rx="8" fill="#F1F5F9" stroke="#CBD5E1" stroke-width="1"/>
  <text x="450" y="90" text-anchor="middle" font-size="12" font-weight="700" fill="#64748B">DATA SOURCES</text>
  <rect x="40" y="100" width="110" height="28" rx="6" fill="white" stroke="#CBD5E1" stroke-width="1"/><text x="95" y="119" text-anchor="middle" font-size="9" fill="#2C3E50">Core Banking</text>
  <rect x="160" y="100" width="110" height="28" rx="6" fill="white" stroke="#CBD5E1" stroke-width="1"/><text x="215" y="119" text-anchor="middle" font-size="9" fill="#2C3E50">Transaction DB</text>
  <rect x="280" y="100" width="110" height="28" rx="6" fill="white" stroke="#CBD5E1" stroke-width="1"/><text x="335" y="119" text-anchor="middle" font-size="9" fill="#2C3E50">Clickstream</text>
  <rect x="400" y="100" width="110" height="28" rx="6" fill="white" stroke="#CBD5E1" stroke-width="1"/><text x="455" y="119" text-anchor="middle" font-size="9" fill="#2C3E50">Credit Bureau</text>
  <rect x="520" y="100" width="110" height="28" rx="6" fill="white" stroke="#CBD5E1" stroke-width="1"/><text x="575" y="119" text-anchor="middle" font-size="9" fill="#2C3E50">CRM / Campaign</text>
  <rect x="640" y="100" width="110" height="28" rx="6" fill="white" stroke="#CBD5E1" stroke-width="1"/><text x="695" y="119" text-anchor="middle" font-size="9" fill="#2C3E50">App Analytics</text>
  <rect x="760" y="100" width="108" height="28" rx="6" fill="white" stroke="#CBD5E1" stroke-width="1"/><text x="814" y="119" text-anchor="middle" font-size="9" fill="#2C3E50">Risk Systems</text>

  <!-- Layer 2: CDP / Data Platform -->
  <rect x="20" y="155" width="860" height="60" rx="8" fill="#E8F4FD" stroke="#1F4E79" stroke-width="1.5"/>
  <text x="80" y="178" font-size="11" font-weight="700" fill="#1F4E79">CDP / DATA PLATFORM</text>
  <text x="80" y="198" font-size="9" fill="#64748B">Customer 360 Profile</text>
  <rect x="250" y="165" width="130" height="36" rx="6" fill="white" stroke="#1F4E79" stroke-width="1"/><text x="315" y="188" text-anchor="middle" font-size="9" font-weight="600" fill="#1F4E79">Identity Resolution</text>
  <rect x="395" y="165" width="120" height="36" rx="6" fill="white" stroke="#1F4E79" stroke-width="1"/><text x="455" y="188" text-anchor="middle" font-size="9" font-weight="600" fill="#1F4E79">Feature Store</text>
  <rect x="530" y="165" width="130" height="36" rx="6" fill="white" stroke="#1F4E79" stroke-width="1"/><text x="595" y="188" text-anchor="middle" font-size="9" font-weight="600" fill="#1F4E79">Event Stream (Kafka)</text>
  <rect x="675" y="165" width="120" height="36" rx="6" fill="white" stroke="#1F4E79" stroke-width="1"/><text x="735" y="188" text-anchor="middle" font-size="9" font-weight="600" fill="#1F4E79">Segment Builder</text>

  <!-- Layer 3: ML / Personalization Engine (highlighted) -->
  <rect x="20" y="230" width="860" height="80" rx="8" fill="white" stroke="#2A7F62" stroke-width="2.5" filter="url(#s3)"/>
  <rect x="20" y="230" width="860" height="30" rx="8" fill="#2A7F62"/>
  <rect x="20" y="252" width="860" height="4" fill="#2A7F62"/>
  <text x="450" y="252" text-anchor="middle" font-size="12" font-weight="700" fill="white">🧠  ML PERSONALIZATION ENGINE  (Next-Best-Action Decisioning)</text>

  <rect x="40" y="268" width="135" height="30" rx="6" fill="#E8FAF0" stroke="#2A7F62" stroke-width="1"/>
  <text x="108" y="288" text-anchor="middle" font-size="9" font-weight="600" fill="#2A7F62">GBDT + DNN Models</text>

  <rect x="185" y="268" width="125" height="30" rx="6" fill="#E8FAF0" stroke="#2A7F62" stroke-width="1"/>
  <text x="248" y="288" text-anchor="middle" font-size="9" font-weight="600" fill="#2A7F62">Trigger Detection</text>

  <rect x="320" y="268" width="125" height="30" rx="6" fill="#E8FAF0" stroke="#2A7F62" stroke-width="1"/>
  <text x="383" y="288" text-anchor="middle" font-size="9" font-weight="600" fill="#2A7F62">Offer Sequencing</text>

  <rect x="455" y="268" width="120" height="30" rx="6" fill="#E8FAF0" stroke="#2A7F62" stroke-width="1"/>
  <text x="515" y="288" text-anchor="middle" font-size="9" font-weight="600" fill="#2A7F62">NPV Valuation</text>

  <rect x="585" y="268" width="135" height="30" rx="6" fill="#E8FAF0" stroke="#2A7F62" stroke-width="1"/>
  <text x="653" y="288" text-anchor="middle" font-size="9" font-weight="600" fill="#2A7F62">Frequency Optimizer</text>

  <rect x="730" y="268" width="138" height="30" rx="6" fill="#E8FAF0" stroke="#2A7F62" stroke-width="1"/>
  <text x="799" y="288" text-anchor="middle" font-size="9" font-weight="600" fill="#2A7F62">A/B Test Framework</text>

  <!-- Layer 4: Campaign Orchestration -->
  <rect x="20" y="325" width="860" height="55" rx="8" fill="#FFF7ED" stroke="#E97451" stroke-width="1.5"/>
  <text x="80" y="348" font-size="11" font-weight="700" fill="#E97451">ORCHESTRATION</text>
  <text x="80" y="366" font-size="9" fill="#64748B">Campaign Management</text>
  <rect x="250" y="335" width="140" height="34" rx="6" fill="white" stroke="#E97451" stroke-width="1"/>
  <text x="320" y="357" text-anchor="middle" font-size="9" font-weight="600" fill="#E97451">Adobe Campaign / Unica</text>
  <rect x="405" y="335" width="130" height="34" rx="6" fill="white" stroke="#E97451" stroke-width="1"/>
  <text x="470" y="357" text-anchor="middle" font-size="9" font-weight="600" fill="#E97451">Adobe Target (A/B)</text>
  <rect x="550" y="335" width="140" height="34" rx="6" fill="white" stroke="#E97451" stroke-width="1"/>
  <text x="620" y="357" text-anchor="middle" font-size="9" font-weight="600" fill="#E97451">Send-Time Optimizer</text>
  <rect x="705" y="335" width="130" height="34" rx="6" fill="white" stroke="#E97451" stroke-width="1"/>
  <text x="770" y="357" text-anchor="middle" font-size="9" font-weight="600" fill="#E97451">Journey Builder</text>

  <!-- Layer 5: Delivery Channels -->
  <rect x="20" y="395" width="860" height="60" rx="8" fill="#F1F5F9" stroke="#CBD5E1" stroke-width="1"/>
  <text x="80" y="418" font-size="11" font-weight="700" fill="#64748B">DELIVERY</text>
  <text x="80" y="436" font-size="9" fill="#94A3B8">Content &amp; Channels</text>
  <rect x="220" y="405" width="110" height="36" rx="6" fill="white" stroke="#CBD5E1" stroke-width="1"/>
  <text x="275" y="420" text-anchor="middle" font-size="9" font-weight="600" fill="#2C3E50">AEM (Web CMS)</text>
  <text x="275" y="434" text-anchor="middle" font-size="8" fill="#94A3B8">Web targeting attrs</text>
  <rect x="340" y="405" width="110" height="36" rx="6" fill="white" stroke="#CBD5E1" stroke-width="1"/>
  <text x="395" y="420" text-anchor="middle" font-size="9" font-weight="600" fill="#2C3E50">Mobile App</text>
  <text x="395" y="434" text-anchor="middle" font-size="8" fill="#94A3B8">In-app placements</text>
  <rect x="460" y="405" width="110" height="36" rx="6" fill="white" stroke="#CBD5E1" stroke-width="1"/>
  <text x="515" y="420" text-anchor="middle" font-size="9" font-weight="600" fill="#2C3E50">Email (ESP)</text>
  <text x="515" y="434" text-anchor="middle" font-size="8" fill="#94A3B8">Marketing &amp; service</text>
  <rect x="580" y="405" width="110" height="36" rx="6" fill="white" stroke="#CBD5E1" stroke-width="1"/>
  <text x="635" y="420" text-anchor="middle" font-size="9" font-weight="600" fill="#2C3E50">Statements</text>
  <text x="635" y="434" text-anchor="middle" font-size="8" fill="#94A3B8">Paper &amp; digital</text>
  <rect x="700" y="405" width="110" height="36" rx="6" fill="white" stroke="#CBD5E1" stroke-width="1"/>
  <text x="755" y="420" text-anchor="middle" font-size="9" font-weight="600" fill="#2C3E50">Contact Center</text>
  <text x="755" y="434" text-anchor="middle" font-size="8" fill="#94A3B8">Agent-assisted</text>

  <!-- Vertical flow arrows -->
  <line x1="450" y1="140" x2="450" y2="155" stroke="#CBD5E1" stroke-width="1.5"/>
  <line x1="450" y1="215" x2="450" y2="230" stroke="#1F4E79" stroke-width="1.5"/>
  <line x1="450" y1="310" x2="450" y2="325" stroke="#2A7F62" stroke-width="1.5"/>
  <line x1="450" y1="380" x2="450" y2="395" stroke="#E97451" stroke-width="1.5"/>

  <!-- Bottom annotation -->
  <text x="450" y="472" text-anchor="middle" font-size="10" fill="#94A3B8" font-style="italic">Personalization engine sits at the heart of the stack — consuming data, producing decisions, feeding orchestration</text>
</svg>
